<?xml version="1.0"?>
<svg height="160" version="1.1" viewBox="0 0 920 160" width="920" xmlns:xlink="http://www.w3.org/1999/xlink" xmlns="http://www.w3.org/2000/svg">
<g>
<g stroke-dasharray="1 1" stroke="#656565">
<line x1="0.00" x2="0.00" y1="160.00" y2="0.00" />
<line x1="92.77" x2="92.77" y1="160.00" y2="0.00" />
<line x1="185.55" x2="185.55" y1="160.00" y2="0.00" />
<line x1="278.32" x2="278.32" y1="160.00" y2="0.00" />
<line x1="371.09" x2="371.09" y1="160.00" y2="0.00" />
<line x1="463.87" x2="463.87" y1="160.00" y2="0.00" />
<line x1="556.64" x2="556.64" y1="160.00" y2="0.00" />
<line x1="649.41" x2="649.41" y1="160.00" y2="0.00" />
<line x1="742.18" x2="742.18" y1="160.00" y2="0.00" />
<line x1="834.96" x2="834.96" y1="160.00" y2="0.00" />
</g>
<g fill="none" stroke-width="7.6666665" stroke="#656565">
<line x1="0.00" x2="0.00" y1="123.92" y2="160.00" />
<line x1="7.73" x2="7.73" y1="151.87" y2="160.00" />
<line x1="15.46" x2="15.46" y1="39.94" y2="160.00" />
<line x1="23.19" x2="23.19" y1="146.58" y2="160.00" />
<line x1="30.92" x2="30.92" y1="127.19" y2="160.00" />
<line x1="38.66" x2="38.66" y1="126.73" y2="160.00" />
<line x1="46.39" x2="46.39" y1="123.66" y2="160.00" />
<line x1="54.12" x2="54.12" y1="106.54" y2="160.00" />
<line x1="61.85" x2="61.85" y1="116.14" y2="160.00" />
<line x1="69.58" x2="69.58" y1="100.74" y2="160.00" />
<line x1="77.31" x2="77.31" y1="100.44" y2="160.00" />
<line x1="85.04" x2="85.04" y1="110.45" y2="160.00" />
<line x1="92.77" x2="92.77" y1="101.12" y2="160.00" />
<line x1="100.50" x2="100.50" y1="140.80" y2="160.00" />
<line x1="108.24" x2="108.24" y1="130.47" y2="160.00" />
<line x1="115.97" x2="115.97" y1="117.85" y2="160.00" />
<line x1="123.70" x2="123.70" y1="127.12" y2="160.00" />
<line x1="131.43" x2="131.43" y1="132.43" y2="160.00" />
<line x1="139.16" x2="139.16" y1="107.67" y2="160.00" />
<line x1="146.89" x2="146.89" y1="129.34" y2="160.00" />
<line x1="154.62" x2="154.62" y1="116.12" y2="160.00" />
<line x1="162.35" x2="162.35" y1="116.91" y2="160.00" />
<line x1="170.08" x2="170.08" y1="84.03" y2="160.00" />
<line x1="177.82" x2="177.82" y1="98.50" y2="160.00" />
<line x1="185.55" x2="185.55" y1="144.55" y2="160.00" />
<line x1="193.28" x2="193.28" y1="132.26" y2="160.00" />
<line x1="201.01" x2="201.01" y1="155.17" y2="160.00" />
<line x1="208.74" x2="208.74" y1="103.25" y2="160.00" />
<line x1="216.47" x2="216.47" y1="123.33" y2="160.00" />
<line x1="224.20" x2="224.20" y1="124.44" y2="160.00" />
<line x1="231.93" x2="231.93" y1="118.40" y2="160.00" />
<line x1="239.66" x2="239.66" y1="127.09" y2="160.00" />
<line x1="247.39" x2="247.39" y1="115.94" y2="160.00" />
<line x1="255.13" x2="255.13" y1="101.98" y2="160.00" />
<line x1="262.86" x2="262.86" y1="64.05" y2="160.00" />
<line x1="270.59" x2="270.59" y1="130.58" y2="160.00" />
<line x1="278.32" x2="278.32" y1="149.63" y2="160.00" />
<line x1="286.05" x2="286.05" y1="160.00" y2="160.00" />
<line x1="293.78" x2="293.78" y1="154.89" y2="160.00" />
<line x1="301.51" x2="301.51" y1="134.55" y2="160.00" />
<line x1="309.24" x2="309.24" y1="125.10" y2="160.00" />
<line x1="316.97" x2="316.97" y1="124.86" y2="160.00" />
<line x1="324.71" x2="324.71" y1="129.57" y2="160.00" />
<line x1="332.44" x2="332.44" y1="110.11" y2="160.00" />
<line x1="340.17" x2="340.17" y1="122.01" y2="160.00" />
<line x1="347.90" x2="347.90" y1="86.88" y2="160.00" />
<line x1="355.63" x2="355.63" y1="84.03" y2="160.00" />
<line x1="363.36" x2="363.36" y1="83.61" y2="160.00" />
<line x1="371.09" x2="371.09" y1="147.44" y2="160.00" />
<line x1="378.82" x2="378.82" y1="156.08" y2="160.00" />
<line x1="386.55" x2="386.55" y1="158.68" y2="160.00" />
<line x1="394.29" x2="394.29" y1="127.22" y2="160.00" />
<line x1="402.02" x2="402.02" y1="129.16" y2="160.00" />
<line x1="409.75" x2="409.75" y1="117.70" y2="160.00" />
<line x1="417.48" x2="417.48" y1="124.60" y2="160.00" />
<line x1="425.21" x2="425.21" y1="115.49" y2="160.00" />
<line x1="432.94" x2="432.94" y1="101.22" y2="160.00" />
<line x1="440.67" x2="440.67" y1="108.24" y2="160.00" />
<line x1="448.40" x2="448.40" y1="65.86" y2="160.00" />
<line x1="456.13" x2="456.13" y1="120.48" y2="160.00" />
<line x1="463.87" x2="463.87" y1="142.20" y2="160.00" />
<line x1="471.60" x2="471.60" y1="151.61" y2="160.00" />
<line x1="479.33" x2="479.33" y1="159.85" y2="160.00" />
<line x1="487.06" x2="487.06" y1="157.06" y2="160.00" />
<line x1="494.79" x2="494.79" y1="120.96" y2="160.00" />
<line x1="502.52" x2="502.52" y1="116.67" y2="160.00" />
<line x1="510.25" x2="510.25" y1="107.41" y2="160.00" />
<line x1="517.98" x2="517.98" y1="126.60" y2="160.00" />
<line x1="525.71" x2="525.71" y1="126.42" y2="160.00" />
<line x1="533.45" x2="533.45" y1="103.65" y2="160.00" />
<line x1="541.18" x2="541.18" y1="120.68" y2="160.00" />
<line x1="548.91" x2="548.91" y1="2.62" y2="160.00" />
<line x1="556.64" x2="556.64" y1="18.83" y2="160.00" />
<line x1="564.37" x2="564.37" y1="147.18" y2="160.00" />
<line x1="572.10" x2="572.10" y1="130.26" y2="160.00" />
<line x1="579.83" x2="579.83" y1="109.37" y2="160.00" />
<line x1="587.56" x2="587.56" y1="110.57" y2="160.00" />
<line x1="595.29" x2="595.29" y1="127.12" y2="160.00" />
<line x1="603.03" x2="603.03" y1="128.46" y2="160.00" />
<line x1="610.76" x2="610.76" y1="115.57" y2="160.00" />
<line x1="618.49" x2="618.49" y1="99.88" y2="160.00" />
<line x1="626.22" x2="626.22" y1="124.14" y2="160.00" />
<line x1="633.95" x2="633.95" y1="0.00" y2="160.00" />
<line x1="641.68" x2="641.68" y1="107.09" y2="160.00" />
<line x1="649.41" x2="649.41" y1="122.59" y2="160.00" />
<line x1="657.14" x2="657.14" y1="153.41" y2="160.00" />
<line x1="664.87" x2="664.87" y1="149.70" y2="160.00" />
<line x1="672.61" x2="672.61" y1="122.07" y2="160.00" />
<line x1="680.34" x2="680.34" y1="117.12" y2="160.00" />
<line x1="688.07" x2="688.07" y1="123.86" y2="160.00" />
<line x1="695.80" x2="695.80" y1="126.53" y2="160.00" />
<line x1="703.53" x2="703.53" y1="128.67" y2="160.00" />
<line x1="711.26" x2="711.26" y1="119.95" y2="160.00" />
<line x1="718.99" x2="718.99" y1="89.56" y2="160.00" />
<line x1="726.72" x2="726.72" y1="90.93" y2="160.00" />
<line x1="734.45" x2="734.45" y1="72.54" y2="160.00" />
<line x1="742.18" x2="742.18" y1="100.69" y2="160.00" />
<line x1="749.92" x2="749.92" y1="158.46" y2="160.00" />
<line x1="757.65" x2="757.65" y1="154.98" y2="160.00" />
<line x1="765.38" x2="765.38" y1="142.06" y2="160.00" />
<line x1="773.11" x2="773.11" y1="123.99" y2="160.00" />
<line x1="780.84" x2="780.84" y1="114.92" y2="160.00" />
<line x1="788.57" x2="788.57" y1="127.31" y2="160.00" />
<line x1="796.30" x2="796.30" y1="124.32" y2="160.00" />
<line x1="804.03" x2="804.03" y1="116.69" y2="160.00" />
<line x1="811.76" x2="811.76" y1="91.84" y2="160.00" />
<line x1="819.50" x2="819.50" y1="116.66" y2="160.00" />
<line x1="827.23" x2="827.23" y1="146.40" y2="160.00" />
<line x1="834.96" x2="834.96" y1="158.60" y2="160.00" />
<line x1="842.69" x2="842.69" y1="151.16" y2="160.00" />
<line x1="850.42" x2="850.42" y1="158.38" y2="160.00" />
<line x1="858.15" x2="858.15" y1="119.55" y2="160.00" />
<line x1="865.88" x2="865.88" y1="110.48" y2="160.00" />
<line x1="873.61" x2="873.61" y1="105.62" y2="160.00" />
<line x1="881.34" x2="881.34" y1="106.35" y2="160.00" />
<line x1="889.08" x2="889.08" y1="124.22" y2="160.00" />
<line x1="896.81" x2="896.81" y1="90.20" y2="160.00" />
<line x1="904.54" x2="904.54" y1="94.45" y2="160.00" />
<line x1="912.27" x2="912.27" y1="84.06" y2="160.00" />
<line x1="920.00" x2="920.00" y1="76.71" y2="160.00" />
</g>
<g stroke="black">
<line x1="0.00" x2="0.00" y1="-1.00" y2="-1.00" />
<line x1="92.77" x2="92.77" y1="-1.00" y2="-1.00" />
<line x1="185.55" x2="185.55" y1="-1.00" y2="-1.00" />
<line x1="278.32" x2="278.32" y1="-1.00" y2="-1.00" />
<line x1="371.09" x2="371.09" y1="-1.00" y2="-1.00" />
<line x1="463.87" x2="463.87" y1="-1.00" y2="-1.00" />
<line x1="556.64" x2="556.64" y1="-1.00" y2="-1.00" />
<line x1="649.41" x2="649.41" y1="-1.00" y2="-1.00" />
<line x1="742.18" x2="742.18" y1="-1.00" y2="-1.00" />
<line x1="834.96" x2="834.96" y1="-1.00" y2="-1.00" />
<g fill="none" font-family="Arial, sans-serif" font-size="10" stroke="none" text-anchor="middle">
<text x="0.00" y="9.00">0.00</text>
<text x="92.77" y="9.00">12.00</text>
<text x="185.55" y="9.00">24.00</text>
<text x="278.32" y="9.00">36.00</text>
<text x="371.09" y="9.00">48.00</text>
<text x="463.87" y="9.00">60.00</text>
<text x="556.64" y="9.00">72.00</text>
<text x="649.41" y="9.00">84.00</text>
<text x="742.18" y="9.00">96.00</text>
<text x="834.96" y="9.00">108.00</text>
</g>
<line x1="0.00" x2="920.00" y1="-1.00" y2="-1.00" />
</g>
<g stroke-dasharray="1 1" stroke="#656565">
<g fill="black" font-family="Arial, sans-serif" font-size="10" stroke="none" text-anchor="middle" />
<line x1="0.00" x2="0.00" y1="160.00" y2="0.00" />
</g>
</g>
</svg>
