<?xml version="1.0"?>
<svg height="350" version="1.1" width="1000" xmlns:xlink="http://www.w3.org/1999/xlink" xmlns="http://www.w3.org/2000/svg">
<g>
<g>
<g>
<g stroke-dasharray="1 1" stroke="#ccc">
<line x1="80.00" x2="1000.00" y1="7.61" y2="7.61" />
<line x1="80.00" x2="1000.00" y1="22.83" y2="22.83" />
<line x1="80.00" x2="1000.00" y1="38.04" y2="38.04" />
<line x1="80.00" x2="1000.00" y1="53.26" y2="53.26" />
<line x1="80.00" x2="1000.00" y1="68.48" y2="68.48" />
<line x1="80.00" x2="1000.00" y1="83.70" y2="83.70" />
<line x1="80.00" x2="1000.00" y1="98.91" y2="98.91" />
<line x1="80.00" x2="1000.00" y1="114.13" y2="114.13" />
<line x1="80.00" x2="1000.00" y1="129.35" y2="129.35" />
<line x1="80.00" x2="1000.00" y1="144.57" y2="144.57" />
<line x1="80.00" x2="1000.00" y1="159.78" y2="159.78" />
<line x1="80.00" x2="1000.00" y1="175.00" y2="175.00" />
<line x1="80.00" x2="1000.00" y1="190.22" y2="190.22" />
<line x1="80.00" x2="1000.00" y1="205.43" y2="205.43" />
<line x1="80.00" x2="1000.00" y1="220.65" y2="220.65" />
<line x1="80.00" x2="1000.00" y1="235.87" y2="235.87" />
<line x1="80.00" x2="1000.00" y1="251.09" y2="251.09" />
<line x1="80.00" x2="1000.00" y1="266.30" y2="266.30" />
<line x1="80.00" x2="1000.00" y1="281.52" y2="281.52" />
<line x1="80.00" x2="1000.00" y1="296.74" y2="296.74" />
<line x1="80.00" x2="1000.00" y1="311.96" y2="311.96" />
<line x1="80.00" x2="1000.00" y1="327.17" y2="327.17" />
<line x1="80.00" x2="1000.00" y1="342.39" y2="342.39" />
</g>
<g stroke="black">
<g fill="none" font-family="Arial, sans-serif" font-size="10" stroke="none" text-anchor="middle" />
<line x1="80.00" x2="1000.00" y1="251.09" y2="251.09" />
</g>
<g stroke="black">
<line x1="80.00" x2="70.00" y1="7.61" y2="7.61" />
<line x1="80.00" x2="70.00" y1="22.83" y2="22.83" />
<line x1="80.00" x2="70.00" y1="38.04" y2="38.04" />
<line x1="80.00" x2="70.00" y1="53.26" y2="53.26" />
<line x1="80.00" x2="70.00" y1="68.48" y2="68.48" />
<line x1="80.00" x2="70.00" y1="83.70" y2="83.70" />
<line x1="80.00" x2="70.00" y1="98.91" y2="98.91" />
<line x1="80.00" x2="70.00" y1="114.13" y2="114.13" />
<line x1="80.00" x2="70.00" y1="129.35" y2="129.35" />
<line x1="80.00" x2="70.00" y1="144.57" y2="144.57" />
<line x1="80.00" x2="70.00" y1="159.78" y2="159.78" />
<line x1="80.00" x2="70.00" y1="175.00" y2="175.00" />
<line x1="80.00" x2="70.00" y1="190.22" y2="190.22" />
<line x1="80.00" x2="70.00" y1="205.43" y2="205.43" />
<line x1="80.00" x2="70.00" y1="220.65" y2="220.65" />
<line x1="80.00" x2="70.00" y1="235.87" y2="235.87" />
<line x1="80.00" x2="70.00" y1="251.09" y2="251.09" />
<line x1="80.00" x2="70.00" y1="266.30" y2="266.30" />
<line x1="80.00" x2="70.00" y1="281.52" y2="281.52" />
<line x1="80.00" x2="70.00" y1="296.74" y2="296.74" />
<line x1="80.00" x2="70.00" y1="311.96" y2="311.96" />
<line x1="80.00" x2="70.00" y1="327.17" y2="327.17" />
<line x1="80.00" x2="70.00" y1="342.39" y2="342.39" />
<g fill="black" font-family="Arial, sans-serif" font-size="10" stroke="none" text-anchor="middle">
<text x="60.00" y="7.61">-16.00</text>
<text x="60.00" y="22.83">-15.00</text>
<text x="60.00" y="38.04">-14.00</text>
<text x="60.00" y="53.26">-13.00</text>
<text x="60.00" y="68.48">-12.00</text>
<text x="60.00" y="83.70">-11.00</text>
<text x="60.00" y="98.91">-10.00</text>
<text x="60.00" y="114.13">-9.00</text>
<text x="60.00" y="129.35">-8.00</text>
<text x="60.00" y="144.57">-7.00</text>
<text x="60.00" y="159.78">-6.00</text>
<text x="60.00" y="175.00">-5.00</text>
<text x="60.00" y="190.22">-4.00</text>
<text x="60.00" y="205.43">-3.00</text>
<text x="60.00" y="220.65">-2.00</text>
<text x="60.00" y="235.87">-1.00</text>
<text x="60.00" y="251.09">0.00</text>
<text x="60.00" y="266.30">1.00</text>
<text x="60.00" y="281.52">2.00</text>
<text x="60.00" y="296.74">3.00</text>
<text x="60.00" y="311.96">4.00</text>
<text x="60.00" y="327.17">5.00</text>
<text x="60.00" y="342.39">6.00</text>
</g>
<line x1="80.00" x2="80.00" y1="0.00" y2="350.00" />
</g>
</g>
<g>
<g stroke-dasharray="1 1" stroke="#ccc">
</g>
<g stroke-width="1.887308533916849" stroke="#ffb2b0">
<line x1="88.80" x2="88.80" y1="199.80" y2="251.09" />
<line x1="91.31" x2="91.31" y1="251.09" y2="251.09" />
<line x1="96.33" x2="96.33" y1="205.13" y2="251.09" />
<line x1="106.39" x2="106.39" y1="177.74" y2="251.09" />
<line x1="232.03" x2="232.03" y1="249.85" y2="251.09" />
<line x1="239.57" x2="239.57" y1="218.26" y2="251.09" />
<line x1="242.09" x2="242.09" y1="224.48" y2="251.09" />
<line x1="244.60" x2="244.60" y1="211.57" y2="251.09" />
<line x1="267.22" x2="267.22" y1="187.51" y2="251.09" />
<line x1="299.89" x2="299.89" y1="188.73" y2="251.09" />
<line x1="302.40" x2="302.40" y1="175.97" y2="251.09" />
<line x1="307.42" x2="307.42" y1="147.84" y2="251.09" />
<line x1="309.94" x2="309.94" y1="195.57" y2="251.09" />
<line x1="312.45" x2="312.45" y1="167.65" y2="251.09" />
<line x1="317.48" x2="317.48" y1="117.90" y2="251.09" />
<line x1="322.50" x2="322.50" y1="162.59" y2="251.09" />
<line x1="325.02" x2="325.02" y1="182.41" y2="251.09" />
<line x1="330.04" x2="330.04" y1="228.96" y2="251.09" />
<line x1="342.61" x2="342.61" y1="248.20" y2="251.09" />
<line x1="345.12" x2="345.12" y1="321.70" y2="251.09" />
<line x1="347.63" x2="347.63" y1="228.89" y2="251.09" />
<line x1="350.14" x2="350.14" y1="224.97" y2="251.09" />
<line x1="352.66" x2="352.66" y1="195.63" y2="251.09" />
<line x1="355.17" x2="355.17" y1="216.19" y2="251.09" />
<line x1="357.68" x2="357.68" y1="177.61" y2="251.09" />
<line x1="365.22" x2="365.22" y1="231.58" y2="251.09" />
<line x1="370.25" x2="370.25" y1="204.04" y2="251.09" />
<line x1="377.79" x2="377.79" y1="206.16" y2="251.09" />
<line x1="380.30" x2="380.30" y1="276.94" y2="251.09" />
<line x1="387.84" x2="387.84" y1="229.66" y2="251.09" />
<line x1="392.87" x2="392.87" y1="285.08" y2="251.09" />
<line x1="395.38" x2="395.38" y1="311.55" y2="251.09" />
<line x1="397.89" x2="397.89" y1="252.88" y2="251.09" />
<line x1="402.92" x2="402.92" y1="236.90" y2="251.09" />
<line x1="407.94" x2="407.94" y1="183.78" y2="251.09" />
<line x1="412.97" x2="412.97" y1="186.86" y2="251.09" />
<line x1="418.00" x2="418.00" y1="187.15" y2="251.09" />
<line x1="423.02" x2="423.02" y1="152.69" y2="251.09" />
<line x1="425.53" x2="425.53" y1="152.60" y2="251.09" />
<line x1="438.10" x2="438.10" y1="220.88" y2="251.09" />
<line x1="440.61" x2="440.61" y1="207.22" y2="251.09" />
<line x1="445.64" x2="445.64" y1="293.86" y2="251.09" />
<line x1="450.66" x2="450.66" y1="376.49" y2="251.09" />
<line x1="458.20" x2="458.20" y1="149.38" y2="251.09" />
<line x1="463.23" x2="463.23" y1="95.90" y2="251.09" />
<line x1="470.77" x2="470.77" y1="48.64" y2="251.09" />
<line x1="473.28" x2="473.28" y1="98.88" y2="251.09" />
<line x1="480.82" x2="480.82" y1="213.74" y2="251.09" />
<line x1="488.36" x2="488.36" y1="201.29" y2="251.09" />
<line x1="490.87" x2="490.87" y1="148.32" y2="251.09" />
<line x1="493.38" x2="493.38" y1="223.67" y2="251.09" />
<line x1="495.90" x2="495.90" y1="190.77" y2="251.09" />
<line x1="498.41" x2="498.41" y1="183.61" y2="251.09" />
<line x1="500.92" x2="500.92" y1="176.09" y2="251.09" />
<line x1="513.49" x2="513.49" y1="221.69" y2="251.09" />
<line x1="516.00" x2="516.00" y1="248.74" y2="251.09" />
<line x1="518.51" x2="518.51" y1="211.52" y2="251.09" />
<line x1="521.03" x2="521.03" y1="257.92" y2="251.09" />
<line x1="523.54" x2="523.54" y1="206.69" y2="251.09" />
<line x1="531.08" x2="531.08" y1="240.92" y2="251.09" />
<line x1="533.59" x2="533.59" y1="199.94" y2="251.09" />
<line x1="536.10" x2="536.10" y1="242.46" y2="251.09" />
<line x1="538.62" x2="538.62" y1="237.68" y2="251.09" />
<line x1="546.16" x2="546.16" y1="198.32" y2="251.09" />
<line x1="548.67" x2="548.67" y1="236.99" y2="251.09" />
<line x1="551.18" x2="551.18" y1="162.73" y2="251.09" />
<line x1="553.70" x2="553.70" y1="177.16" y2="251.09" />
<line x1="556.21" x2="556.21" y1="199.67" y2="251.09" />
<line x1="563.75" x2="563.75" y1="206.59" y2="251.09" />
<line x1="566.26" x2="566.26" y1="249.00" y2="251.09" />
<line x1="571.29" x2="571.29" y1="233.51" y2="251.09" />
<line x1="573.80" x2="573.80" y1="212.21" y2="251.09" />
<line x1="576.31" x2="576.31" y1="294.92" y2="251.09" />
<line x1="578.83" x2="578.83" y1="232.96" y2="251.09" />
<line x1="588.88" x2="588.88" y1="237.93" y2="251.09" />
<line x1="591.39" x2="591.39" y1="249.70" y2="251.09" />
<line x1="596.42" x2="596.42" y1="249.54" y2="251.09" />
<line x1="598.93" x2="598.93" y1="214.48" y2="251.09" />
<line x1="601.44" x2="601.44" y1="191.01" y2="251.09" />
<line x1="606.47" x2="606.47" y1="251.09" y2="251.09" />
<line x1="608.98" x2="608.98" y1="248.99" y2="251.09" />
<line x1="614.01" x2="614.01" y1="252.37" y2="251.09" />
<line x1="621.55" x2="621.55" y1="238.05" y2="251.09" />
<line x1="624.06" x2="624.06" y1="272.65" y2="251.09" />
<line x1="626.57" x2="626.57" y1="161.58" y2="251.09" />
<line x1="629.08" x2="629.08" y1="145.71" y2="251.09" />
<line x1="631.60" x2="631.60" y1="143.29" y2="251.09" />
<line x1="634.11" x2="634.11" y1="166.73" y2="251.09" />
<line x1="651.70" x2="651.70" y1="180.29" y2="251.09" />
<line x1="654.21" x2="654.21" y1="168.55" y2="251.09" />
<line x1="656.73" x2="656.73" y1="287.10" y2="251.09" />
<line x1="659.24" x2="659.24" y1="153.71" y2="251.09" />
<line x1="664.27" x2="664.27" y1="261.87" y2="251.09" />
<line x1="669.29" x2="669.29" y1="193.06" y2="251.09" />
<line x1="671.81" x2="671.81" y1="166.81" y2="251.09" />
<line x1="674.32" x2="674.32" y1="203.70" y2="251.09" />
<line x1="676.83" x2="676.83" y1="188.31" y2="251.09" />
<line x1="679.34" x2="679.34" y1="136.77" y2="251.09" />
<line x1="681.86" x2="681.86" y1="130.56" y2="251.09" />
<line x1="684.37" x2="684.37" y1="156.57" y2="251.09" />
<line x1="686.88" x2="686.88" y1="209.60" y2="251.09" />
<line x1="696.94" x2="696.94" y1="244.26" y2="251.09" />
<line x1="704.47" x2="704.47" y1="251.09" y2="251.09" />
<line x1="706.99" x2="706.99" y1="242.03" y2="251.09" />
<line x1="709.50" x2="709.50" y1="207.53" y2="251.09" />
<line x1="712.01" x2="712.01" y1="220.07" y2="251.09" />
<line x1="714.53" x2="714.53" y1="130.89" y2="251.09" />
<line x1="717.04" x2="717.04" y1="187.71" y2="251.09" />
<line x1="722.07" x2="722.07" y1="235.65" y2="251.09" />
<line x1="724.58" x2="724.58" y1="156.80" y2="251.09" />
<line x1="727.09" x2="727.09" y1="109.14" y2="251.09" />
<line x1="729.60" x2="729.60" y1="143.01" y2="251.09" />
<line x1="732.12" x2="732.12" y1="165.66" y2="251.09" />
<line x1="734.63" x2="734.63" y1="197.94" y2="251.09" />
<line x1="739.66" x2="739.66" y1="189.75" y2="251.09" />
<line x1="744.68" x2="744.68" y1="274.05" y2="251.09" />
<line x1="752.22" x2="752.22" y1="156.86" y2="251.09" />
<line x1="757.25" x2="757.25" y1="148.67" y2="251.09" />
<line x1="764.79" x2="764.79" y1="151.82" y2="251.09" />
<line x1="769.81" x2="769.81" y1="158.62" y2="251.09" />
<line x1="772.32" x2="772.32" y1="149.30" y2="251.09" />
<line x1="774.84" x2="774.84" y1="127.59" y2="251.09" />
<line x1="777.35" x2="777.35" y1="145.81" y2="251.09" />
<line x1="779.86" x2="779.86" y1="73.61" y2="251.09" />
<line x1="782.38" x2="782.38" y1="149.38" y2="251.09" />
<line x1="784.89" x2="784.89" y1="155.76" y2="251.09" />
<line x1="787.40" x2="787.40" y1="194.66" y2="251.09" />
<line x1="797.45" x2="797.45" y1="178.27" y2="251.09" />
<line x1="799.97" x2="799.97" y1="158.81" y2="251.09" />
<line x1="802.48" x2="802.48" y1="198.71" y2="251.09" />
<line x1="807.51" x2="807.51" y1="196.56" y2="251.09" />
<line x1="810.02" x2="810.02" y1="191.99" y2="251.09" />
<line x1="812.53" x2="812.53" y1="212.69" y2="251.09" />
<line x1="815.05" x2="815.05" y1="226.54" y2="251.09" />
<line x1="820.07" x2="820.07" y1="177.63" y2="251.09" />
<line x1="822.58" x2="822.58" y1="186.18" y2="251.09" />
<line x1="827.61" x2="827.61" y1="172.41" y2="251.09" />
<line x1="830.12" x2="830.12" y1="176.14" y2="251.09" />
<line x1="835.15" x2="835.15" y1="150.29" y2="251.09" />
<line x1="845.20" x2="845.20" y1="171.75" y2="251.09" />
<line x1="852.74" x2="852.74" y1="73.92" y2="251.09" />
<line x1="855.25" x2="855.25" y1="267.69" y2="251.09" />
<line x1="860.28" x2="860.28" y1="233.89" y2="251.09" />
<line x1="862.79" x2="862.79" y1="222.48" y2="251.09" />
<line x1="865.30" x2="865.30" y1="120.67" y2="251.09" />
<line x1="867.82" x2="867.82" y1="85.98" y2="251.09" />
<line x1="870.33" x2="870.33" y1="82.16" y2="251.09" />
<line x1="877.87" x2="877.87" y1="180.74" y2="251.09" />
<line x1="880.38" x2="880.38" y1="220.75" y2="251.09" />
<line x1="882.90" x2="882.90" y1="202.05" y2="251.09" />
<line x1="892.95" x2="892.95" y1="211.67" y2="251.09" />
<line x1="895.46" x2="895.46" y1="211.50" y2="251.09" />
<line x1="897.97" x2="897.97" y1="156.90" y2="251.09" />
<line x1="900.49" x2="900.49" y1="170.85" y2="251.09" />
<line x1="903.00" x2="903.00" y1="158.10" y2="251.09" />
<line x1="905.51" x2="905.51" y1="244.85" y2="251.09" />
<line x1="908.03" x2="908.03" y1="203.24" y2="251.09" />
<line x1="910.54" x2="910.54" y1="162.14" y2="251.09" />
<line x1="913.05" x2="913.05" y1="177.82" y2="251.09" />
<line x1="915.56" x2="915.56" y1="251.09" y2="251.09" />
<line x1="923.10" x2="923.10" y1="209.62" y2="251.09" />
<line x1="925.62" x2="925.62" y1="190.07" y2="251.09" />
<line x1="928.13" x2="928.13" y1="206.03" y2="251.09" />
<line x1="933.15" x2="933.15" y1="129.77" y2="251.09" />
<line x1="935.67" x2="935.67" y1="167.44" y2="251.09" />
<line x1="938.18" x2="938.18" y1="176.97" y2="251.09" />
<line x1="940.69" x2="940.69" y1="251.09" y2="251.09" />
<line x1="943.21" x2="943.21" y1="160.65" y2="251.09" />
<line x1="945.72" x2="945.72" y1="346.27" y2="251.09" />
<line x1="953.26" x2="953.26" y1="150.81" y2="251.09" />
<line x1="955.77" x2="955.77" y1="163.66" y2="251.09" />
<line x1="960.80" x2="960.80" y1="238.45" y2="251.09" />
<line x1="963.31" x2="963.31" y1="220.81" y2="251.09" />
<line x1="965.82" x2="965.82" y1="253.32" y2="251.09" />
<line x1="970.85" x2="970.85" y1="251.09" y2="251.09" />
<line x1="973.36" x2="973.36" y1="217.19" y2="251.09" />
<line x1="975.88" x2="975.88" y1="230.72" y2="251.09" />
<line x1="980.90" x2="980.90" y1="218.49" y2="251.09" />
<line x1="983.41" x2="983.41" y1="246.18" y2="251.09" />
<line x1="985.93" x2="985.93" y1="168.17" y2="251.09" />
<line x1="988.44" x2="988.44" y1="253.16" y2="251.09" />
<line x1="990.95" x2="990.95" y1="205.72" y2="251.09" />
<line x1="993.47" x2="993.47" y1="208.81" y2="251.09" />
<line x1="995.98" x2="995.98" y1="210.38" y2="251.09" />
</g>
<g stroke="black">
<g fill="black" font-family="Arial, sans-serif" font-size="10" stroke="none" text-anchor="middle" />
<line x1="80.00" x2="1000.00" y1="251.09" y2="251.09" />
</g>
<g stroke="black">
<g fill="black" font-family="Arial, sans-serif" font-size="10" stroke="none" text-anchor="middle" />
<line x1="80.00" x2="80.00" y1="251.09" y2="0.00" />
</g>
</g>
</g>
<text style="font-size: 30px;" x="100.00" y="23.00">2014</text>
<text x="5.00" y="150.00">d18O</text>
</g>
</svg>