<?xml version="1.0"?>
<svg height="350" version="1.1" width="1000" xmlns:xlink="http://www.w3.org/1999/xlink" xmlns="http://www.w3.org/2000/svg">
<g>
<g>
<g>
<g stroke-dasharray="1 1" stroke="#ccc">
<line x1="80.00" x2="1000.00" y1="7.61" y2="7.61" />
<line x1="80.00" x2="1000.00" y1="22.83" y2="22.83" />
<line x1="80.00" x2="1000.00" y1="38.04" y2="38.04" />
<line x1="80.00" x2="1000.00" y1="53.26" y2="53.26" />
<line x1="80.00" x2="1000.00" y1="68.48" y2="68.48" />
<line x1="80.00" x2="1000.00" y1="83.70" y2="83.70" />
<line x1="80.00" x2="1000.00" y1="98.91" y2="98.91" />
<line x1="80.00" x2="1000.00" y1="114.13" y2="114.13" />
<line x1="80.00" x2="1000.00" y1="129.35" y2="129.35" />
<line x1="80.00" x2="1000.00" y1="144.57" y2="144.57" />
<line x1="80.00" x2="1000.00" y1="159.78" y2="159.78" />
<line x1="80.00" x2="1000.00" y1="175.00" y2="175.00" />
<line x1="80.00" x2="1000.00" y1="190.22" y2="190.22" />
<line x1="80.00" x2="1000.00" y1="205.43" y2="205.43" />
<line x1="80.00" x2="1000.00" y1="220.65" y2="220.65" />
<line x1="80.00" x2="1000.00" y1="235.87" y2="235.87" />
<line x1="80.00" x2="1000.00" y1="251.09" y2="251.09" />
<line x1="80.00" x2="1000.00" y1="266.30" y2="266.30" />
<line x1="80.00" x2="1000.00" y1="281.52" y2="281.52" />
<line x1="80.00" x2="1000.00" y1="296.74" y2="296.74" />
<line x1="80.00" x2="1000.00" y1="311.96" y2="311.96" />
<line x1="80.00" x2="1000.00" y1="327.17" y2="327.17" />
<line x1="80.00" x2="1000.00" y1="342.39" y2="342.39" />
</g>
<g stroke="black">
<g fill="none" font-family="Arial, sans-serif" font-size="10" stroke="none" text-anchor="middle" />
<line x1="80.00" x2="1000.00" y1="251.09" y2="251.09" />
</g>
<g stroke="black">
<line x1="80.00" x2="70.00" y1="7.61" y2="7.61" />
<line x1="80.00" x2="70.00" y1="22.83" y2="22.83" />
<line x1="80.00" x2="70.00" y1="38.04" y2="38.04" />
<line x1="80.00" x2="70.00" y1="53.26" y2="53.26" />
<line x1="80.00" x2="70.00" y1="68.48" y2="68.48" />
<line x1="80.00" x2="70.00" y1="83.70" y2="83.70" />
<line x1="80.00" x2="70.00" y1="98.91" y2="98.91" />
<line x1="80.00" x2="70.00" y1="114.13" y2="114.13" />
<line x1="80.00" x2="70.00" y1="129.35" y2="129.35" />
<line x1="80.00" x2="70.00" y1="144.57" y2="144.57" />
<line x1="80.00" x2="70.00" y1="159.78" y2="159.78" />
<line x1="80.00" x2="70.00" y1="175.00" y2="175.00" />
<line x1="80.00" x2="70.00" y1="190.22" y2="190.22" />
<line x1="80.00" x2="70.00" y1="205.43" y2="205.43" />
<line x1="80.00" x2="70.00" y1="220.65" y2="220.65" />
<line x1="80.00" x2="70.00" y1="235.87" y2="235.87" />
<line x1="80.00" x2="70.00" y1="251.09" y2="251.09" />
<line x1="80.00" x2="70.00" y1="266.30" y2="266.30" />
<line x1="80.00" x2="70.00" y1="281.52" y2="281.52" />
<line x1="80.00" x2="70.00" y1="296.74" y2="296.74" />
<line x1="80.00" x2="70.00" y1="311.96" y2="311.96" />
<line x1="80.00" x2="70.00" y1="327.17" y2="327.17" />
<line x1="80.00" x2="70.00" y1="342.39" y2="342.39" />
<g fill="black" font-family="Arial, sans-serif" font-size="10" stroke="none" text-anchor="middle">
<text x="60.00" y="7.61">-16.00</text>
<text x="60.00" y="22.83">-15.00</text>
<text x="60.00" y="38.04">-14.00</text>
<text x="60.00" y="53.26">-13.00</text>
<text x="60.00" y="68.48">-12.00</text>
<text x="60.00" y="83.70">-11.00</text>
<text x="60.00" y="98.91">-10.00</text>
<text x="60.00" y="114.13">-9.00</text>
<text x="60.00" y="129.35">-8.00</text>
<text x="60.00" y="144.57">-7.00</text>
<text x="60.00" y="159.78">-6.00</text>
<text x="60.00" y="175.00">-5.00</text>
<text x="60.00" y="190.22">-4.00</text>
<text x="60.00" y="205.43">-3.00</text>
<text x="60.00" y="220.65">-2.00</text>
<text x="60.00" y="235.87">-1.00</text>
<text x="60.00" y="251.09">0.00</text>
<text x="60.00" y="266.30">1.00</text>
<text x="60.00" y="281.52">2.00</text>
<text x="60.00" y="296.74">3.00</text>
<text x="60.00" y="311.96">4.00</text>
<text x="60.00" y="327.17">5.00</text>
<text x="60.00" y="342.39">6.00</text>
</g>
<line x1="80.00" x2="80.00" y1="0.00" y2="350.00" />
</g>
</g>
<g>
<g stroke-dasharray="1 1" stroke="#ccc">
</g>
<g stroke-width="1.887308533916849" stroke="#ffb2b0">
<line x1="91.31" x2="91.31" y1="250.42" y2="251.09" />
<line x1="93.82" x2="93.82" y1="197.61" y2="251.09" />
<line x1="96.33" x2="96.33" y1="190.08" y2="251.09" />
<line x1="101.36" x2="101.36" y1="222.00" y2="251.09" />
<line x1="116.44" x2="116.44" y1="250.81" y2="251.09" />
<line x1="118.95" x2="118.95" y1="205.54" y2="251.09" />
<line x1="126.49" x2="126.49" y1="169.20" y2="251.09" />
<line x1="129.00" x2="129.00" y1="198.17" y2="251.09" />
<line x1="151.62" x2="151.62" y1="221.48" y2="251.09" />
<line x1="307.42" x2="307.42" y1="261.38" y2="251.09" />
<line x1="309.94" x2="309.94" y1="220.71" y2="251.09" />
<line x1="335.07" x2="335.07" y1="218.42" y2="251.09" />
<line x1="342.61" x2="342.61" y1="217.20" y2="251.09" />
<line x1="360.20" x2="360.20" y1="258.88" y2="251.09" />
<line x1="362.71" x2="362.71" y1="227.01" y2="251.09" />
<line x1="367.74" x2="367.74" y1="224.20" y2="251.09" />
<line x1="370.25" x2="370.25" y1="235.53" y2="251.09" />
<line x1="372.76" x2="372.76" y1="223.17" y2="251.09" />
<line x1="380.30" x2="380.30" y1="273.08" y2="251.09" />
<line x1="382.81" x2="382.81" y1="201.78" y2="251.09" />
<line x1="412.97" x2="412.97" y1="193.00" y2="251.09" />
<line x1="415.48" x2="415.48" y1="178.38" y2="251.09" />
<line x1="423.02" x2="423.02" y1="254.42" y2="251.09" />
<line x1="428.05" x2="428.05" y1="271.07" y2="251.09" />
<line x1="443.12" x2="443.12" y1="198.59" y2="251.09" />
<line x1="445.64" x2="445.64" y1="202.26" y2="251.09" />
<line x1="448.15" x2="448.15" y1="213.18" y2="251.09" />
<line x1="450.66" x2="450.66" y1="151.71" y2="251.09" />
<line x1="465.74" x2="465.74" y1="174.07" y2="251.09" />
<line x1="473.28" x2="473.28" y1="197.36" y2="251.09" />
<line x1="478.31" x2="478.31" y1="219.24" y2="251.09" />
<line x1="480.82" x2="480.82" y1="234.20" y2="251.09" />
<line x1="488.36" x2="488.36" y1="253.68" y2="251.09" />
<line x1="490.87" x2="490.87" y1="190.94" y2="251.09" />
<line x1="493.38" x2="493.38" y1="192.95" y2="251.09" />
<line x1="495.90" x2="495.90" y1="128.07" y2="251.09" />
<line x1="498.41" x2="498.41" y1="139.61" y2="251.09" />
<line x1="500.92" x2="500.92" y1="139.83" y2="251.09" />
<line x1="503.44" x2="503.44" y1="118.45" y2="251.09" />
<line x1="505.95" x2="505.95" y1="141.35" y2="251.09" />
<line x1="513.49" x2="513.49" y1="238.58" y2="251.09" />
<line x1="523.54" x2="523.54" y1="236.58" y2="251.09" />
<line x1="531.08" x2="531.08" y1="230.90" y2="251.09" />
<line x1="541.13" x2="541.13" y1="203.96" y2="251.09" />
<line x1="543.64" x2="543.64" y1="235.92" y2="251.09" />
<line x1="546.16" x2="546.16" y1="232.15" y2="251.09" />
<line x1="548.67" x2="548.67" y1="228.44" y2="251.09" />
<line x1="551.18" x2="551.18" y1="204.45" y2="251.09" />
<line x1="553.70" x2="553.70" y1="208.11" y2="251.09" />
<line x1="556.21" x2="556.21" y1="230.42" y2="251.09" />
<line x1="558.72" x2="558.72" y1="236.61" y2="251.09" />
<line x1="561.23" x2="561.23" y1="239.88" y2="251.09" />
<line x1="563.75" x2="563.75" y1="242.33" y2="251.09" />
<line x1="566.26" x2="566.26" y1="221.69" y2="251.09" />
<line x1="568.77" x2="568.77" y1="235.31" y2="251.09" />
<line x1="571.29" x2="571.29" y1="205.43" y2="251.09" />
<line x1="573.80" x2="573.80" y1="178.92" y2="251.09" />
<line x1="576.31" x2="576.31" y1="194.97" y2="251.09" />
<line x1="586.36" x2="586.36" y1="178.20" y2="251.09" />
<line x1="596.42" x2="596.42" y1="198.75" y2="251.09" />
<line x1="611.49" x2="611.49" y1="187.27" y2="251.09" />
<line x1="616.52" x2="616.52" y1="174.56" y2="251.09" />
<line x1="619.03" x2="619.03" y1="196.06" y2="251.09" />
<line x1="621.55" x2="621.55" y1="172.77" y2="251.09" />
<line x1="624.06" x2="624.06" y1="177.29" y2="251.09" />
<line x1="626.57" x2="626.57" y1="205.24" y2="251.09" />
<line x1="629.08" x2="629.08" y1="200.28" y2="251.09" />
<line x1="631.60" x2="631.60" y1="203.30" y2="251.09" />
<line x1="634.11" x2="634.11" y1="231.94" y2="251.09" />
<line x1="636.62" x2="636.62" y1="194.02" y2="251.09" />
<line x1="639.14" x2="639.14" y1="224.61" y2="251.09" />
<line x1="641.65" x2="641.65" y1="173.11" y2="251.09" />
<line x1="644.16" x2="644.16" y1="164.23" y2="251.09" />
<line x1="664.27" x2="664.27" y1="174.88" y2="251.09" />
<line x1="669.29" x2="669.29" y1="189.08" y2="251.09" />
<line x1="671.81" x2="671.81" y1="188.29" y2="251.09" />
<line x1="674.32" x2="674.32" y1="204.37" y2="251.09" />
<line x1="681.86" x2="681.86" y1="223.34" y2="251.09" />
<line x1="701.96" x2="701.96" y1="251.09" y2="251.09" />
<line x1="704.47" x2="704.47" y1="178.99" y2="251.09" />
<line x1="712.01" x2="712.01" y1="181.92" y2="251.09" />
<line x1="714.53" x2="714.53" y1="163.52" y2="251.09" />
<line x1="717.04" x2="717.04" y1="154.64" y2="251.09" />
<line x1="724.58" x2="724.58" y1="158.81" y2="251.09" />
<line x1="727.09" x2="727.09" y1="177.22" y2="251.09" />
<line x1="729.60" x2="729.60" y1="193.32" y2="251.09" />
<line x1="732.12" x2="732.12" y1="216.40" y2="251.09" />
<line x1="734.63" x2="734.63" y1="179.99" y2="251.09" />
<line x1="739.66" x2="739.66" y1="204.92" y2="251.09" />
<line x1="744.68" x2="744.68" y1="115.21" y2="251.09" />
<line x1="747.19" x2="747.19" y1="187.96" y2="251.09" />
<line x1="749.71" x2="749.71" y1="74.16" y2="251.09" />
<line x1="752.22" x2="752.22" y1="113.13" y2="251.09" />
<line x1="754.73" x2="754.73" y1="120.54" y2="251.09" />
<line x1="757.25" x2="757.25" y1="251.09" y2="251.09" />
<line x1="759.76" x2="759.76" y1="166.64" y2="251.09" />
<line x1="762.27" x2="762.27" y1="123.69" y2="251.09" />
<line x1="764.79" x2="764.79" y1="121.31" y2="251.09" />
<line x1="767.30" x2="767.30" y1="150.52" y2="251.09" />
<line x1="777.35" x2="777.35" y1="176.19" y2="251.09" />
<line x1="784.89" x2="784.89" y1="213.20" y2="251.09" />
<line x1="789.92" x2="789.92" y1="160.44" y2="251.09" />
<line x1="797.45" x2="797.45" y1="136.78" y2="251.09" />
<line x1="802.48" x2="802.48" y1="124.41" y2="251.09" />
<line x1="804.99" x2="804.99" y1="169.60" y2="251.09" />
<line x1="807.51" x2="807.51" y1="159.69" y2="251.09" />
<line x1="810.02" x2="810.02" y1="186.17" y2="251.09" />
<line x1="812.53" x2="812.53" y1="251.09" y2="251.09" />
<line x1="822.58" x2="822.58" y1="176.40" y2="251.09" />
<line x1="827.61" x2="827.61" y1="186.69" y2="251.09" />
<line x1="830.12" x2="830.12" y1="173.12" y2="251.09" />
<line x1="832.64" x2="832.64" y1="182.48" y2="251.09" />
<line x1="835.15" x2="835.15" y1="201.33" y2="251.09" />
<line x1="845.20" x2="845.20" y1="171.10" y2="251.09" />
<line x1="850.23" x2="850.23" y1="251.09" y2="251.09" />
<line x1="857.77" x2="857.77" y1="108.45" y2="251.09" />
<line x1="860.28" x2="860.28" y1="159.58" y2="251.09" />
<line x1="862.79" x2="862.79" y1="142.83" y2="251.09" />
<line x1="865.30" x2="865.30" y1="99.79" y2="251.09" />
<line x1="867.82" x2="867.82" y1="155.18" y2="251.09" />
<line x1="870.33" x2="870.33" y1="172.09" y2="251.09" />
<line x1="875.36" x2="875.36" y1="196.33" y2="251.09" />
<line x1="880.38" x2="880.38" y1="146.90" y2="251.09" />
<line x1="882.90" x2="882.90" y1="189.99" y2="251.09" />
<line x1="887.92" x2="887.92" y1="225.58" y2="251.09" />
<line x1="892.95" x2="892.95" y1="146.42" y2="251.09" />
<line x1="903.00" x2="903.00" y1="134.75" y2="251.09" />
<line x1="905.51" x2="905.51" y1="126.80" y2="251.09" />
<line x1="913.05" x2="913.05" y1="202.16" y2="251.09" />
<line x1="915.56" x2="915.56" y1="228.58" y2="251.09" />
<line x1="918.08" x2="918.08" y1="159.86" y2="251.09" />
<line x1="923.10" x2="923.10" y1="164.23" y2="251.09" />
<line x1="925.62" x2="925.62" y1="234.60" y2="251.09" />
<line x1="928.13" x2="928.13" y1="227.91" y2="251.09" />
<line x1="933.15" x2="933.15" y1="203.62" y2="251.09" />
<line x1="935.67" x2="935.67" y1="215.30" y2="251.09" />
<line x1="940.69" x2="940.69" y1="208.15" y2="251.09" />
<line x1="945.72" x2="945.72" y1="192.23" y2="251.09" />
<line x1="948.23" x2="948.23" y1="194.15" y2="251.09" />
<line x1="950.75" x2="950.75" y1="205.98" y2="251.09" />
<line x1="953.26" x2="953.26" y1="259.56" y2="251.09" />
<line x1="990.95" x2="990.95" y1="164.67" y2="251.09" />
</g>
<g stroke="black">
<g fill="black" font-family="Arial, sans-serif" font-size="10" stroke="none" text-anchor="middle" />
<line x1="80.00" x2="1000.00" y1="251.09" y2="251.09" />
</g>
<g stroke="black">
<g fill="black" font-family="Arial, sans-serif" font-size="10" stroke="none" text-anchor="middle" />
<line x1="80.00" x2="80.00" y1="251.09" y2="0.00" />
</g>
</g>
</g>
<text style="font-size: 30px;" x="100.00" y="23.00">2015</text>
<text x="5.00" y="150.00">d18O</text>
</g>
</svg>