<?xml version="1.0"?>
<svg height="350" version="1.1" width="1000" xmlns:xlink="http://www.w3.org/1999/xlink" xmlns="http://www.w3.org/2000/svg">
<g>
<g>
<g>
<g stroke-dasharray="1 1" stroke="#ccc">
<line x1="80.00" x2="1000.00" y1="7.61" y2="7.61" />
<line x1="80.00" x2="1000.00" y1="22.83" y2="22.83" />
<line x1="80.00" x2="1000.00" y1="38.04" y2="38.04" />
<line x1="80.00" x2="1000.00" y1="53.26" y2="53.26" />
<line x1="80.00" x2="1000.00" y1="68.48" y2="68.48" />
<line x1="80.00" x2="1000.00" y1="83.70" y2="83.70" />
<line x1="80.00" x2="1000.00" y1="98.91" y2="98.91" />
<line x1="80.00" x2="1000.00" y1="114.13" y2="114.13" />
<line x1="80.00" x2="1000.00" y1="129.35" y2="129.35" />
<line x1="80.00" x2="1000.00" y1="144.57" y2="144.57" />
<line x1="80.00" x2="1000.00" y1="159.78" y2="159.78" />
<line x1="80.00" x2="1000.00" y1="175.00" y2="175.00" />
<line x1="80.00" x2="1000.00" y1="190.22" y2="190.22" />
<line x1="80.00" x2="1000.00" y1="205.43" y2="205.43" />
<line x1="80.00" x2="1000.00" y1="220.65" y2="220.65" />
<line x1="80.00" x2="1000.00" y1="235.87" y2="235.87" />
<line x1="80.00" x2="1000.00" y1="251.09" y2="251.09" />
<line x1="80.00" x2="1000.00" y1="266.30" y2="266.30" />
<line x1="80.00" x2="1000.00" y1="281.52" y2="281.52" />
<line x1="80.00" x2="1000.00" y1="296.74" y2="296.74" />
<line x1="80.00" x2="1000.00" y1="311.96" y2="311.96" />
<line x1="80.00" x2="1000.00" y1="327.17" y2="327.17" />
<line x1="80.00" x2="1000.00" y1="342.39" y2="342.39" />
</g>
<g stroke="black">
<g fill="none" font-family="Arial, sans-serif" font-size="10" stroke="none" text-anchor="middle" />
<line x1="80.00" x2="1000.00" y1="251.09" y2="251.09" />
</g>
<g stroke="black">
<line x1="80.00" x2="70.00" y1="7.61" y2="7.61" />
<line x1="80.00" x2="70.00" y1="22.83" y2="22.83" />
<line x1="80.00" x2="70.00" y1="38.04" y2="38.04" />
<line x1="80.00" x2="70.00" y1="53.26" y2="53.26" />
<line x1="80.00" x2="70.00" y1="68.48" y2="68.48" />
<line x1="80.00" x2="70.00" y1="83.70" y2="83.70" />
<line x1="80.00" x2="70.00" y1="98.91" y2="98.91" />
<line x1="80.00" x2="70.00" y1="114.13" y2="114.13" />
<line x1="80.00" x2="70.00" y1="129.35" y2="129.35" />
<line x1="80.00" x2="70.00" y1="144.57" y2="144.57" />
<line x1="80.00" x2="70.00" y1="159.78" y2="159.78" />
<line x1="80.00" x2="70.00" y1="175.00" y2="175.00" />
<line x1="80.00" x2="70.00" y1="190.22" y2="190.22" />
<line x1="80.00" x2="70.00" y1="205.43" y2="205.43" />
<line x1="80.00" x2="70.00" y1="220.65" y2="220.65" />
<line x1="80.00" x2="70.00" y1="235.87" y2="235.87" />
<line x1="80.00" x2="70.00" y1="251.09" y2="251.09" />
<line x1="80.00" x2="70.00" y1="266.30" y2="266.30" />
<line x1="80.00" x2="70.00" y1="281.52" y2="281.52" />
<line x1="80.00" x2="70.00" y1="296.74" y2="296.74" />
<line x1="80.00" x2="70.00" y1="311.96" y2="311.96" />
<line x1="80.00" x2="70.00" y1="327.17" y2="327.17" />
<line x1="80.00" x2="70.00" y1="342.39" y2="342.39" />
<g fill="black" font-family="Arial, sans-serif" font-size="10" stroke="none" text-anchor="middle">
<text x="60.00" y="7.61">-16.00</text>
<text x="60.00" y="22.83">-15.00</text>
<text x="60.00" y="38.04">-14.00</text>
<text x="60.00" y="53.26">-13.00</text>
<text x="60.00" y="68.48">-12.00</text>
<text x="60.00" y="83.70">-11.00</text>
<text x="60.00" y="98.91">-10.00</text>
<text x="60.00" y="114.13">-9.00</text>
<text x="60.00" y="129.35">-8.00</text>
<text x="60.00" y="144.57">-7.00</text>
<text x="60.00" y="159.78">-6.00</text>
<text x="60.00" y="175.00">-5.00</text>
<text x="60.00" y="190.22">-4.00</text>
<text x="60.00" y="205.43">-3.00</text>
<text x="60.00" y="220.65">-2.00</text>
<text x="60.00" y="235.87">-1.00</text>
<text x="60.00" y="251.09">0.00</text>
<text x="60.00" y="266.30">1.00</text>
<text x="60.00" y="281.52">2.00</text>
<text x="60.00" y="296.74">3.00</text>
<text x="60.00" y="311.96">4.00</text>
<text x="60.00" y="327.17">5.00</text>
<text x="60.00" y="342.39">6.00</text>
</g>
<line x1="80.00" x2="80.00" y1="0.00" y2="350.00" />
</g>
</g>
<g>
<g stroke-dasharray="1 1" stroke="#ccc">
</g>
<g stroke-width="1.887308533916849" stroke="#ffb2b0">
<line x1="83.77" x2="83.77" y1="30.28" y2="251.09" />
<line x1="86.28" x2="86.28" y1="-15.22" y2="251.09" />
<line x1="88.80" x2="88.80" y1="175.76" y2="251.09" />
<line x1="108.90" x2="108.90" y1="177.74" y2="251.09" />
<line x1="111.41" x2="111.41" y1="206.04" y2="251.09" />
<line x1="113.93" x2="113.93" y1="187.78" y2="251.09" />
<line x1="118.95" x2="118.95" y1="92.37" y2="251.09" />
<line x1="123.98" x2="123.98" y1="150.04" y2="251.09" />
<line x1="126.49" x2="126.49" y1="108.50" y2="251.09" />
<line x1="129.00" x2="129.00" y1="97.85" y2="251.09" />
<line x1="131.52" x2="131.52" y1="126.46" y2="251.09" />
<line x1="134.03" x2="134.03" y1="140.30" y2="251.09" />
<line x1="136.54" x2="136.54" y1="175.00" y2="251.09" />
<line x1="144.08" x2="144.08" y1="182.61" y2="251.09" />
<line x1="154.13" x2="154.13" y1="189.61" y2="251.09" />
<line x1="156.65" x2="156.65" y1="74.26" y2="251.09" />
<line x1="159.16" x2="159.16" y1="112.61" y2="251.09" />
<line x1="164.18" x2="164.18" y1="217.46" y2="251.09" />
<line x1="201.88" x2="201.88" y1="211.67" y2="251.09" />
<line x1="204.39" x2="204.39" y1="161.91" y2="251.09" />
<line x1="206.91" x2="206.91" y1="176.22" y2="251.09" />
<line x1="209.42" x2="209.42" y1="172.41" y2="251.09" />
<line x1="229.52" x2="229.52" y1="191.59" y2="251.09" />
<line x1="237.06" x2="237.06" y1="156.89" y2="251.09" />
<line x1="239.57" x2="239.57" y1="232.98" y2="251.09" />
<line x1="242.09" x2="242.09" y1="151.57" y2="251.09" />
<line x1="244.60" x2="244.60" y1="136.50" y2="251.09" />
<line x1="247.11" x2="247.11" y1="169.22" y2="251.09" />
<line x1="249.63" x2="249.63" y1="180.78" y2="251.09" />
<line x1="252.14" x2="252.14" y1="159.02" y2="251.09" />
<line x1="257.16" x2="257.16" y1="144.11" y2="251.09" />
<line x1="262.19" x2="262.19" y1="244.39" y2="251.09" />
<line x1="264.70" x2="264.70" y1="232.22" y2="251.09" />
<line x1="267.22" x2="267.22" y1="240.89" y2="251.09" />
<line x1="274.76" x2="274.76" y1="189.91" y2="251.09" />
<line x1="277.27" x2="277.27" y1="218.07" y2="251.09" />
<line x1="294.86" x2="294.86" y1="235.26" y2="251.09" />
<line x1="297.37" x2="297.37" y1="211.98" y2="251.09" />
<line x1="302.40" x2="302.40" y1="222.33" y2="251.09" />
<line x1="304.91" x2="304.91" y1="217.46" y2="251.09" />
<line x1="307.42" x2="307.42" y1="259.61" y2="251.09" />
<line x1="317.48" x2="317.48" y1="186.87" y2="251.09" />
<line x1="319.99" x2="319.99" y1="140.15" y2="251.09" />
<line x1="322.50" x2="322.50" y1="136.50" y2="251.09" />
<line x1="325.02" x2="325.02" y1="191.59" y2="251.09" />
<line x1="335.07" x2="335.07" y1="212.74" y2="251.09" />
<line x1="337.58" x2="337.58" y1="186.57" y2="251.09" />
<line x1="340.09" x2="340.09" y1="201.33" y2="251.09" />
<line x1="345.12" x2="345.12" y1="170.43" y2="251.09" />
<line x1="347.63" x2="347.63" y1="161.30" y2="251.09" />
<line x1="352.66" x2="352.66" y1="186.11" y2="251.09" />
<line x1="355.17" x2="355.17" y1="119.00" y2="251.09" />
<line x1="360.20" x2="360.20" y1="168.76" y2="251.09" />
<line x1="362.71" x2="362.71" y1="131.33" y2="251.09" />
<line x1="365.22" x2="365.22" y1="170.13" y2="251.09" />
<line x1="370.25" x2="370.25" y1="197.07" y2="251.09" />
<line x1="372.76" x2="372.76" y1="211.52" y2="251.09" />
<line x1="375.27" x2="375.27" y1="229.78" y2="251.09" />
<line x1="377.79" x2="377.79" y1="216.70" y2="251.09" />
<line x1="382.81" x2="382.81" y1="192.04" y2="251.09" />
<line x1="392.87" x2="392.87" y1="193.11" y2="251.09" />
<line x1="395.38" x2="395.38" y1="178.20" y2="251.09" />
<line x1="397.89" x2="397.89" y1="255.80" y2="251.09" />
<line x1="400.40" x2="400.40" y1="223.09" y2="251.09" />
<line x1="402.92" x2="402.92" y1="239.07" y2="251.09" />
<line x1="405.43" x2="405.43" y1="235.41" y2="251.09" />
<line x1="423.02" x2="423.02" y1="218.37" y2="251.09" />
<line x1="425.53" x2="425.53" y1="230.39" y2="251.09" />
<line x1="428.05" x2="428.05" y1="242.57" y2="251.09" />
<line x1="430.56" x2="430.56" y1="228.41" y2="251.09" />
<line x1="440.61" x2="440.61" y1="225.37" y2="251.09" />
<line x1="443.12" x2="443.12" y1="187.17" y2="251.09" />
<line x1="445.64" x2="445.64" y1="200.11" y2="251.09" />
<line x1="448.15" x2="448.15" y1="177.28" y2="251.09" />
<line x1="450.66" x2="450.66" y1="161.91" y2="251.09" />
<line x1="453.18" x2="453.18" y1="182.15" y2="251.09" />
<line x1="455.69" x2="455.69" y1="191.43" y2="251.09" />
<line x1="458.20" x2="458.20" y1="226.74" y2="251.09" />
<line x1="460.72" x2="460.72" y1="210.00" y2="251.09" />
<line x1="463.23" x2="463.23" y1="201.93" y2="251.09" />
<line x1="465.74" x2="465.74" y1="212.74" y2="251.09" />
<line x1="468.25" x2="468.25" y1="192.50" y2="251.09" />
<line x1="470.77" x2="470.77" y1="203.76" y2="251.09" />
<line x1="473.28" x2="473.28" y1="220.50" y2="251.09" />
<line x1="475.79" x2="475.79" y1="205.74" y2="251.09" />
<line x1="478.31" x2="478.31" y1="200.26" y2="251.09" />
<line x1="480.82" x2="480.82" y1="190.52" y2="251.09" />
<line x1="483.33" x2="483.33" y1="219.59" y2="251.09" />
<line x1="488.36" x2="488.36" y1="202.85" y2="251.09" />
<line x1="490.87" x2="490.87" y1="160.09" y2="251.09" />
<line x1="503.44" x2="503.44" y1="265.70" y2="251.09" />
<line x1="536.10" x2="536.10" y1="205.89" y2="251.09" />
<line x1="538.62" x2="538.62" y1="220.65" y2="251.09" />
<line x1="541.13" x2="541.13" y1="207.87" y2="251.09" />
<line x1="543.64" x2="543.64" y1="196.61" y2="251.09" />
<line x1="546.16" x2="546.16" y1="200.57" y2="251.09" />
<line x1="548.67" x2="548.67" y1="181.70" y2="251.09" />
<line x1="553.70" x2="553.70" y1="190.67" y2="251.09" />
<line x1="556.21" x2="556.21" y1="152.02" y2="251.09" />
<line x1="558.72" x2="558.72" y1="173.02" y2="251.09" />
<line x1="561.23" x2="561.23" y1="186.72" y2="251.09" />
<line x1="566.26" x2="566.26" y1="182.76" y2="251.09" />
<line x1="581.34" x2="581.34" y1="203.46" y2="251.09" />
<line x1="586.36" x2="586.36" y1="238.61" y2="251.09" />
<line x1="588.88" x2="588.88" y1="257.02" y2="251.09" />
<line x1="596.42" x2="596.42" y1="206.96" y2="251.09" />
<line x1="598.93" x2="598.93" y1="169.67" y2="251.09" />
<line x1="619.03" x2="619.03" y1="244.09" y2="251.09" />
<line x1="621.55" x2="621.55" y1="270.41" y2="251.09" />
<line x1="626.57" x2="626.57" y1="252.91" y2="251.09" />
<line x1="656.73" x2="656.73" y1="213.96" y2="251.09" />
<line x1="659.24" x2="659.24" y1="200.11" y2="251.09" />
<line x1="661.75" x2="661.75" y1="155.67" y2="251.09" />
<line x1="666.78" x2="666.78" y1="176.67" y2="251.09" />
<line x1="669.29" x2="669.29" y1="138.78" y2="251.09" />
<line x1="674.32" x2="674.32" y1="146.54" y2="251.09" />
<line x1="676.83" x2="676.83" y1="131.63" y2="251.09" />
<line x1="679.34" x2="679.34" y1="181.54" y2="251.09" />
<line x1="681.86" x2="681.86" y1="193.87" y2="251.09" />
<line x1="684.37" x2="684.37" y1="167.54" y2="251.09" />
<line x1="686.88" x2="686.88" y1="133.00" y2="251.09" />
<line x1="689.40" x2="689.40" y1="156.89" y2="251.09" />
<line x1="704.47" x2="704.47" y1="235.41" y2="251.09" />
<line x1="706.99" x2="706.99" y1="141.67" y2="251.09" />
<line x1="709.50" x2="709.50" y1="171.35" y2="251.09" />
<line x1="712.01" x2="712.01" y1="170.59" y2="251.09" />
<line x1="724.58" x2="724.58" y1="135.43" y2="251.09" />
<line x1="727.09" x2="727.09" y1="91.91" y2="251.09" />
<line x1="729.60" x2="729.60" y1="168.15" y2="251.09" />
<line x1="732.12" x2="732.12" y1="202.39" y2="251.09" />
<line x1="734.63" x2="734.63" y1="233.43" y2="251.09" />
<line x1="739.66" x2="739.66" y1="151.72" y2="251.09" />
<line x1="742.17" x2="742.17" y1="169.83" y2="251.09" />
<line x1="747.19" x2="747.19" y1="185.35" y2="251.09" />
<line x1="752.22" x2="752.22" y1="218.98" y2="251.09" />
<line x1="754.73" x2="754.73" y1="202.24" y2="251.09" />
<line x1="757.25" x2="757.25" y1="158.26" y2="251.09" />
<line x1="759.76" x2="759.76" y1="112.76" y2="251.09" />
<line x1="762.27" x2="762.27" y1="127.22" y2="251.09" />
<line x1="764.79" x2="764.79" y1="165.26" y2="251.09" />
<line x1="777.35" x2="777.35" y1="249.57" y2="251.09" />
<line x1="789.92" x2="789.92" y1="195.54" y2="251.09" />
<line x1="792.43" x2="792.43" y1="242.57" y2="251.09" />
<line x1="794.94" x2="794.94" y1="229.33" y2="251.09" />
<line x1="797.45" x2="797.45" y1="168.76" y2="251.09" />
<line x1="799.97" x2="799.97" y1="150.96" y2="251.09" />
<line x1="802.48" x2="802.48" y1="184.59" y2="251.09" />
<line x1="804.99" x2="804.99" y1="192.65" y2="251.09" />
<line x1="812.53" x2="812.53" y1="114.13" y2="251.09" />
<line x1="822.58" x2="822.58" y1="146.24" y2="251.09" />
<line x1="825.10" x2="825.10" y1="191.74" y2="251.09" />
<line x1="827.61" x2="827.61" y1="76.24" y2="251.09" />
<line x1="835.15" x2="835.15" y1="215.78" y2="251.09" />
<line x1="847.71" x2="847.71" y1="199.80" y2="251.09" />
<line x1="850.23" x2="850.23" y1="190.83" y2="251.09" />
<line x1="852.74" x2="852.74" y1="200.26" y2="251.09" />
<line x1="855.25" x2="855.25" y1="197.83" y2="251.09" />
<line x1="857.77" x2="857.77" y1="193.26" y2="251.09" />
<line x1="872.84" x2="872.84" y1="236.02" y2="251.09" />
<line x1="875.36" x2="875.36" y1="188.39" y2="251.09" />
<line x1="877.87" x2="877.87" y1="209.39" y2="251.09" />
<line x1="890.43" x2="890.43" y1="231.61" y2="251.09" />
<line x1="892.95" x2="892.95" y1="201.48" y2="251.09" />
<line x1="895.46" x2="895.46" y1="155.07" y2="251.09" />
<line x1="897.97" x2="897.97" y1="134.67" y2="251.09" />
<line x1="905.51" x2="905.51" y1="167.54" y2="251.09" />
<line x1="908.03" x2="908.03" y1="156.28" y2="251.09" />
<line x1="910.54" x2="910.54" y1="105.61" y2="251.09" />
<line x1="913.05" x2="913.05" y1="112.15" y2="251.09" />
<line x1="915.56" x2="915.56" y1="102.41" y2="251.09" />
<line x1="920.59" x2="920.59" y1="158.11" y2="251.09" />
<line x1="923.10" x2="923.10" y1="161.76" y2="251.09" />
<line x1="928.13" x2="928.13" y1="208.48" y2="251.09" />
<line x1="948.23" x2="948.23" y1="183.37" y2="251.09" />
<line x1="950.75" x2="950.75" y1="183.98" y2="251.09" />
<line x1="953.26" x2="953.26" y1="239.07" y2="251.09" />
<line x1="958.28" x2="958.28" y1="134.52" y2="251.09" />
<line x1="960.80" x2="960.80" y1="173.33" y2="251.09" />
<line x1="963.31" x2="963.31" y1="271.48" y2="251.09" />
<line x1="970.85" x2="970.85" y1="259.00" y2="251.09" />
<line x1="975.88" x2="975.88" y1="213.50" y2="251.09" />
<line x1="978.39" x2="978.39" y1="188.85" y2="251.09" />
<line x1="980.90" x2="980.90" y1="213.96" y2="251.09" />
<line x1="983.41" x2="983.41" y1="206.96" y2="251.09" />
<line x1="995.98" x2="995.98" y1="210.76" y2="251.09" />
<line x1="998.49" x2="998.49" y1="175.61" y2="251.09" />
</g>
<g stroke="black">
<g fill="black" font-family="Arial, sans-serif" font-size="10" stroke="none" text-anchor="middle" />
<line x1="80.00" x2="1000.00" y1="251.09" y2="251.09" />
</g>
<g stroke="black">
<g fill="black" font-family="Arial, sans-serif" font-size="10" stroke="none" text-anchor="middle" />
<line x1="80.00" x2="80.00" y1="251.09" y2="0.00" />
</g>
</g>
</g>
<text style="font-size: 30px;" x="100.00" y="23.00">2012</text>
<text x="5.00" y="150.00">d18O</text>
</g>
</svg>