<?xml version="1.0"?>
<svg height="350" version="1.1" width="1000" xmlns:xlink="http://www.w3.org/1999/xlink" xmlns="http://www.w3.org/2000/svg">
<g>
<g>
<g>
<g stroke-dasharray="1 1" stroke="#ccc">
<line x1="80.00" x2="1000.00" y1="7.61" y2="7.61" />
<line x1="80.00" x2="1000.00" y1="22.83" y2="22.83" />
<line x1="80.00" x2="1000.00" y1="38.04" y2="38.04" />
<line x1="80.00" x2="1000.00" y1="53.26" y2="53.26" />
<line x1="80.00" x2="1000.00" y1="68.48" y2="68.48" />
<line x1="80.00" x2="1000.00" y1="83.70" y2="83.70" />
<line x1="80.00" x2="1000.00" y1="98.91" y2="98.91" />
<line x1="80.00" x2="1000.00" y1="114.13" y2="114.13" />
<line x1="80.00" x2="1000.00" y1="129.35" y2="129.35" />
<line x1="80.00" x2="1000.00" y1="144.57" y2="144.57" />
<line x1="80.00" x2="1000.00" y1="159.78" y2="159.78" />
<line x1="80.00" x2="1000.00" y1="175.00" y2="175.00" />
<line x1="80.00" x2="1000.00" y1="190.22" y2="190.22" />
<line x1="80.00" x2="1000.00" y1="205.43" y2="205.43" />
<line x1="80.00" x2="1000.00" y1="220.65" y2="220.65" />
<line x1="80.00" x2="1000.00" y1="235.87" y2="235.87" />
<line x1="80.00" x2="1000.00" y1="251.09" y2="251.09" />
<line x1="80.00" x2="1000.00" y1="266.30" y2="266.30" />
<line x1="80.00" x2="1000.00" y1="281.52" y2="281.52" />
<line x1="80.00" x2="1000.00" y1="296.74" y2="296.74" />
<line x1="80.00" x2="1000.00" y1="311.96" y2="311.96" />
<line x1="80.00" x2="1000.00" y1="327.17" y2="327.17" />
<line x1="80.00" x2="1000.00" y1="342.39" y2="342.39" />
</g>
<g stroke="black">
<g fill="none" font-family="Arial, sans-serif" font-size="10" stroke="none" text-anchor="middle" />
<line x1="80.00" x2="1000.00" y1="251.09" y2="251.09" />
</g>
<g stroke="black">
<line x1="80.00" x2="70.00" y1="7.61" y2="7.61" />
<line x1="80.00" x2="70.00" y1="22.83" y2="22.83" />
<line x1="80.00" x2="70.00" y1="38.04" y2="38.04" />
<line x1="80.00" x2="70.00" y1="53.26" y2="53.26" />
<line x1="80.00" x2="70.00" y1="68.48" y2="68.48" />
<line x1="80.00" x2="70.00" y1="83.70" y2="83.70" />
<line x1="80.00" x2="70.00" y1="98.91" y2="98.91" />
<line x1="80.00" x2="70.00" y1="114.13" y2="114.13" />
<line x1="80.00" x2="70.00" y1="129.35" y2="129.35" />
<line x1="80.00" x2="70.00" y1="144.57" y2="144.57" />
<line x1="80.00" x2="70.00" y1="159.78" y2="159.78" />
<line x1="80.00" x2="70.00" y1="175.00" y2="175.00" />
<line x1="80.00" x2="70.00" y1="190.22" y2="190.22" />
<line x1="80.00" x2="70.00" y1="205.43" y2="205.43" />
<line x1="80.00" x2="70.00" y1="220.65" y2="220.65" />
<line x1="80.00" x2="70.00" y1="235.87" y2="235.87" />
<line x1="80.00" x2="70.00" y1="251.09" y2="251.09" />
<line x1="80.00" x2="70.00" y1="266.30" y2="266.30" />
<line x1="80.00" x2="70.00" y1="281.52" y2="281.52" />
<line x1="80.00" x2="70.00" y1="296.74" y2="296.74" />
<line x1="80.00" x2="70.00" y1="311.96" y2="311.96" />
<line x1="80.00" x2="70.00" y1="327.17" y2="327.17" />
<line x1="80.00" x2="70.00" y1="342.39" y2="342.39" />
<g fill="black" font-family="Arial, sans-serif" font-size="10" stroke="none" text-anchor="middle">
<text x="60.00" y="7.61">-16.00</text>
<text x="60.00" y="22.83">-15.00</text>
<text x="60.00" y="38.04">-14.00</text>
<text x="60.00" y="53.26">-13.00</text>
<text x="60.00" y="68.48">-12.00</text>
<text x="60.00" y="83.70">-11.00</text>
<text x="60.00" y="98.91">-10.00</text>
<text x="60.00" y="114.13">-9.00</text>
<text x="60.00" y="129.35">-8.00</text>
<text x="60.00" y="144.57">-7.00</text>
<text x="60.00" y="159.78">-6.00</text>
<text x="60.00" y="175.00">-5.00</text>
<text x="60.00" y="190.22">-4.00</text>
<text x="60.00" y="205.43">-3.00</text>
<text x="60.00" y="220.65">-2.00</text>
<text x="60.00" y="235.87">-1.00</text>
<text x="60.00" y="251.09">0.00</text>
<text x="60.00" y="266.30">1.00</text>
<text x="60.00" y="281.52">2.00</text>
<text x="60.00" y="296.74">3.00</text>
<text x="60.00" y="311.96">4.00</text>
<text x="60.00" y="327.17">5.00</text>
<text x="60.00" y="342.39">6.00</text>
</g>
<line x1="80.00" x2="80.00" y1="0.00" y2="350.00" />
</g>
</g>
<g>
<g stroke-dasharray="1 1" stroke="#ccc">
</g>
<g stroke-width="1.887308533916849" stroke="#ffb2b0">
<line x1="116.44" x2="116.44" y1="251.09" y2="251.09" />
<line x1="118.95" x2="118.95" y1="251.09" y2="251.09" />
<line x1="126.49" x2="126.49" y1="251.09" y2="251.09" />
<line x1="129.00" x2="129.00" y1="251.09" y2="251.09" />
<line x1="151.62" x2="151.62" y1="251.09" y2="251.09" />
<line x1="174.24" x2="174.24" y1="251.09" y2="251.09" />
<line x1="272.24" x2="272.24" y1="235.64" y2="251.09" />
<line x1="319.99" x2="319.99" y1="233.46" y2="251.09" />
<line x1="322.50" x2="322.50" y1="256.05" y2="251.09" />
<line x1="367.74" x2="367.74" y1="264.12" y2="251.09" />
<line x1="370.25" x2="370.25" y1="236.57" y2="251.09" />
<line x1="385.33" x2="385.33" y1="265.19" y2="251.09" />
<line x1="387.84" x2="387.84" y1="258.24" y2="251.09" />
<line x1="390.35" x2="390.35" y1="238.50" y2="251.09" />
<line x1="392.87" x2="392.87" y1="313.39" y2="251.09" />
<line x1="397.89" x2="397.89" y1="216.76" y2="251.09" />
<line x1="402.92" x2="402.92" y1="265.17" y2="251.09" />
<line x1="405.43" x2="405.43" y1="213.69" y2="251.09" />
<line x1="410.46" x2="410.46" y1="199.33" y2="251.09" />
<line x1="420.51" x2="420.51" y1="208.49" y2="251.09" />
<line x1="428.05" x2="428.05" y1="208.03" y2="251.09" />
<line x1="440.61" x2="440.61" y1="150.76" y2="251.09" />
<line x1="443.12" x2="443.12" y1="146.08" y2="251.09" />
<line x1="445.64" x2="445.64" y1="268.62" y2="251.09" />
<line x1="448.15" x2="448.15" y1="250.58" y2="251.09" />
<line x1="450.66" x2="450.66" y1="279.26" y2="251.09" />
<line x1="453.18" x2="453.18" y1="189.32" y2="251.09" />
<line x1="455.69" x2="455.69" y1="168.51" y2="251.09" />
<line x1="458.20" x2="458.20" y1="61.73" y2="251.09" />
<line x1="460.72" x2="460.72" y1="57.42" y2="251.09" />
<line x1="463.23" x2="463.23" y1="192.51" y2="251.09" />
<line x1="465.74" x2="465.74" y1="251.09" y2="251.09" />
<line x1="468.25" x2="468.25" y1="206.82" y2="251.09" />
<line x1="470.77" x2="470.77" y1="222.65" y2="251.09" />
<line x1="473.28" x2="473.28" y1="256.76" y2="251.09" />
<line x1="480.82" x2="480.82" y1="248.20" y2="251.09" />
<line x1="485.85" x2="485.85" y1="251.09" y2="251.09" />
<line x1="495.90" x2="495.90" y1="237.92" y2="251.09" />
<line x1="513.49" x2="513.49" y1="223.11" y2="251.09" />
<line x1="516.00" x2="516.00" y1="217.72" y2="251.09" />
<line x1="518.51" x2="518.51" y1="210.85" y2="251.09" />
<line x1="521.03" x2="521.03" y1="200.44" y2="251.09" />
<line x1="531.08" x2="531.08" y1="251.09" y2="251.09" />
<line x1="533.59" x2="533.59" y1="203.10" y2="251.09" />
<line x1="536.10" x2="536.10" y1="184.22" y2="251.09" />
<line x1="538.62" x2="538.62" y1="168.51" y2="251.09" />
<line x1="551.18" x2="551.18" y1="221.52" y2="251.09" />
<line x1="553.70" x2="553.70" y1="179.84" y2="251.09" />
<line x1="556.21" x2="556.21" y1="145.48" y2="251.09" />
<line x1="558.72" x2="558.72" y1="168.99" y2="251.09" />
<line x1="563.75" x2="563.75" y1="224.73" y2="251.09" />
<line x1="566.26" x2="566.26" y1="186.76" y2="251.09" />
<line x1="568.77" x2="568.77" y1="274.71" y2="251.09" />
<line x1="571.29" x2="571.29" y1="194.06" y2="251.09" />
<line x1="573.80" x2="573.80" y1="152.99" y2="251.09" />
<line x1="588.88" x2="588.88" y1="174.53" y2="251.09" />
<line x1="593.90" x2="593.90" y1="217.96" y2="251.09" />
<line x1="598.93" x2="598.93" y1="232.32" y2="251.09" />
<line x1="603.96" x2="603.96" y1="156.50" y2="251.09" />
<line x1="608.98" x2="608.98" y1="155.17" y2="251.09" />
<line x1="619.03" x2="619.03" y1="139.84" y2="251.09" />
<line x1="621.55" x2="621.55" y1="99.87" y2="251.09" />
<line x1="624.06" x2="624.06" y1="108.17" y2="251.09" />
<line x1="631.60" x2="631.60" y1="235.25" y2="251.09" />
<line x1="634.11" x2="634.11" y1="187.81" y2="251.09" />
<line x1="636.62" x2="636.62" y1="247.60" y2="251.09" />
<line x1="639.14" x2="639.14" y1="229.29" y2="251.09" />
<line x1="641.65" x2="641.65" y1="213.86" y2="251.09" />
<line x1="644.16" x2="644.16" y1="212.05" y2="251.09" />
<line x1="646.68" x2="646.68" y1="282.00" y2="251.09" />
<line x1="649.19" x2="649.19" y1="239.95" y2="251.09" />
<line x1="651.70" x2="651.70" y1="231.54" y2="251.09" />
<line x1="654.21" x2="654.21" y1="236.75" y2="251.09" />
<line x1="656.73" x2="656.73" y1="252.72" y2="251.09" />
<line x1="661.75" x2="661.75" y1="276.17" y2="251.09" />
<line x1="664.27" x2="664.27" y1="251.09" y2="251.09" />
<line x1="666.78" x2="666.78" y1="239.47" y2="251.09" />
<line x1="671.81" x2="671.81" y1="253.45" y2="251.09" />
<line x1="674.32" x2="674.32" y1="248.33" y2="251.09" />
<line x1="676.83" x2="676.83" y1="229.77" y2="251.09" />
<line x1="679.34" x2="679.34" y1="197.10" y2="251.09" />
<line x1="681.86" x2="681.86" y1="221.88" y2="251.09" />
<line x1="684.37" x2="684.37" y1="332.15" y2="251.09" />
<line x1="686.88" x2="686.88" y1="193.93" y2="251.09" />
<line x1="689.40" x2="689.40" y1="191.62" y2="251.09" />
<line x1="694.42" x2="694.42" y1="139.87" y2="251.09" />
<line x1="701.96" x2="701.96" y1="209.00" y2="251.09" />
<line x1="706.99" x2="706.99" y1="184.23" y2="251.09" />
<line x1="709.50" x2="709.50" y1="232.22" y2="251.09" />
<line x1="712.01" x2="712.01" y1="90.31" y2="251.09" />
<line x1="714.53" x2="714.53" y1="218.65" y2="251.09" />
<line x1="717.04" x2="717.04" y1="251.09" y2="251.09" />
<line x1="719.55" x2="719.55" y1="213.09" y2="251.09" />
<line x1="722.07" x2="722.07" y1="192.89" y2="251.09" />
<line x1="724.58" x2="724.58" y1="190.35" y2="251.09" />
<line x1="727.09" x2="727.09" y1="251.09" y2="251.09" />
<line x1="732.12" x2="732.12" y1="233.58" y2="251.09" />
<line x1="734.63" x2="734.63" y1="200.80" y2="251.09" />
<line x1="742.17" x2="742.17" y1="226.17" y2="251.09" />
<line x1="744.68" x2="744.68" y1="161.23" y2="251.09" />
<line x1="747.19" x2="747.19" y1="233.15" y2="251.09" />
<line x1="749.71" x2="749.71" y1="234.80" y2="251.09" />
<line x1="752.22" x2="752.22" y1="242.53" y2="251.09" />
<line x1="754.73" x2="754.73" y1="252.92" y2="251.09" />
<line x1="757.25" x2="757.25" y1="318.99" y2="251.09" />
<line x1="759.76" x2="759.76" y1="257.64" y2="251.09" />
<line x1="762.27" x2="762.27" y1="240.34" y2="251.09" />
<line x1="764.79" x2="764.79" y1="230.08" y2="251.09" />
<line x1="767.30" x2="767.30" y1="233.06" y2="251.09" />
<line x1="769.81" x2="769.81" y1="259.32" y2="251.09" />
<line x1="772.32" x2="772.32" y1="203.00" y2="251.09" />
<line x1="774.84" x2="774.84" y1="214.89" y2="251.09" />
<line x1="777.35" x2="777.35" y1="193.87" y2="251.09" />
<line x1="779.86" x2="779.86" y1="228.77" y2="251.09" />
<line x1="782.38" x2="782.38" y1="213.18" y2="251.09" />
<line x1="784.89" x2="784.89" y1="219.89" y2="251.09" />
<line x1="787.40" x2="787.40" y1="244.18" y2="251.09" />
<line x1="789.92" x2="789.92" y1="242.89" y2="251.09" />
<line x1="792.43" x2="792.43" y1="209.96" y2="251.09" />
<line x1="794.94" x2="794.94" y1="322.93" y2="251.09" />
<line x1="804.99" x2="804.99" y1="199.54" y2="251.09" />
<line x1="807.51" x2="807.51" y1="214.13" y2="251.09" />
<line x1="810.02" x2="810.02" y1="181.78" y2="251.09" />
<line x1="812.53" x2="812.53" y1="195.41" y2="251.09" />
<line x1="815.05" x2="815.05" y1="185.02" y2="251.09" />
<line x1="817.56" x2="817.56" y1="156.04" y2="251.09" />
<line x1="822.58" x2="822.58" y1="214.87" y2="251.09" />
<line x1="825.10" x2="825.10" y1="211.68" y2="251.09" />
<line x1="827.61" x2="827.61" y1="236.92" y2="251.09" />
<line x1="830.12" x2="830.12" y1="246.96" y2="251.09" />
<line x1="835.15" x2="835.15" y1="215.97" y2="251.09" />
<line x1="837.66" x2="837.66" y1="236.94" y2="251.09" />
<line x1="842.69" x2="842.69" y1="200.49" y2="251.09" />
<line x1="845.20" x2="845.20" y1="203.66" y2="251.09" />
<line x1="847.71" x2="847.71" y1="222.90" y2="251.09" />
<line x1="850.23" x2="850.23" y1="224.75" y2="251.09" />
<line x1="855.25" x2="855.25" y1="197.16" y2="251.09" />
<line x1="860.28" x2="860.28" y1="173.86" y2="251.09" />
<line x1="862.79" x2="862.79" y1="218.94" y2="251.09" />
<line x1="865.30" x2="865.30" y1="123.60" y2="251.09" />
<line x1="867.82" x2="867.82" y1="283.38" y2="251.09" />
<line x1="870.33" x2="870.33" y1="134.05" y2="251.09" />
<line x1="872.84" x2="872.84" y1="205.70" y2="251.09" />
<line x1="880.38" x2="880.38" y1="262.57" y2="251.09" />
<line x1="895.46" x2="895.46" y1="196.41" y2="251.09" />
<line x1="897.97" x2="897.97" y1="175.46" y2="251.09" />
<line x1="903.00" x2="903.00" y1="198.29" y2="251.09" />
<line x1="905.51" x2="905.51" y1="159.20" y2="251.09" />
<line x1="910.54" x2="910.54" y1="208.50" y2="251.09" />
<line x1="913.05" x2="913.05" y1="231.61" y2="251.09" />
<line x1="925.62" x2="925.62" y1="251.09" y2="251.09" />
<line x1="928.13" x2="928.13" y1="251.09" y2="251.09" />
<line x1="930.64" x2="930.64" y1="251.09" y2="251.09" />
<line x1="933.15" x2="933.15" y1="251.09" y2="251.09" />
<line x1="948.23" x2="948.23" y1="251.09" y2="251.09" />
<line x1="960.80" x2="960.80" y1="251.09" y2="251.09" />
<line x1="963.31" x2="963.31" y1="171.86" y2="251.09" />
<line x1="973.36" x2="973.36" y1="194.00" y2="251.09" />
<line x1="975.88" x2="975.88" y1="208.48" y2="251.09" />
<line x1="978.39" x2="978.39" y1="223.70" y2="251.09" />
<line x1="980.90" x2="980.90" y1="223.70" y2="251.09" />
<line x1="990.95" x2="990.95" y1="251.09" y2="251.09" />
<line x1="995.98" x2="995.98" y1="217.61" y2="251.09" />
</g>
<g stroke="black">
<g fill="black" font-family="Arial, sans-serif" font-size="10" stroke="none" text-anchor="middle" />
<line x1="80.00" x2="1000.00" y1="251.09" y2="251.09" />
</g>
<g stroke="black">
<g fill="black" font-family="Arial, sans-serif" font-size="10" stroke="none" text-anchor="middle" />
<line x1="80.00" x2="80.00" y1="251.09" y2="0.00" />
</g>
</g>
</g>
<text style="font-size: 30px;" x="100.00" y="23.00">2016</text>
<text x="5.00" y="150.00">d18O</text>
</g>
</svg>