<?xml version="1.0"?>
<svg version="1.1" viewBox="0 0 4.0 7.0710678118654755" xmlns:xlink="http://www.w3.org/1999/xlink" xmlns="http://www.w3.org/2000/svg">
<g>
<g>
<g fill="none" stroke="none" />
<g stroke-width="0.007071067811865475" stroke="black">
<line x1="0.00" x2="0.00" y1="7.07" y2="6.93" />
<line x1="1.00" x2="1.00" y1="7.07" y2="6.93" />
<line x1="2.00" x2="2.00" y1="7.07" y2="6.93" />
<line x1="3.00" x2="3.00" y1="7.07" y2="6.93" />
<line x1="4.00" x2="4.00" y1="7.07" y2="6.93" />
<g fill="black" font-family="Arial, sans-serif" font-size="3pt" stroke="none" text-anchor="start" transform="translate(0.017677669529663688 -0.035355339059327376)">
<text transform="scale(0.07071067811865475)" x="0.00" y="100.00">97.0°</text>
<text transform="scale(0.07071067811865475)" x="14.14" y="100.00">98.0°</text>
<text transform="scale(0.07071067811865475)" x="28.28" y="100.00">99.0°</text>
<text transform="scale(0.07071067811865475)" x="42.43" y="100.00">100.0°</text>
<text x="0.00" y="0.00">
</text>
</g>
<line x1="0.00" x2="4.00" y1="7.07" y2="7.07" />
</g>
<g stroke-width="0.007071067811865475" stroke="black">
<line x1="0.00" x2="0.14" y1="7.07" y2="7.07" />
<line x1="0.00" x2="0.14" y1="6.07" y2="6.07" />
<line x1="0.00" x2="0.14" y1="5.07" y2="5.07" />
<line x1="0.00" x2="0.14" y1="4.07" y2="4.07" />
<line x1="0.00" x2="0.14" y1="3.07" y2="3.07" />
<line x1="0.00" x2="0.14" y1="2.07" y2="2.07" />
<line x1="0.00" x2="0.14" y1="1.07" y2="1.07" />
<line x1="0.00" x2="0.14" y1="0.07" y2="0.07" />
<g fill="black" font-family="Arial, sans-serif" font-size="3pt" stroke="none" text-anchor="start" transform="translate(0.025 0.125)">
<g>
</g>
<text transform="scale(0.07071067811865475)" x="-0.10" y="86.86">7.0°</text>
<text transform="scale(0.07071067811865475)" x="-0.10" y="72.72">8.0°</text>
<text transform="scale(0.07071067811865475)" x="-0.10" y="58.57">9.0°</text>
<text transform="scale(0.07071067811865475)" x="-0.10" y="44.43">10.0°</text>
<text transform="scale(0.07071067811865475)" x="-0.10" y="30.29">11.0°</text>
<text transform="scale(0.07071067811865475)" x="-0.10" y="16.15">12.0°</text>
<text transform="scale(0.07071067811865475)" x="-0.10" y="2.01">13.0°</text>
</g>
<line x1="0.00" x2="0.00" y1="7.07" y2="0.00" />
</g>
</g>
<g>
<polyline fill="none" points="4.00,0.46 3.97,0.48 3.86,0.42 3.84,0.32 3.92,0.27 3.86,0.16 3.93,0.06 3.88,0.00 4.00,0.00 4.00,0.46" stroke-width="0.05px" stroke="black" />
<polyline fill="none" points="3.10,0.00 3.11,0.02 2.97,0.34 3.02,0.88 2.64,1.56 2.58,1.88 2.49,1.91 2.52,2.18 2.44,2.20 2.24,2.54 2.29,2.71 2.15,2.73 2.25,2.84 2.15,2.95 2.15,3.33 2.32,3.68 2.22,3.73 2.22,3.82 2.37,3.89 2.68,3.73 2.85,3.78 2.96,4.47 3.09,4.66 3.18,4.70 3.13,4.55 3.22,4.63 3.45,5.59 3.57,5.87 3.44,5.82 3.43,5.91 3.55,5.93 3.58,5.88 3.77,6.09 4.00,6.21 4.00,7.07 3.34,7.07 3.08,6.58 3.12,6.52 3.06,6.55 3.02,6.47 2.95,6.48 2.92,6.34 2.70,6.22 2.67,6.03 2.75,5.93 2.67,5.96 2.68,5.88 2.62,5.87 2.61,5.93 2.53,5.82 2.61,5.70 2.51,5.77 2.51,5.64 2.49,5.78 2.40,5.77 2.29,5.56 2.29,5.43 2.24,5.44 2.27,5.40 2.20,5.40 2.15,5.28 2.04,5.37 2.02,5.25 2.11,5.11 2.03,5.18 1.93,5.01 1.77,5.05 1.71,4.76 1.63,4.79 1.67,4.68 1.52,4.75 1.52,4.68 1.46,4.70 1.44,4.94 1.29,4.87 1.21,4.51 1.26,4.55 1.27,4.21 1.33,4.10 1.39,4.13 1.32,3.87 1.38,3.88 1.46,3.51 1.47,3.59 1.58,3.51 1.47,3.46 1.57,3.35 1.50,3.33 1.58,3.24 1.54,3.27 1.52,3.22 1.59,3.18 1.76,2.75 1.67,2.89 1.64,2.85 1.55,3.10 1.49,2.87 1.55,2.70 1.46,2.38 1.49,2.33 1.55,2.41 1.52,2.33 1.57,2.36 1.64,2.23 1.58,2.20 1.71,2.19 1.72,2.08 1.79,2.08 1.68,2.07 1.72,1.97 1.65,1.94 1.77,1.80 1.70,1.66 1.79,1.65 1.71,1.54 1.74,1.41 1.89,1.37 1.79,1.33 1.81,1.22 1.71,1.35 1.60,1.28 1.68,1.18 1.54,1.19 1.76,1.09 1.69,1.04 1.74,1.00 1.62,0.97 1.71,0.92 1.65,0.84 1.56,0.87 1.52,0.81 1.67,0.76 1.54,0.72 1.63,0.67 1.60,0.58 1.77,0.60 1.68,0.55 1.73,0.51 1.62,0.52 1.71,0.40 1.62,0.31 1.65,0.30 1.59,0.14 1.59,0.00 3.10,0.00" stroke-width="0.05px" stroke="black" />
<polyline fill="none" points="1.30,5.08 1.30,5.07 1.29,4.87 1.45,5.00 1.42,5.27 1.37,5.23 1.32,5.31 1.30,5.08" stroke-width="0.05px" stroke="black" />
<polyline fill="none" points="1.30,0.43 1.30,0.43 1.38,0.41 1.43,0.56 1.44,0.47 1.48,0.50 1.34,0.76 1.30,0.43" stroke-width="0.05px" stroke="black" />
<polyline fill="none" points="1.37,1.30 1.37,1.29 1.54,1.29 1.53,1.56 1.43,1.51 1.37,1.30" stroke-width="0.05px" stroke="black" />
<polyline fill="none" points="2.64,6.65 2.64,6.64 2.79,6.65 2.83,6.59 2.92,6.73 2.73,6.81 2.64,6.65" stroke-width="0.05px" stroke="black" />
<polyline fill="none" points="1.16,1.63 1.16,1.62 1.29,1.27 1.28,1.60 1.16,1.63" stroke-width="0.05px" stroke="black" />
<polyline fill="none" points="1.44,1.07 1.44,1.07 1.44,0.96 1.51,1.08 1.68,1.13 1.48,1.20 1.44,1.07" stroke-width="0.05px" stroke="black" />
<polyline fill="none" points="3.00,3.65 3.00,3.65 2.93,3.66 2.92,3.50 3.07,3.48 3.08,3.61 3.00,3.65" stroke-width="0.05px" stroke="black" />
<polyline fill="none" points="1.08,2.19 1.08,2.18 1.15,2.09 1.22,2.11 1.31,2.29 1.28,2.38 1.23,2.38 1.22,2.18 1.08,2.19" stroke-width="0.05px" stroke="black" />
<polyline fill="none" points="1.17,3.07 1.18,3.07 1.31,3.02 1.14,3.23 1.17,3.07" stroke-width="0.05px" stroke="black" />
<polyline fill="none" points="2.02,5.43 2.02,5.42 2.13,5.41 2.10,5.60 2.02,5.43" stroke-width="0.05px" stroke="black" />
<polyline fill="none" points="2.60,6.48 2.60,6.47 2.65,6.33 2.70,6.54 2.65,6.57 2.60,6.48" stroke-width="0.05px" stroke="black" />
<polyline fill="none" points="3.00,3.37 2.99,3.37 2.96,3.30 3.03,3.27 3.08,3.41 3.00,3.37" stroke-width="0.05px" stroke="black" />
<polyline fill="none" points="1.00,0.71 1.00,0.71 1.12,0.67 1.01,0.81 0.94,0.74 1.03,0.66 1.00,0.71" stroke-width="0.05px" stroke="black" />
<polyline fill="none" points="1.04,0.86 1.04,0.86 1.13,0.78 1.15,0.93 1.04,0.86" stroke-width="0.05px" stroke="black" />
<polyline fill="none" points="1.29,0.07 1.29,0.07 1.27,0.00 1.34,0.00 1.31,0.16 1.29,0.07" stroke-width="0.05px" stroke="black" />
<polyline fill="none" points="1.25,4.04 1.25,4.03 1.29,3.91 1.34,3.99 1.25,4.04" stroke-width="0.05px" stroke="black" />
<polyline fill="none" points="1.61,5.08 1.61,5.08 1.60,5.18 1.53,4.96 1.61,5.08" stroke-width="0.05px" stroke="black" />
<polyline fill="none" points="1.59,1.31 1.59,1.31 1.67,1.34 1.70,1.40 1.59,1.31" stroke-width="0.05px" stroke="black" />
<polyline fill="none" points="1.00,1.24 1.00,1.24 1.09,1.33 1.09,1.45 1.00,1.24" stroke-width="0.05px" stroke="black" />
<polyline fill="none" points="1.55,2.07 1.55,2.08 1.51,2.13 1.47,2.09 1.53,1.97 1.55,2.07" stroke-width="0.05px" stroke="black" />
<polyline fill="none" points="1.49,2.18 1.49,2.18 1.56,2.22 1.52,2.30 1.49,2.18" stroke-width="0.05px" stroke="black" />
<polyline fill="none" points="2.77,6.85 2.77,6.85 2.85,6.78 2.82,6.90 2.77,6.85" stroke-width="0.05px" stroke="black" />
<polyline fill="none" points="1.47,0.66 1.47,0.65 1.50,0.55 1.52,0.66 1.47,0.66" stroke-width="0.05px" stroke="black" />
<polyline fill="none" points="1.17,2.93 1.17,2.93 1.19,2.87 1.25,2.90 1.19,3.04 1.17,2.93" stroke-width="0.05px" stroke="black" />
<polyline fill="none" points="1.22,0.55 1.22,0.55 1.25,0.50 1.29,0.54 1.22,0.55" stroke-width="0.05px" stroke="black" />
<polyline fill="none" points="0.89,2.23 0.89,2.22 0.96,2.14 0.89,2.23" stroke-width="0.05px" stroke="black" />
<polyline fill="none" points="0.89,2.65 0.89,2.65 0.91,2.57 0.95,2.64 0.89,2.65" stroke-width="0.05px" stroke="black" />
<polyline fill="none" points="1.57,4.96 1.57,4.95 1.64,4.89 1.62,4.99 1.57,4.96" stroke-width="0.05px" stroke="black" />
<polyline fill="none" points="2.37,5.85 2.37,5.85 2.39,5.79 2.45,5.82 2.37,5.85" stroke-width="0.05px" stroke="black" />
<polyline fill="none" points="2.27,6.51 2.27,6.51 2.32,6.56 2.27,6.51" stroke-width="0.05px" stroke="black" />
<polyline fill="none" points="1.01,3.25 1.01,3.25 1.07,3.27 1.01,3.25" stroke-width="0.05px" stroke="black" />
<polyline fill="none" points="1.44,0.73 1.44,0.73 1.49,0.69 1.44,0.73" stroke-width="0.05px" stroke="black" />
<polyline fill="none" points="2.17,6.52 2.17,6.52 2.26,6.50 2.17,6.52" stroke-width="0.05px" stroke="black" />
<polyline fill="none" points="1.21,1.82 1.21,1.82 1.30,1.83 1.21,1.82" stroke-width="0.05px" stroke="black" />
<polyline fill="none" points="1.94,5.23 1.94,5.23 1.99,5.29 1.94,5.23" stroke-width="0.05px" stroke="black" />
<polyline fill="none" points="0.64,1.20 0.64,1.20 0.68,1.17 0.68,1.24 0.64,1.20" stroke-width="0.05px" stroke="black" />
<polyline fill="none" points="1.25,1.18 1.25,1.18 1.28,1.22 1.25,1.18" stroke-width="0.05px" stroke="black" />
<polyline fill="none" points="1.00,2.51 0.94,2.51 1.00,2.51 1.00,2.51" stroke-width="0.05px" stroke="black" />
<polyline fill="none" points="1.43,3.25 1.43,3.25 1.46,3.20 1.43,3.25" stroke-width="0.05px" stroke="black" />
<polyline fill="none" points="1.19,2.56 1.19,2.56 1.24,2.54 1.19,2.56" stroke-width="0.05px" stroke="black" />
<polyline fill="none" points="1.26,3.90 1.26,3.90 1.31,3.81 1.26,3.90" stroke-width="0.05px" stroke="black" />
<polyline fill="none" points="0.84,3.62 0.84,3.62 0.91,3.63 0.84,3.62" stroke-width="0.05px" stroke="black" />
<polyline fill="none" points="1.09,0.73 1.09,0.73 1.16,0.74 1.09,0.73" stroke-width="0.05px" stroke="black" />
<polyline fill="none" points="2.82,3.00 2.84,2.95 2.82,3.00 2.82,3.00" stroke-width="0.05px" stroke="black" />
<polyline fill="none" points="0.83,0.49 0.83,0.49 0.88,0.51 0.83,0.49" stroke-width="0.05px" stroke="black" />
<polyline fill="none" points="1.38,3.34 1.38,3.34 1.42,3.30 1.38,3.34" stroke-width="0.05px" stroke="black" />
<polyline fill="none" points="1.64,2.04 1.64,2.04 1.69,2.03 1.64,2.04" stroke-width="0.05px" stroke="black" />
<polyline fill="none" points="0.84,0.29 0.84,0.28 0.88,0.30 0.84,0.29" stroke-width="0.05px" stroke="black" />
<polyline fill="none" points="1.03,2.22 1.03,2.21 1.09,2.22 1.03,2.22" stroke-width="0.05px" stroke="black" />
<polyline fill="none" points="1.23,1.13 1.23,1.12 1.28,1.13 1.23,1.13" stroke-width="0.05px" stroke="black" />
<polyline fill="none" points="2.66,3.56 2.66,3.56 2.71,3.53 2.66,3.56" stroke-width="0.05px" stroke="black" />
<polyline fill="none" points="0.48,1.27 0.48,1.26 0.53,1.28 0.48,1.27" stroke-width="0.05px" stroke="black" />
<polyline fill="none" points="1.28,2.96 1.28,2.95 1.32,2.98 1.28,2.96" stroke-width="0.05px" stroke="black" />
<polyline fill="none" points="1.10,1.66 1.10,1.66 1.15,1.70 1.10,1.66" stroke-width="0.05px" stroke="black" />
<polyline fill="none" points="0.44,1.27 0.44,1.27 0.50,1.30 0.44,1.27" stroke-width="0.05px" stroke="black" />
<polyline fill="none" points="1.47,2.07 1.44,2.11 1.47,2.07 1.47,2.07" stroke-width="0.05px" stroke="black" />
<polyline fill="none" points="2.56,5.95 2.56,5.94 2.62,5.99 2.56,5.95" stroke-width="0.05px" stroke="black" />
<polyline fill="none" points="1.76,5.29 1.76,5.29 1.77,5.36 1.76,5.29" stroke-width="0.05px" stroke="black" />
<polyline fill="none" points="0.84,3.65 0.84,3.65 0.89,3.69 0.84,3.65" stroke-width="0.05px" stroke="black" />
<polyline fill="none" points="1.48,1.65 1.51,1.61 1.48,1.65 1.48,1.65" stroke-width="0.05px" stroke="black" />
<polyline fill="none" points="1.33,0.30 1.33,0.29 1.36,0.37 1.33,0.30" stroke-width="0.05px" stroke="black" />
<polyline fill="none" points="1.53,1.75 1.53,1.75 1.55,1.81 1.53,1.75" stroke-width="0.05px" stroke="black" />
<polyline fill="none" points="1.31,3.91 1.31,3.90 1.34,3.95 1.31,3.91" stroke-width="0.05px" stroke="black" />
<polyline fill="none" points="2.89,6.76 2.89,6.76 2.94,6.75 2.89,6.76" stroke-width="0.05px" stroke="black" />
<polyline fill="none" points="1.05,1.27 1.05,1.27 1.08,1.24 1.05,1.27" stroke-width="0.05px" stroke="black" />
<polyline fill="none" points="1.12,0.66 1.12,0.66 1.16,0.67 1.12,0.66" stroke-width="0.05px" stroke="black" />
<polyline fill="none" points="0.96,2.94 0.96,2.94 0.98,2.89 0.96,2.94" stroke-width="0.05px" stroke="black" />
</g>
<g>
</g>
</g>
</svg>