<?xml version="1.0"?>
<svg version="1.1" viewBox="0 0 5.0 5.0" xmlns:xlink="http://www.w3.org/1999/xlink" xmlns="http://www.w3.org/2000/svg">
<g>
<g>
<g fill="none" stroke="none" />
<g stroke-width="0.005" stroke="black">
<line x1="0.50" x2="0.50" y1="5.00" y2="4.90" />
<line x1="1.50" x2="1.50" y1="5.00" y2="4.90" />
<line x1="2.50" x2="2.50" y1="5.00" y2="4.90" />
<line x1="3.50" x2="3.50" y1="5.00" y2="4.90" />
<line x1="4.50" x2="4.50" y1="5.00" y2="4.90" />
<g fill="black" font-family="Arial, sans-serif" font-size="3pt" stroke="none" text-anchor="start" transform="translate(0.0125 -0.025)">
<text transform="scale(0.05)" x="10.00" y="100.00">97.0°</text>
<text transform="scale(0.05)" x="30.00" y="100.00">98.0°</text>
<text transform="scale(0.05)" x="50.00" y="100.00">99.0°</text>
<text transform="scale(0.05)" x="70.00" y="100.00">100.0°</text>
<text transform="scale(0.05)" x="90.00" y="100.00">101.0°</text>
</g>
<line x1="0.00" x2="5.00" y1="5.00" y2="5.00" />
</g>
<g stroke-width="0.005" stroke="black">
<line x1="0.00" x2="0.10" y1="5.00" y2="5.00" />
<line x1="0.00" x2="0.10" y1="4.00" y2="4.00" />
<line x1="0.00" x2="0.10" y1="3.00" y2="3.00" />
<line x1="0.00" x2="0.10" y1="2.00" y2="2.00" />
<line x1="0.00" x2="0.10" y1="1.00" y2="1.00" />
<line x1="0.00" x2="0.10" y1="0.00" y2="0.00" />
<g fill="black" font-family="Arial, sans-serif" font-size="3pt" stroke="none" text-anchor="start" transform="translate(0.025 0.125)">
<g>
</g>
<text transform="scale(0.05)" x="-0.10" y="81.00">7.0°</text>
<text transform="scale(0.05)" x="-0.10" y="61.00">8.0°</text>
<text transform="scale(0.05)" x="-0.10" y="41.00">9.0°</text>
<text transform="scale(0.05)" x="-0.10" y="21.00">10.0°</text>
<text transform="scale(0.05)" x="-0.10" y="1.00">11.0°</text>
</g>
<line x1="0.00" x2="0.00" y1="5.00" y2="0.00" />
</g>
</g>
<g>
<polyline fill="none" points="3.01,0.00 3.02,0.11 2.94,0.13 2.74,0.47 2.79,0.64 2.65,0.66 2.75,0.77 2.65,0.87 2.65,1.26 2.82,1.61 2.72,1.66 2.72,1.75 2.87,1.82 3.18,1.66 3.35,1.71 3.46,2.40 3.59,2.59 3.68,2.63 3.63,2.48 3.72,2.56 3.95,3.52 4.07,3.80 3.94,3.75 3.93,3.84 4.05,3.86 4.08,3.81 4.27,4.01 4.51,4.15 4.86,4.14 4.80,4.06 5.00,4.13 5.00,5.00 3.84,5.00 3.58,4.51 3.62,4.45 3.56,4.48 3.52,4.40 3.45,4.41 3.42,4.27 3.20,4.15 3.17,3.96 3.25,3.86 3.17,3.89 3.18,3.81 3.12,3.80 3.11,3.86 3.03,3.75 3.11,3.63 3.01,3.70 3.01,3.57 2.99,3.71 2.90,3.70 2.79,3.49 2.79,3.36 2.74,3.37 2.77,3.33 2.70,3.33 2.65,3.21 2.54,3.30 2.52,3.18 2.61,3.04 2.53,3.11 2.43,2.94 2.27,2.98 2.21,2.68 2.13,2.72 2.17,2.61 2.02,2.68 2.02,2.61 1.96,2.63 1.94,2.87 1.79,2.80 1.71,2.44 1.76,2.47 1.77,2.14 1.83,2.03 1.89,2.06 1.82,1.80 1.88,1.81 1.96,1.44 1.97,1.52 2.08,1.44 1.97,1.39 2.07,1.28 2.00,1.26 2.08,1.17 2.04,1.20 2.02,1.15 2.09,1.11 2.26,0.67 2.17,0.82 2.14,0.78 2.05,1.03 1.99,0.80 2.05,0.63 1.96,0.31 1.99,0.26 2.05,0.34 2.02,0.25 2.07,0.29 2.14,0.16 2.08,0.13 2.21,0.12 2.22,0.01 2.29,0.01 2.18,0.00 2.18,0.00 3.01,0.00" stroke-width="0.05px" stroke="black" />
<polyline fill="none" points="1.80,3.01 1.80,3.00 1.79,2.80 1.95,2.93 1.92,3.20 1.87,3.16 1.82,3.24 1.80,3.01" stroke-width="0.05px" stroke="black" />
<polyline fill="none" points="3.14,4.58 3.14,4.57 3.29,4.58 3.33,4.52 3.42,4.66 3.23,4.74 3.14,4.58" stroke-width="0.05px" stroke="black" />
<polyline fill="none" points="3.50,1.58 3.50,1.58 3.43,1.59 3.42,1.43 3.57,1.41 3.58,1.53 3.50,1.58" stroke-width="0.05px" stroke="black" />
<polyline fill="none" points="1.58,0.12 1.58,0.11 1.65,0.02 1.72,0.04 1.81,0.22 1.78,0.31 1.73,0.31 1.72,0.11 1.58,0.12" stroke-width="0.05px" stroke="black" />
<polyline fill="none" points="1.67,1.00 1.68,1.00 1.81,0.95 1.64,1.16 1.67,1.00" stroke-width="0.05px" stroke="black" />
<polyline fill="none" points="2.52,3.36 2.52,3.35 2.63,3.34 2.60,3.53 2.52,3.36" stroke-width="0.05px" stroke="black" />
<polyline fill="none" points="3.10,4.40 3.10,4.40 3.15,4.26 3.20,4.47 3.15,4.50 3.10,4.40" stroke-width="0.05px" stroke="black" />
<polyline fill="none" points="3.50,1.30 3.49,1.30 3.46,1.23 3.53,1.20 3.58,1.34 3.50,1.30" stroke-width="0.05px" stroke="black" />
<polyline fill="none" points="1.75,1.97 1.75,1.96 1.79,1.83 1.84,1.92 1.75,1.97" stroke-width="0.05px" stroke="black" />
<polyline fill="none" points="2.11,3.01 2.11,3.01 2.10,3.11 2.03,2.89 2.11,3.01" stroke-width="0.05px" stroke="black" />
<polyline fill="none" points="2.05,0.00 2.05,0.01 2.01,0.06 1.97,0.02 1.98,0.00 2.05,0.00 2.05,0.00" stroke-width="0.05px" stroke="black" />
<polyline fill="none" points="1.99,0.11 1.99,0.11 2.06,0.15 2.02,0.23 1.99,0.11" stroke-width="0.05px" stroke="black" />
<polyline fill="none" points="3.27,4.78 3.27,4.78 3.35,4.71 3.32,4.83 3.27,4.78" stroke-width="0.05px" stroke="black" />
<polyline fill="none" points="1.67,0.86 1.67,0.86 1.69,0.80 1.75,0.83 1.69,0.97 1.67,0.86" stroke-width="0.05px" stroke="black" />
<polyline fill="none" points="1.39,0.16 1.39,0.15 1.46,0.07 1.39,0.16" stroke-width="0.05px" stroke="black" />
<polyline fill="none" points="1.39,0.58 1.39,0.58 1.41,0.50 1.45,0.57 1.39,0.58" stroke-width="0.05px" stroke="black" />
<polyline fill="none" points="2.07,2.88 2.07,2.88 2.14,2.82 2.12,2.92 2.07,2.88" stroke-width="0.05px" stroke="black" />
<polyline fill="none" points="2.87,3.78 2.87,3.78 2.89,3.72 2.95,3.75 2.87,3.78" stroke-width="0.05px" stroke="black" />
<polyline fill="none" points="2.77,4.44 2.77,4.43 2.82,4.49 2.77,4.44" stroke-width="0.05px" stroke="black" />
<polyline fill="none" points="1.51,1.18 1.51,1.18 1.57,1.20 1.51,1.18" stroke-width="0.05px" stroke="black" />
<polyline fill="none" points="2.67,4.45 2.67,4.45 2.76,4.43 2.67,4.45" stroke-width="0.05px" stroke="black" />
<polyline fill="none" points="2.44,3.16 2.44,3.16 2.49,3.22 2.44,3.16" stroke-width="0.05px" stroke="black" />
<polyline fill="none" points="1.50,0.44 1.44,0.44 1.50,0.44 1.50,0.44" stroke-width="0.05px" stroke="black" />
<polyline fill="none" points="1.93,1.18 1.93,1.18 1.96,1.13 1.93,1.18" stroke-width="0.05px" stroke="black" />
<polyline fill="none" points="1.69,0.49 1.69,0.49 1.74,0.47 1.69,0.49" stroke-width="0.05px" stroke="black" />
<polyline fill="none" points="1.76,1.83 1.76,1.83 1.81,1.74 1.76,1.83" stroke-width="0.05px" stroke="black" />
<polyline fill="none" points="1.34,1.55 1.34,1.55 1.41,1.56 1.34,1.55" stroke-width="0.05px" stroke="black" />
<polyline fill="none" points="3.32,0.93 3.34,0.87 3.32,0.93 3.32,0.93" stroke-width="0.05px" stroke="black" />
<polyline fill="none" points="1.88,1.27 1.88,1.27 1.92,1.22 1.88,1.27" stroke-width="0.05px" stroke="black" />
<polyline fill="none" points="1.53,0.14 1.53,0.14 1.59,0.15 1.53,0.14" stroke-width="0.05px" stroke="black" />
<polyline fill="none" points="3.16,1.49 3.16,1.49 3.21,1.45 3.16,1.49" stroke-width="0.05px" stroke="black" />
<polyline fill="none" points="1.78,0.89 1.78,0.88 1.82,0.91 1.78,0.89" stroke-width="0.05px" stroke="black" />
<polyline fill="none" points="1.97,0.00 1.94,0.04 1.97,0.00 1.97,0.00" stroke-width="0.05px" stroke="black" />
<polyline fill="none" points="3.06,3.88 3.06,3.87 3.12,3.92 3.06,3.88" stroke-width="0.05px" stroke="black" />
<polyline fill="none" points="2.26,3.22 2.26,3.21 2.27,3.28 2.26,3.22" stroke-width="0.05px" stroke="black" />
<polyline fill="none" points="1.34,1.58 1.34,1.58 1.39,1.62 1.34,1.58" stroke-width="0.05px" stroke="black" />
<polyline fill="none" points="1.81,1.84 1.81,1.83 1.84,1.88 1.81,1.84" stroke-width="0.05px" stroke="black" />
<polyline fill="none" points="3.39,4.69 3.39,4.69 3.44,4.68 3.39,4.69" stroke-width="0.05px" stroke="black" />
<polyline fill="none" points="1.46,0.87 1.46,0.87 1.48,0.82 1.46,0.87" stroke-width="0.05px" stroke="black" />
</g>
<g fill="red" />
</g>
</svg>