<?xml version="1.0"?>
<svg version="1.1" viewBox="0 0 540.0 360.0" xmlns:xlink="http://www.w3.org/1999/xlink" xmlns="http://www.w3.org/2000/svg">
<g>
<g stroke-dasharray="3.6 7.2" stroke-width="0.72" stroke="#caa">
<line x1="0.00" x2="0.00" y1="360.00" y2="0.00" />
<line x1="60.00" x2="60.00" y1="360.00" y2="0.00" />
<line x1="120.00" x2="120.00" y1="360.00" y2="0.00" />
<line x1="180.00" x2="180.00" y1="360.00" y2="0.00" />
<line x1="240.00" x2="240.00" y1="360.00" y2="0.00" />
<line x1="300.00" x2="300.00" y1="360.00" y2="0.00" />
<line x1="360.00" x2="360.00" y1="360.00" y2="0.00" />
<line x1="420.00" x2="420.00" y1="360.00" y2="0.00" />
<line x1="480.00" x2="480.00" y1="360.00" y2="0.00" />
<line x1="540.00" x2="540.00" y1="360.00" y2="0.00" />
<line x1="0.00" x2="540.00" y1="90.28" y2="90.28" />
</g>
<g fill="none" stroke-width="10" stroke="red">
<line x1="0.00" x2="0.00" y1="34.89" y2="360.00" />
<line x1="60.00" x2="60.00" y1="251.62" y2="360.00" />
</g>
<g fill="none" stroke-width="10" stroke="#ffb2b0">
<line x1="120.00" x2="120.00" y1="320.88" y2="360.00" />
<line x1="180.00" x2="180.00" y1="339.96" y2="360.00" />
<line x1="240.00" x2="240.00" y1="347.59" y2="360.00" />
<line x1="300.00" x2="300.00" y1="351.13" y2="360.00" />
<line x1="360.00" x2="360.00" y1="354.83" y2="360.00" />
<line x1="420.00" x2="420.00" y1="359.12" y2="360.00" />
<line x1="480.00" x2="480.00" y1="360.12" y2="360.00" />
<line x1="540.00" x2="540.00" y1="362.16" y2="360.00" />
</g>
<g stroke="black">
<line x1="0.00" x2="0.00" y1="360.00" y2="370.00" />
<line x1="60.00" x2="60.00" y1="360.00" y2="370.00" />
<line x1="120.00" x2="120.00" y1="360.00" y2="370.00" />
<line x1="180.00" x2="180.00" y1="360.00" y2="370.00" />
<line x1="240.00" x2="240.00" y1="360.00" y2="370.00" />
<line x1="300.00" x2="300.00" y1="360.00" y2="370.00" />
<line x1="360.00" x2="360.00" y1="360.00" y2="370.00" />
<line x1="420.00" x2="420.00" y1="360.00" y2="370.00" />
<line x1="480.00" x2="480.00" y1="360.00" y2="370.00" />
<line x1="540.00" x2="540.00" y1="360.00" y2="370.00" />
<g fill="black" font-family="Arial, sans-serif" font-size="18.0" stroke="none" text-anchor="start" transform="translate(9.0 0.0)">
<text x="0.00" y="380.57">1</text>
<text x="60.00" y="380.57">2</text>
<text x="120.00" y="380.57">3</text>
<text x="180.00" y="380.57">4</text>
<text x="240.00" y="380.57">5</text>
<text x="300.00" y="380.57">6</text>
<text x="360.00" y="380.57">7</text>
<text x="420.00" y="380.57">8</text>
<text x="480.00" y="380.57">9</text>
<text x="540.00" y="380.57">10</text>
</g>
<line x1="0.00" x2="540.00" y1="360.00" y2="360.00" />
</g>
<g stroke="black">
<line x1="0.00" x2="-10.00" y1="90.28" y2="90.28" />
<g fill="black" font-family="Arial, sans-serif" font-size="18.0" stroke="none" text-anchor="end">
<text x="-9.00" y="81.28">100000</text>
</g>
<line x1="0.00" x2="0.00" y1="360.00" y2="0.00" />
</g>
</g>
</svg>