<?xml version="1.0"?>
<svg height="350" version="1.1" width="1000" xmlns:xlink="http://www.w3.org/1999/xlink" xmlns="http://www.w3.org/2000/svg">
<g>
<g>
<g>
<g stroke-dasharray="1 1" stroke="#ccc">
<line x1="80.00" x2="1000.00" y1="7.61" y2="7.61" />
<line x1="80.00" x2="1000.00" y1="22.83" y2="22.83" />
<line x1="80.00" x2="1000.00" y1="38.04" y2="38.04" />
<line x1="80.00" x2="1000.00" y1="53.26" y2="53.26" />
<line x1="80.00" x2="1000.00" y1="68.48" y2="68.48" />
<line x1="80.00" x2="1000.00" y1="83.70" y2="83.70" />
<line x1="80.00" x2="1000.00" y1="98.91" y2="98.91" />
<line x1="80.00" x2="1000.00" y1="114.13" y2="114.13" />
<line x1="80.00" x2="1000.00" y1="129.35" y2="129.35" />
<line x1="80.00" x2="1000.00" y1="144.57" y2="144.57" />
<line x1="80.00" x2="1000.00" y1="159.78" y2="159.78" />
<line x1="80.00" x2="1000.00" y1="175.00" y2="175.00" />
<line x1="80.00" x2="1000.00" y1="190.22" y2="190.22" />
<line x1="80.00" x2="1000.00" y1="205.43" y2="205.43" />
<line x1="80.00" x2="1000.00" y1="220.65" y2="220.65" />
<line x1="80.00" x2="1000.00" y1="235.87" y2="235.87" />
<line x1="80.00" x2="1000.00" y1="251.09" y2="251.09" />
<line x1="80.00" x2="1000.00" y1="266.30" y2="266.30" />
<line x1="80.00" x2="1000.00" y1="281.52" y2="281.52" />
<line x1="80.00" x2="1000.00" y1="296.74" y2="296.74" />
<line x1="80.00" x2="1000.00" y1="311.96" y2="311.96" />
<line x1="80.00" x2="1000.00" y1="327.17" y2="327.17" />
<line x1="80.00" x2="1000.00" y1="342.39" y2="342.39" />
</g>
<g stroke="black">
<g fill="none" font-family="Arial, sans-serif" font-size="10" stroke="none" text-anchor="middle" />
<line x1="80.00" x2="1000.00" y1="251.09" y2="251.09" />
</g>
<g stroke="black">
<line x1="80.00" x2="70.00" y1="7.61" y2="7.61" />
<line x1="80.00" x2="70.00" y1="22.83" y2="22.83" />
<line x1="80.00" x2="70.00" y1="38.04" y2="38.04" />
<line x1="80.00" x2="70.00" y1="53.26" y2="53.26" />
<line x1="80.00" x2="70.00" y1="68.48" y2="68.48" />
<line x1="80.00" x2="70.00" y1="83.70" y2="83.70" />
<line x1="80.00" x2="70.00" y1="98.91" y2="98.91" />
<line x1="80.00" x2="70.00" y1="114.13" y2="114.13" />
<line x1="80.00" x2="70.00" y1="129.35" y2="129.35" />
<line x1="80.00" x2="70.00" y1="144.57" y2="144.57" />
<line x1="80.00" x2="70.00" y1="159.78" y2="159.78" />
<line x1="80.00" x2="70.00" y1="175.00" y2="175.00" />
<line x1="80.00" x2="70.00" y1="190.22" y2="190.22" />
<line x1="80.00" x2="70.00" y1="205.43" y2="205.43" />
<line x1="80.00" x2="70.00" y1="220.65" y2="220.65" />
<line x1="80.00" x2="70.00" y1="235.87" y2="235.87" />
<line x1="80.00" x2="70.00" y1="251.09" y2="251.09" />
<line x1="80.00" x2="70.00" y1="266.30" y2="266.30" />
<line x1="80.00" x2="70.00" y1="281.52" y2="281.52" />
<line x1="80.00" x2="70.00" y1="296.74" y2="296.74" />
<line x1="80.00" x2="70.00" y1="311.96" y2="311.96" />
<line x1="80.00" x2="70.00" y1="327.17" y2="327.17" />
<line x1="80.00" x2="70.00" y1="342.39" y2="342.39" />
<g fill="black" font-family="Arial, sans-serif" font-size="10" stroke="none" text-anchor="middle">
<text x="60.00" y="7.61">-16.00</text>
<text x="60.00" y="22.83">-15.00</text>
<text x="60.00" y="38.04">-14.00</text>
<text x="60.00" y="53.26">-13.00</text>
<text x="60.00" y="68.48">-12.00</text>
<text x="60.00" y="83.70">-11.00</text>
<text x="60.00" y="98.91">-10.00</text>
<text x="60.00" y="114.13">-9.00</text>
<text x="60.00" y="129.35">-8.00</text>
<text x="60.00" y="144.57">-7.00</text>
<text x="60.00" y="159.78">-6.00</text>
<text x="60.00" y="175.00">-5.00</text>
<text x="60.00" y="190.22">-4.00</text>
<text x="60.00" y="205.43">-3.00</text>
<text x="60.00" y="220.65">-2.00</text>
<text x="60.00" y="235.87">-1.00</text>
<text x="60.00" y="251.09">0.00</text>
<text x="60.00" y="266.30">1.00</text>
<text x="60.00" y="281.52">2.00</text>
<text x="60.00" y="296.74">3.00</text>
<text x="60.00" y="311.96">4.00</text>
<text x="60.00" y="327.17">5.00</text>
<text x="60.00" y="342.39">6.00</text>
</g>
<line x1="80.00" x2="80.00" y1="0.00" y2="350.00" />
</g>
</g>
<g>
<g stroke-dasharray="1 1" stroke="#ccc">
</g>
<g stroke-width="1.887308533916849" stroke="#ffb2b0">
<line x1="259.68" x2="259.68" y1="198.74" y2="251.09" />
<line x1="269.73" x2="269.73" y1="210.00" y2="251.09" />
<line x1="272.24" x2="272.24" y1="184.28" y2="251.09" />
<line x1="277.27" x2="277.27" y1="124.63" y2="251.09" />
<line x1="279.78" x2="279.78" y1="184.89" y2="251.09" />
<line x1="282.29" x2="282.29" y1="191.28" y2="251.09" />
<line x1="284.81" x2="284.81" y1="189.46" y2="251.09" />
<line x1="287.32" x2="287.32" y1="117.78" y2="251.09" />
<line x1="289.83" x2="289.83" y1="50.98" y2="251.09" />
<line x1="294.86" x2="294.86" y1="5.78" y2="251.09" />
<line x1="297.37" x2="297.37" y1="20.70" y2="251.09" />
<line x1="299.89" x2="299.89" y1="19.93" y2="251.09" />
<line x1="302.40" x2="302.40" y1="22.67" y2="251.09" />
<line x1="304.91" x2="304.91" y1="82.48" y2="251.09" />
<line x1="307.42" x2="307.42" y1="126.00" y2="251.09" />
<line x1="309.94" x2="309.94" y1="229.33" y2="251.09" />
<line x1="312.45" x2="312.45" y1="143.96" y2="251.09" />
<line x1="335.07" x2="335.07" y1="276.35" y2="251.09" />
<line x1="340.09" x2="340.09" y1="249.57" y2="251.09" />
<line x1="345.12" x2="345.12" y1="248.20" y2="251.09" />
<line x1="355.17" x2="355.17" y1="190.98" y2="251.09" />
<line x1="360.20" x2="360.20" y1="229.02" y2="251.09" />
<line x1="362.71" x2="362.71" y1="203.00" y2="251.09" />
<line x1="380.30" x2="380.30" y1="192.20" y2="251.09" />
<line x1="382.81" x2="382.81" y1="187.63" y2="251.09" />
<line x1="395.38" x2="395.38" y1="240.74" y2="251.09" />
<line x1="397.89" x2="397.89" y1="216.39" y2="251.09" />
<line x1="400.40" x2="400.40" y1="223.39" y2="251.09" />
<line x1="402.92" x2="402.92" y1="253.52" y2="251.09" />
<line x1="405.43" x2="405.43" y1="245.46" y2="251.09" />
<line x1="407.94" x2="407.94" y1="254.43" y2="251.09" />
<line x1="410.46" x2="410.46" y1="259.91" y2="251.09" />
<line x1="423.02" x2="423.02" y1="241.50" y2="251.09" />
<line x1="425.53" x2="425.53" y1="202.70" y2="251.09" />
<line x1="438.10" x2="438.10" y1="231.91" y2="251.09" />
<line x1="458.20" x2="458.20" y1="183.52" y2="251.09" />
<line x1="460.72" x2="460.72" y1="190.22" y2="251.09" />
<line x1="463.23" x2="463.23" y1="193.41" y2="251.09" />
<line x1="465.74" x2="465.74" y1="224.91" y2="251.09" />
<line x1="468.25" x2="468.25" y1="177.13" y2="251.09" />
<line x1="470.77" x2="470.77" y1="243.17" y2="251.09" />
<line x1="473.28" x2="473.28" y1="237.70" y2="251.09" />
<line x1="475.79" x2="475.79" y1="228.11" y2="251.09" />
<line x1="478.31" x2="478.31" y1="218.52" y2="251.09" />
<line x1="483.33" x2="483.33" y1="245.61" y2="251.09" />
<line x1="485.85" x2="485.85" y1="232.83" y2="251.09" />
<line x1="488.36" x2="488.36" y1="250.02" y2="251.09" />
<line x1="490.87" x2="490.87" y1="253.22" y2="251.09" />
<line x1="493.38" x2="493.38" y1="265.24" y2="251.09" />
<line x1="495.90" x2="495.90" y1="209.54" y2="251.09" />
<line x1="498.41" x2="498.41" y1="225.83" y2="251.09" />
<line x1="500.92" x2="500.92" y1="241.96" y2="251.09" />
<line x1="503.44" x2="503.44" y1="253.07" y2="251.09" />
<line x1="505.95" x2="505.95" y1="242.57" y2="251.09" />
<line x1="516.00" x2="516.00" y1="251.70" y2="251.09" />
<line x1="518.51" x2="518.51" y1="256.11" y2="251.09" />
<line x1="526.05" x2="526.05" y1="218.98" y2="251.09" />
<line x1="528.57" x2="528.57" y1="288.67" y2="251.09" />
<line x1="538.62" x2="538.62" y1="218.83" y2="251.09" />
<line x1="561.23" x2="561.23" y1="230.39" y2="251.09" />
<line x1="563.75" x2="563.75" y1="214.41" y2="251.09" />
<line x1="566.26" x2="566.26" y1="170.74" y2="251.09" />
<line x1="568.77" x2="568.77" y1="239.67" y2="251.09" />
<line x1="571.29" x2="571.29" y1="192.50" y2="251.09" />
<line x1="573.80" x2="573.80" y1="162.37" y2="251.09" />
<line x1="576.31" x2="576.31" y1="204.37" y2="251.09" />
<line x1="588.88" x2="588.88" y1="202.54" y2="251.09" />
<line x1="591.39" x2="591.39" y1="191.13" y2="251.09" />
<line x1="593.90" x2="593.90" y1="186.72" y2="251.09" />
<line x1="596.42" x2="596.42" y1="165.26" y2="251.09" />
<line x1="598.93" x2="598.93" y1="192.35" y2="251.09" />
<line x1="639.14" x2="639.14" y1="202.24" y2="251.09" />
<line x1="641.65" x2="641.65" y1="184.43" y2="251.09" />
<line x1="646.68" x2="646.68" y1="198.28" y2="251.09" />
<line x1="649.19" x2="649.19" y1="131.17" y2="251.09" />
<line x1="651.70" x2="651.70" y1="118.54" y2="251.09" />
<line x1="659.24" x2="659.24" y1="145.93" y2="251.09" />
<line x1="664.27" x2="664.27" y1="184.43" y2="251.09" />
<line x1="669.29" x2="669.29" y1="127.22" y2="251.09" />
<line x1="671.81" x2="671.81" y1="189.61" y2="251.09" />
<line x1="674.32" x2="674.32" y1="151.41" y2="251.09" />
<line x1="676.83" x2="676.83" y1="123.41" y2="251.09" />
<line x1="679.34" x2="679.34" y1="137.11" y2="251.09" />
<line x1="681.86" x2="681.86" y1="130.87" y2="251.09" />
<line x1="684.37" x2="684.37" y1="139.54" y2="251.09" />
<line x1="686.88" x2="686.88" y1="216.24" y2="251.09" />
<line x1="689.40" x2="689.40" y1="196.30" y2="251.09" />
<line x1="699.45" x2="699.45" y1="211.98" y2="251.09" />
<line x1="701.96" x2="701.96" y1="224.15" y2="251.09" />
<line x1="704.47" x2="704.47" y1="213.80" y2="251.09" />
<line x1="709.50" x2="709.50" y1="198.59" y2="251.09" />
<line x1="712.01" x2="712.01" y1="227.35" y2="251.09" />
<line x1="714.53" x2="714.53" y1="206.80" y2="251.09" />
<line x1="717.04" x2="717.04" y1="165.26" y2="251.09" />
<line x1="719.55" x2="719.55" y1="159.63" y2="251.09" />
<line x1="722.07" x2="722.07" y1="176.37" y2="251.09" />
<line x1="727.09" x2="727.09" y1="206.80" y2="251.09" />
<line x1="732.12" x2="732.12" y1="185.35" y2="251.09" />
<line x1="734.63" x2="734.63" y1="217.15" y2="251.09" />
<line x1="737.14" x2="737.14" y1="201.93" y2="251.09" />
<line x1="739.66" x2="739.66" y1="182.76" y2="251.09" />
<line x1="749.71" x2="749.71" y1="162.07" y2="251.09" />
<line x1="754.73" x2="754.73" y1="203.61" y2="251.09" />
<line x1="757.25" x2="757.25" y1="217.15" y2="251.09" />
<line x1="759.76" x2="759.76" y1="203.15" y2="251.09" />
<line x1="762.27" x2="762.27" y1="216.24" y2="251.09" />
<line x1="764.79" x2="764.79" y1="234.35" y2="251.09" />
<line x1="767.30" x2="767.30" y1="235.41" y2="251.09" />
<line x1="769.81" x2="769.81" y1="180.33" y2="251.09" />
<line x1="772.32" x2="772.32" y1="193.87" y2="251.09" />
<line x1="774.84" x2="774.84" y1="177.74" y2="251.09" />
<line x1="777.35" x2="777.35" y1="179.57" y2="251.09" />
<line x1="779.86" x2="779.86" y1="161.76" y2="251.09" />
<line x1="787.40" x2="787.40" y1="221.41" y2="251.09" />
<line x1="792.43" x2="792.43" y1="216.85" y2="251.09" />
<line x1="794.94" x2="794.94" y1="162.83" y2="251.09" />
<line x1="810.02" x2="810.02" y1="212.89" y2="251.09" />
<line x1="817.56" x2="817.56" y1="182.91" y2="251.09" />
<line x1="820.07" x2="820.07" y1="194.02" y2="251.09" />
<line x1="830.12" x2="830.12" y1="173.93" y2="251.09" />
<line x1="832.64" x2="832.64" y1="186.11" y2="251.09" />
<line x1="835.15" x2="835.15" y1="184.13" y2="251.09" />
<line x1="840.17" x2="840.17" y1="217.61" y2="251.09" />
<line x1="842.69" x2="842.69" y1="198.59" y2="251.09" />
<line x1="845.20" x2="845.20" y1="289.59" y2="251.09" />
<line x1="852.74" x2="852.74" y1="216.85" y2="251.09" />
<line x1="855.25" x2="855.25" y1="189.30" y2="251.09" />
<line x1="870.33" x2="870.33" y1="236.78" y2="251.09" />
<line x1="872.84" x2="872.84" y1="198.13" y2="251.09" />
<line x1="877.87" x2="877.87" y1="109.11" y2="251.09" />
<line x1="882.90" x2="882.90" y1="197.37" y2="251.09" />
<line x1="887.92" x2="887.92" y1="197.37" y2="251.09" />
<line x1="895.46" x2="895.46" y1="152.78" y2="251.09" />
<line x1="897.97" x2="897.97" y1="157.20" y2="251.09" />
<line x1="900.49" x2="900.49" y1="183.67" y2="251.09" />
<line x1="903.00" x2="903.00" y1="197.67" y2="251.09" />
<line x1="905.51" x2="905.51" y1="201.02" y2="251.09" />
<line x1="908.03" x2="908.03" y1="211.52" y2="251.09" />
<line x1="913.05" x2="913.05" y1="196.76" y2="251.09" />
<line x1="923.10" x2="923.10" y1="155.52" y2="251.09" />
<line x1="928.13" x2="928.13" y1="161.30" y2="251.09" />
<line x1="943.21" x2="943.21" y1="140.61" y2="251.09" />
<line x1="945.72" x2="945.72" y1="221.26" y2="251.09" />
<line x1="958.28" x2="958.28" y1="149.43" y2="251.09" />
<line x1="960.80" x2="960.80" y1="164.35" y2="251.09" />
<line x1="975.88" x2="975.88" y1="204.83" y2="251.09" />
<line x1="980.90" x2="980.90" y1="198.43" y2="251.09" />
<line x1="990.95" x2="990.95" y1="232.67" y2="251.09" />
<line x1="998.49" x2="998.49" y1="22.83" y2="251.09" />
</g>
<g stroke="black">
<g fill="black" font-family="Arial, sans-serif" font-size="10" stroke="none" text-anchor="middle" />
<line x1="80.00" x2="1000.00" y1="251.09" y2="251.09" />
</g>
<g stroke="black">
<g fill="black" font-family="Arial, sans-serif" font-size="10" stroke="none" text-anchor="middle" />
<line x1="80.00" x2="80.00" y1="251.09" y2="0.00" />
</g>
</g>
</g>
<text style="font-size: 30px;" x="100.00" y="23.00">2011</text>
<text x="5.00" y="150.00">d18O</text>
</g>
</svg>