<?xml version="1.0"?>
<svg height="350" version="1.1" width="1000" xmlns:xlink="http://www.w3.org/1999/xlink" xmlns="http://www.w3.org/2000/svg">
<g>
<g>
<g>
<g stroke-dasharray="1 1" stroke="#ccc">
<line x1="80.00" x2="1000.00" y1="7.61" y2="7.61" />
<line x1="80.00" x2="1000.00" y1="22.83" y2="22.83" />
<line x1="80.00" x2="1000.00" y1="38.04" y2="38.04" />
<line x1="80.00" x2="1000.00" y1="53.26" y2="53.26" />
<line x1="80.00" x2="1000.00" y1="68.48" y2="68.48" />
<line x1="80.00" x2="1000.00" y1="83.70" y2="83.70" />
<line x1="80.00" x2="1000.00" y1="98.91" y2="98.91" />
<line x1="80.00" x2="1000.00" y1="114.13" y2="114.13" />
<line x1="80.00" x2="1000.00" y1="129.35" y2="129.35" />
<line x1="80.00" x2="1000.00" y1="144.57" y2="144.57" />
<line x1="80.00" x2="1000.00" y1="159.78" y2="159.78" />
<line x1="80.00" x2="1000.00" y1="175.00" y2="175.00" />
<line x1="80.00" x2="1000.00" y1="190.22" y2="190.22" />
<line x1="80.00" x2="1000.00" y1="205.43" y2="205.43" />
<line x1="80.00" x2="1000.00" y1="220.65" y2="220.65" />
<line x1="80.00" x2="1000.00" y1="235.87" y2="235.87" />
<line x1="80.00" x2="1000.00" y1="251.09" y2="251.09" />
<line x1="80.00" x2="1000.00" y1="266.30" y2="266.30" />
<line x1="80.00" x2="1000.00" y1="281.52" y2="281.52" />
<line x1="80.00" x2="1000.00" y1="296.74" y2="296.74" />
<line x1="80.00" x2="1000.00" y1="311.96" y2="311.96" />
<line x1="80.00" x2="1000.00" y1="327.17" y2="327.17" />
<line x1="80.00" x2="1000.00" y1="342.39" y2="342.39" />
</g>
<g stroke="black">
<g fill="none" font-family="Arial, sans-serif" font-size="10" stroke="none" text-anchor="middle" />
<line x1="80.00" x2="1000.00" y1="251.09" y2="251.09" />
</g>
<g stroke="black">
<line x1="80.00" x2="70.00" y1="7.61" y2="7.61" />
<line x1="80.00" x2="70.00" y1="22.83" y2="22.83" />
<line x1="80.00" x2="70.00" y1="38.04" y2="38.04" />
<line x1="80.00" x2="70.00" y1="53.26" y2="53.26" />
<line x1="80.00" x2="70.00" y1="68.48" y2="68.48" />
<line x1="80.00" x2="70.00" y1="83.70" y2="83.70" />
<line x1="80.00" x2="70.00" y1="98.91" y2="98.91" />
<line x1="80.00" x2="70.00" y1="114.13" y2="114.13" />
<line x1="80.00" x2="70.00" y1="129.35" y2="129.35" />
<line x1="80.00" x2="70.00" y1="144.57" y2="144.57" />
<line x1="80.00" x2="70.00" y1="159.78" y2="159.78" />
<line x1="80.00" x2="70.00" y1="175.00" y2="175.00" />
<line x1="80.00" x2="70.00" y1="190.22" y2="190.22" />
<line x1="80.00" x2="70.00" y1="205.43" y2="205.43" />
<line x1="80.00" x2="70.00" y1="220.65" y2="220.65" />
<line x1="80.00" x2="70.00" y1="235.87" y2="235.87" />
<line x1="80.00" x2="70.00" y1="251.09" y2="251.09" />
<line x1="80.00" x2="70.00" y1="266.30" y2="266.30" />
<line x1="80.00" x2="70.00" y1="281.52" y2="281.52" />
<line x1="80.00" x2="70.00" y1="296.74" y2="296.74" />
<line x1="80.00" x2="70.00" y1="311.96" y2="311.96" />
<line x1="80.00" x2="70.00" y1="327.17" y2="327.17" />
<line x1="80.00" x2="70.00" y1="342.39" y2="342.39" />
<g fill="black" font-family="Arial, sans-serif" font-size="10" stroke="none" text-anchor="middle">
<text x="60.00" y="7.61">-16.00</text>
<text x="60.00" y="22.83">-15.00</text>
<text x="60.00" y="38.04">-14.00</text>
<text x="60.00" y="53.26">-13.00</text>
<text x="60.00" y="68.48">-12.00</text>
<text x="60.00" y="83.70">-11.00</text>
<text x="60.00" y="98.91">-10.00</text>
<text x="60.00" y="114.13">-9.00</text>
<text x="60.00" y="129.35">-8.00</text>
<text x="60.00" y="144.57">-7.00</text>
<text x="60.00" y="159.78">-6.00</text>
<text x="60.00" y="175.00">-5.00</text>
<text x="60.00" y="190.22">-4.00</text>
<text x="60.00" y="205.43">-3.00</text>
<text x="60.00" y="220.65">-2.00</text>
<text x="60.00" y="235.87">-1.00</text>
<text x="60.00" y="251.09">0.00</text>
<text x="60.00" y="266.30">1.00</text>
<text x="60.00" y="281.52">2.00</text>
<text x="60.00" y="296.74">3.00</text>
<text x="60.00" y="311.96">4.00</text>
<text x="60.00" y="327.17">5.00</text>
<text x="60.00" y="342.39">6.00</text>
</g>
<line x1="80.00" x2="80.00" y1="0.00" y2="350.00" />
</g>
</g>
<g>
<g stroke-dasharray="1 1" stroke="#ccc">
</g>
<g stroke-width="1.887308533916849" stroke="#ffb2b0">
<line x1="88.80" x2="88.80" y1="226.13" y2="251.09" />
<line x1="91.31" x2="91.31" y1="219.74" y2="251.09" />
<line x1="108.90" x2="108.90" y1="210.46" y2="251.09" />
<line x1="129.00" x2="129.00" y1="302.83" y2="251.09" />
<line x1="141.57" x2="141.57" y1="216.24" y2="251.09" />
<line x1="144.08" x2="144.08" y1="280.91" y2="251.09" />
<line x1="189.31" x2="189.31" y1="232.83" y2="251.09" />
<line x1="196.85" x2="196.85" y1="230.70" y2="251.09" />
<line x1="219.47" x2="219.47" y1="180.33" y2="251.09" />
<line x1="221.98" x2="221.98" y1="185.96" y2="251.09" />
<line x1="224.50" x2="224.50" y1="262.96" y2="251.09" />
<line x1="227.01" x2="227.01" y1="219.74" y2="251.09" />
<line x1="262.19" x2="262.19" y1="237.70" y2="251.09" />
<line x1="309.94" x2="309.94" y1="246.37" y2="251.09" />
<line x1="314.96" x2="314.96" y1="222.33" y2="251.09" />
<line x1="335.07" x2="335.07" y1="290.20" y2="251.09" />
<line x1="340.09" x2="340.09" y1="214.87" y2="251.09" />
<line x1="342.61" x2="342.61" y1="31.20" y2="251.09" />
<line x1="347.63" x2="347.63" y1="142.28" y2="251.09" />
<line x1="350.14" x2="350.14" y1="198.28" y2="251.09" />
<line x1="365.22" x2="365.22" y1="208.02" y2="251.09" />
<line x1="367.74" x2="367.74" y1="217.76" y2="251.09" />
<line x1="370.25" x2="370.25" y1="173.93" y2="251.09" />
<line x1="375.27" x2="375.27" y1="126.00" y2="251.09" />
<line x1="377.79" x2="377.79" y1="124.48" y2="251.09" />
<line x1="380.30" x2="380.30" y1="149.43" y2="251.09" />
<line x1="385.33" x2="385.33" y1="182.46" y2="251.09" />
<line x1="392.87" x2="392.87" y1="159.78" y2="251.09" />
<line x1="395.38" x2="395.38" y1="176.98" y2="251.09" />
<line x1="397.89" x2="397.89" y1="128.28" y2="251.09" />
<line x1="402.92" x2="402.92" y1="153.54" y2="251.09" />
<line x1="405.43" x2="405.43" y1="202.54" y2="251.09" />
<line x1="407.94" x2="407.94" y1="140.30" y2="251.09" />
<line x1="412.97" x2="412.97" y1="112.46" y2="251.09" />
<line x1="420.51" x2="420.51" y1="209.09" y2="251.09" />
<line x1="425.53" x2="425.53" y1="200.11" y2="251.09" />
<line x1="428.05" x2="428.05" y1="155.98" y2="251.09" />
<line x1="430.56" x2="430.56" y1="119.46" y2="251.09" />
<line x1="435.59" x2="435.59" y1="217.15" y2="251.09" />
<line x1="438.10" x2="438.10" y1="201.93" y2="251.09" />
<line x1="440.61" x2="440.61" y1="233.89" y2="251.09" />
<line x1="443.12" x2="443.12" y1="169.52" y2="251.09" />
<line x1="445.64" x2="445.64" y1="193.26" y2="251.09" />
<line x1="448.15" x2="448.15" y1="213.50" y2="251.09" />
<line x1="453.18" x2="453.18" y1="216.39" y2="251.09" />
<line x1="465.74" x2="465.74" y1="168.46" y2="251.09" />
<line x1="468.25" x2="468.25" y1="190.98" y2="251.09" />
<line x1="470.77" x2="470.77" y1="213.96" y2="251.09" />
<line x1="483.33" x2="483.33" y1="170.43" y2="251.09" />
<line x1="485.85" x2="485.85" y1="187.93" y2="251.09" />
<line x1="488.36" x2="488.36" y1="183.37" y2="251.09" />
<line x1="490.87" x2="490.87" y1="200.26" y2="251.09" />
<line x1="493.38" x2="493.38" y1="178.96" y2="251.09" />
<line x1="495.90" x2="495.90" y1="199.35" y2="251.09" />
<line x1="498.41" x2="498.41" y1="216.85" y2="251.09" />
<line x1="500.92" x2="500.92" y1="228.26" y2="251.09" />
<line x1="503.44" x2="503.44" y1="226.43" y2="251.09" />
<line x1="505.95" x2="505.95" y1="232.22" y2="251.09" />
<line x1="508.46" x2="508.46" y1="251.09" y2="251.09" />
<line x1="518.51" x2="518.51" y1="217.15" y2="251.09" />
<line x1="526.05" x2="526.05" y1="248.50" y2="251.09" />
<line x1="541.13" x2="541.13" y1="168.46" y2="251.09" />
<line x1="543.64" x2="543.64" y1="138.33" y2="251.09" />
<line x1="546.16" x2="546.16" y1="163.13" y2="251.09" />
<line x1="548.67" x2="548.67" y1="190.22" y2="251.09" />
<line x1="556.21" x2="556.21" y1="166.17" y2="251.09" />
<line x1="558.72" x2="558.72" y1="163.89" y2="251.09" />
<line x1="561.23" x2="561.23" y1="201.48" y2="251.09" />
<line x1="568.77" x2="568.77" y1="218.37" y2="251.09" />
<line x1="571.29" x2="571.29" y1="227.04" y2="251.09" />
<line x1="576.31" x2="576.31" y1="184.43" y2="251.09" />
<line x1="581.34" x2="581.34" y1="237.09" y2="251.09" />
<line x1="588.88" x2="588.88" y1="227.04" y2="251.09" />
<line x1="591.39" x2="591.39" y1="228.87" y2="251.09" />
<line x1="593.90" x2="593.90" y1="170.28" y2="251.09" />
<line x1="596.42" x2="596.42" y1="168.46" y2="251.09" />
<line x1="611.49" x2="611.49" y1="198.74" y2="251.09" />
<line x1="614.01" x2="614.01" y1="177.59" y2="251.09" />
<line x1="616.52" x2="616.52" y1="170.43" y2="251.09" />
<line x1="619.03" x2="619.03" y1="138.48" y2="251.09" />
<line x1="624.06" x2="624.06" y1="172.57" y2="251.09" />
<line x1="626.57" x2="626.57" y1="137.72" y2="251.09" />
<line x1="629.08" x2="629.08" y1="152.78" y2="251.09" />
<line x1="631.60" x2="631.60" y1="170.43" y2="251.09" />
<line x1="634.11" x2="634.11" y1="180.78" y2="251.09" />
<line x1="636.62" x2="636.62" y1="180.78" y2="251.09" />
<line x1="639.14" x2="639.14" y1="182.91" y2="251.09" />
<line x1="641.65" x2="641.65" y1="166.93" y2="251.09" />
<line x1="644.16" x2="644.16" y1="168.00" y2="251.09" />
<line x1="671.81" x2="671.81" y1="162.98" y2="251.09" />
<line x1="674.32" x2="674.32" y1="200.26" y2="251.09" />
<line x1="681.86" x2="681.86" y1="182.30" y2="251.09" />
<line x1="684.37" x2="684.37" y1="165.41" y2="251.09" />
<line x1="686.88" x2="686.88" y1="162.22" y2="251.09" />
<line x1="694.42" x2="694.42" y1="69.09" y2="251.09" />
<line x1="696.94" x2="696.94" y1="166.17" y2="251.09" />
<line x1="704.47" x2="704.47" y1="128.28" y2="251.09" />
<line x1="709.50" x2="709.50" y1="91.30" y2="251.09" />
<line x1="712.01" x2="712.01" y1="251.09" y2="251.09" />
<line x1="714.53" x2="714.53" y1="168.00" y2="251.09" />
<line x1="717.04" x2="717.04" y1="136.80" y2="251.09" />
<line x1="719.55" x2="719.55" y1="118.24" y2="251.09" />
<line x1="722.07" x2="722.07" y1="153.24" y2="251.09" />
<line x1="724.58" x2="724.58" y1="171.80" y2="251.09" />
<line x1="739.66" x2="739.66" y1="173.78" y2="251.09" />
<line x1="742.17" x2="742.17" y1="210.61" y2="251.09" />
<line x1="747.19" x2="747.19" y1="242.11" y2="251.09" />
<line x1="752.22" x2="752.22" y1="234.65" y2="251.09" />
<line x1="754.73" x2="754.73" y1="251.09" y2="251.09" />
<line x1="757.25" x2="757.25" y1="244.54" y2="251.09" />
<line x1="759.76" x2="759.76" y1="249.72" y2="251.09" />
<line x1="762.27" x2="762.27" y1="238.91" y2="251.09" />
<line x1="764.79" x2="764.79" y1="213.80" y2="251.09" />
<line x1="767.30" x2="767.30" y1="238.61" y2="251.09" />
<line x1="772.32" x2="772.32" y1="258.54" y2="251.09" />
<line x1="774.84" x2="774.84" y1="190.98" y2="251.09" />
<line x1="777.35" x2="777.35" y1="180.93" y2="251.09" />
<line x1="779.86" x2="779.86" y1="153.24" y2="251.09" />
<line x1="782.38" x2="782.38" y1="173.48" y2="251.09" />
<line x1="784.89" x2="784.89" y1="168.15" y2="251.09" />
<line x1="787.40" x2="787.40" y1="174.85" y2="251.09" />
<line x1="789.92" x2="789.92" y1="188.54" y2="251.09" />
<line x1="797.45" x2="797.45" y1="227.65" y2="251.09" />
<line x1="807.51" x2="807.51" y1="236.02" y2="251.09" />
<line x1="812.53" x2="812.53" y1="241.65" y2="251.09" />
<line x1="815.05" x2="815.05" y1="175.61" y2="251.09" />
<line x1="817.56" x2="817.56" y1="142.89" y2="251.09" />
<line x1="820.07" x2="820.07" y1="127.98" y2="251.09" />
<line x1="822.58" x2="822.58" y1="141.22" y2="251.09" />
<line x1="825.10" x2="825.10" y1="195.09" y2="251.09" />
<line x1="827.61" x2="827.61" y1="185.50" y2="251.09" />
<line x1="830.12" x2="830.12" y1="104.85" y2="251.09" />
<line x1="832.64" x2="832.64" y1="84.91" y2="251.09" />
<line x1="835.15" x2="835.15" y1="115.04" y2="251.09" />
<line x1="837.66" x2="837.66" y1="80.20" y2="251.09" />
<line x1="840.17" x2="840.17" y1="123.57" y2="251.09" />
<line x1="842.69" x2="842.69" y1="177.59" y2="251.09" />
<line x1="845.20" x2="845.20" y1="183.98" y2="251.09" />
<line x1="850.23" x2="850.23" y1="219.28" y2="251.09" />
<line x1="862.79" x2="862.79" y1="189.91" y2="251.09" />
<line x1="870.33" x2="870.33" y1="152.33" y2="251.09" />
<line x1="872.84" x2="872.84" y1="158.57" y2="251.09" />
<line x1="877.87" x2="877.87" y1="155.07" y2="251.09" />
<line x1="880.38" x2="880.38" y1="193.87" y2="251.09" />
<line x1="882.90" x2="882.90" y1="170.59" y2="251.09" />
<line x1="885.41" x2="885.41" y1="172.11" y2="251.09" />
<line x1="887.92" x2="887.92" y1="231.76" y2="251.09" />
<line x1="890.43" x2="890.43" y1="219.43" y2="251.09" />
<line x1="895.46" x2="895.46" y1="172.57" y2="251.09" />
<line x1="897.97" x2="897.97" y1="102.11" y2="251.09" />
<line x1="900.49" x2="900.49" y1="31.35" y2="251.09" />
<line x1="903.00" x2="903.00" y1="38.04" y2="251.09" />
<line x1="910.54" x2="910.54" y1="147.46" y2="251.09" />
<line x1="913.05" x2="913.05" y1="163.74" y2="251.09" />
<line x1="915.56" x2="915.56" y1="137.72" y2="251.09" />
<line x1="918.08" x2="918.08" y1="175.76" y2="251.09" />
<line x1="920.59" x2="920.59" y1="236.48" y2="251.09" />
<line x1="925.62" x2="925.62" y1="221.57" y2="251.09" />
<line x1="933.15" x2="933.15" y1="220.35" y2="251.09" />
<line x1="935.67" x2="935.67" y1="172.41" y2="251.09" />
<line x1="958.28" x2="958.28" y1="164.35" y2="251.09" />
<line x1="960.80" x2="960.80" y1="153.39" y2="251.09" />
<line x1="963.31" x2="963.31" y1="160.54" y2="251.09" />
</g>
<g stroke="black">
<g fill="black" font-family="Arial, sans-serif" font-size="10" stroke="none" text-anchor="middle" />
<line x1="80.00" x2="1000.00" y1="251.09" y2="251.09" />
</g>
<g stroke="black">
<g fill="black" font-family="Arial, sans-serif" font-size="10" stroke="none" text-anchor="middle" />
<line x1="80.00" x2="80.00" y1="251.09" y2="0.00" />
</g>
</g>
</g>
<text style="font-size: 30px;" x="100.00" y="23.00">2013</text>
<text x="5.00" y="150.00">d18O</text>
</g>
</svg>