<?xml version="1.0"?>
<svg height="350" version="1.1" width="1000" xmlns:xlink="http://www.w3.org/1999/xlink" xmlns="http://www.w3.org/2000/svg">
<g>
<g>
<g>
<g stroke-dasharray="1 1" stroke="#ccc">
<line x1="80.00" x2="1000.00" y1="7.61" y2="7.61" />
<line x1="80.00" x2="1000.00" y1="22.83" y2="22.83" />
<line x1="80.00" x2="1000.00" y1="38.04" y2="38.04" />
<line x1="80.00" x2="1000.00" y1="53.26" y2="53.26" />
<line x1="80.00" x2="1000.00" y1="68.48" y2="68.48" />
<line x1="80.00" x2="1000.00" y1="83.70" y2="83.70" />
<line x1="80.00" x2="1000.00" y1="98.91" y2="98.91" />
<line x1="80.00" x2="1000.00" y1="114.13" y2="114.13" />
<line x1="80.00" x2="1000.00" y1="129.35" y2="129.35" />
<line x1="80.00" x2="1000.00" y1="144.57" y2="144.57" />
<line x1="80.00" x2="1000.00" y1="159.78" y2="159.78" />
<line x1="80.00" x2="1000.00" y1="175.00" y2="175.00" />
<line x1="80.00" x2="1000.00" y1="190.22" y2="190.22" />
<line x1="80.00" x2="1000.00" y1="205.43" y2="205.43" />
<line x1="80.00" x2="1000.00" y1="220.65" y2="220.65" />
<line x1="80.00" x2="1000.00" y1="235.87" y2="235.87" />
<line x1="80.00" x2="1000.00" y1="251.09" y2="251.09" />
<line x1="80.00" x2="1000.00" y1="266.30" y2="266.30" />
<line x1="80.00" x2="1000.00" y1="281.52" y2="281.52" />
<line x1="80.00" x2="1000.00" y1="296.74" y2="296.74" />
<line x1="80.00" x2="1000.00" y1="311.96" y2="311.96" />
<line x1="80.00" x2="1000.00" y1="327.17" y2="327.17" />
<line x1="80.00" x2="1000.00" y1="342.39" y2="342.39" />
</g>
<g stroke="black">
<g fill="none" font-family="Arial, sans-serif" font-size="10" stroke="none" text-anchor="middle" />
<line x1="80.00" x2="1000.00" y1="251.09" y2="251.09" />
</g>
<g stroke="black">
<line x1="80.00" x2="70.00" y1="7.61" y2="7.61" />
<line x1="80.00" x2="70.00" y1="22.83" y2="22.83" />
<line x1="80.00" x2="70.00" y1="38.04" y2="38.04" />
<line x1="80.00" x2="70.00" y1="53.26" y2="53.26" />
<line x1="80.00" x2="70.00" y1="68.48" y2="68.48" />
<line x1="80.00" x2="70.00" y1="83.70" y2="83.70" />
<line x1="80.00" x2="70.00" y1="98.91" y2="98.91" />
<line x1="80.00" x2="70.00" y1="114.13" y2="114.13" />
<line x1="80.00" x2="70.00" y1="129.35" y2="129.35" />
<line x1="80.00" x2="70.00" y1="144.57" y2="144.57" />
<line x1="80.00" x2="70.00" y1="159.78" y2="159.78" />
<line x1="80.00" x2="70.00" y1="175.00" y2="175.00" />
<line x1="80.00" x2="70.00" y1="190.22" y2="190.22" />
<line x1="80.00" x2="70.00" y1="205.43" y2="205.43" />
<line x1="80.00" x2="70.00" y1="220.65" y2="220.65" />
<line x1="80.00" x2="70.00" y1="235.87" y2="235.87" />
<line x1="80.00" x2="70.00" y1="251.09" y2="251.09" />
<line x1="80.00" x2="70.00" y1="266.30" y2="266.30" />
<line x1="80.00" x2="70.00" y1="281.52" y2="281.52" />
<line x1="80.00" x2="70.00" y1="296.74" y2="296.74" />
<line x1="80.00" x2="70.00" y1="311.96" y2="311.96" />
<line x1="80.00" x2="70.00" y1="327.17" y2="327.17" />
<line x1="80.00" x2="70.00" y1="342.39" y2="342.39" />
<g fill="black" font-family="Arial, sans-serif" font-size="10" stroke="none" text-anchor="middle">
<text x="60.00" y="7.61">-16.00</text>
<text x="60.00" y="22.83">-15.00</text>
<text x="60.00" y="38.04">-14.00</text>
<text x="60.00" y="53.26">-13.00</text>
<text x="60.00" y="68.48">-12.00</text>
<text x="60.00" y="83.70">-11.00</text>
<text x="60.00" y="98.91">-10.00</text>
<text x="60.00" y="114.13">-9.00</text>
<text x="60.00" y="129.35">-8.00</text>
<text x="60.00" y="144.57">-7.00</text>
<text x="60.00" y="159.78">-6.00</text>
<text x="60.00" y="175.00">-5.00</text>
<text x="60.00" y="190.22">-4.00</text>
<text x="60.00" y="205.43">-3.00</text>
<text x="60.00" y="220.65">-2.00</text>
<text x="60.00" y="235.87">-1.00</text>
<text x="60.00" y="251.09">0.00</text>
<text x="60.00" y="266.30">1.00</text>
<text x="60.00" y="281.52">2.00</text>
<text x="60.00" y="296.74">3.00</text>
<text x="60.00" y="311.96">4.00</text>
<text x="60.00" y="327.17">5.00</text>
<text x="60.00" y="342.39">6.00</text>
</g>
<line x1="80.00" x2="80.00" y1="0.00" y2="350.00" />
</g>
</g>
<g>
<g stroke-dasharray="1 1" stroke="#ccc">
</g>
<g stroke-width="1.887308533916849" stroke="#ffb2b0">
<line x1="86.28" x2="86.28" y1="197.83" y2="251.09" />
<line x1="88.80" x2="88.80" y1="225.22" y2="251.09" />
<line x1="91.31" x2="91.31" y1="251.09" y2="251.09" />
<line x1="93.82" x2="93.82" y1="62.39" y2="251.09" />
<line x1="96.33" x2="96.33" y1="22.83" y2="251.09" />
<line x1="98.85" x2="98.85" y1="42.61" y2="251.09" />
<line x1="101.36" x2="101.36" y1="-44.13" y2="251.09" />
<line x1="103.87" x2="103.87" y1="171.96" y2="251.09" />
<line x1="118.95" x2="118.95" y1="251.09" y2="251.09" />
<line x1="123.98" x2="123.98" y1="76.09" y2="251.09" />
<line x1="126.49" x2="126.49" y1="342.39" y2="251.09" />
<line x1="129.00" x2="129.00" y1="199.35" y2="251.09" />
<line x1="131.52" x2="131.52" y1="105.00" y2="251.09" />
<line x1="136.54" x2="136.54" y1="171.96" y2="251.09" />
<line x1="139.05" x2="139.05" y1="228.26" y2="251.09" />
<line x1="141.57" x2="141.57" y1="211.52" y2="251.09" />
<line x1="146.59" x2="146.59" y1="188.70" y2="251.09" />
<line x1="159.16" x2="159.16" y1="202.39" y2="251.09" />
<line x1="161.67" x2="161.67" y1="234.35" y2="251.09" />
<line x1="166.70" x2="166.70" y1="176.52" y2="251.09" />
<line x1="171.72" x2="171.72" y1="196.30" y2="251.09" />
<line x1="186.80" x2="186.80" y1="234.35" y2="251.09" />
<line x1="196.85" x2="196.85" y1="249.57" y2="251.09" />
<line x1="199.37" x2="199.37" y1="269.35" y2="251.09" />
<line x1="209.42" x2="209.42" y1="226.74" y2="251.09" />
<line x1="221.98" x2="221.98" y1="213.04" y2="251.09" />
<line x1="227.01" x2="227.01" y1="206.96" y2="251.09" />
<line x1="229.52" x2="229.52" y1="219.13" y2="251.09" />
<line x1="272.24" x2="272.24" y1="205.43" y2="251.09" />
<line x1="279.78" x2="279.78" y1="187.17" y2="251.09" />
<line x1="297.37" x2="297.37" y1="173.48" y2="251.09" />
<line x1="299.89" x2="299.89" y1="368.26" y2="251.09" />
<line x1="302.40" x2="302.40" y1="127.83" y2="251.09" />
<line x1="304.91" x2="304.91" y1="193.26" y2="251.09" />
<line x1="307.42" x2="307.42" y1="141.52" y2="251.09" />
<line x1="309.94" x2="309.94" y1="105.00" y2="251.09" />
<line x1="312.45" x2="312.45" y1="68.48" y2="251.09" />
<line x1="319.99" x2="319.99" y1="130.87" y2="251.09" />
<line x1="325.02" x2="325.02" y1="51.74" y2="251.09" />
<line x1="327.53" x2="327.53" y1="94.35" y2="251.09" />
<line x1="330.04" x2="330.04" y1="132.39" y2="251.09" />
<line x1="332.55" x2="332.55" y1="129.35" y2="251.09" />
<line x1="335.07" x2="335.07" y1="214.57" y2="251.09" />
<line x1="340.09" x2="340.09" y1="149.13" y2="251.09" />
<line x1="362.71" x2="362.71" y1="225.22" y2="251.09" />
<line x1="370.25" x2="370.25" y1="217.61" y2="251.09" />
<line x1="372.76" x2="372.76" y1="238.91" y2="251.09" />
<line x1="375.27" x2="375.27" y1="284.57" y2="251.09" />
<line x1="392.87" x2="392.87" y1="251.09" y2="251.09" />
<line x1="395.38" x2="395.38" y1="213.04" y2="251.09" />
<line x1="397.89" x2="397.89" y1="206.96" y2="251.09" />
<line x1="400.40" x2="400.40" y1="225.22" y2="251.09" />
<line x1="402.92" x2="402.92" y1="199.35" y2="251.09" />
<line x1="405.43" x2="405.43" y1="168.91" y2="251.09" />
<line x1="407.94" x2="407.94" y1="161.30" y2="251.09" />
<line x1="410.46" x2="410.46" y1="149.13" y2="251.09" />
<line x1="412.97" x2="412.97" y1="136.96" y2="251.09" />
<line x1="415.48" x2="415.48" y1="136.96" y2="251.09" />
<line x1="418.00" x2="418.00" y1="188.70" y2="251.09" />
<line x1="420.51" x2="420.51" y1="158.26" y2="251.09" />
<line x1="423.02" x2="423.02" y1="190.22" y2="251.09" />
<line x1="428.05" x2="428.05" y1="162.83" y2="251.09" />
<line x1="435.59" x2="435.59" y1="167.39" y2="251.09" />
<line x1="440.61" x2="440.61" y1="171.96" y2="251.09" />
<line x1="443.12" x2="443.12" y1="251.09" y2="251.09" />
<line x1="445.64" x2="445.64" y1="216.09" y2="251.09" />
<line x1="448.15" x2="448.15" y1="173.48" y2="251.09" />
<line x1="450.66" x2="450.66" y1="188.70" y2="251.09" />
<line x1="453.18" x2="453.18" y1="179.57" y2="251.09" />
<line x1="455.69" x2="455.69" y1="200.87" y2="251.09" />
<line x1="458.20" x2="458.20" y1="202.39" y2="251.09" />
<line x1="460.72" x2="460.72" y1="206.96" y2="251.09" />
<line x1="465.74" x2="465.74" y1="178.04" y2="251.09" />
<line x1="468.25" x2="468.25" y1="251.09" y2="251.09" />
<line x1="470.77" x2="470.77" y1="185.65" y2="251.09" />
<line x1="473.28" x2="473.28" y1="184.13" y2="251.09" />
<line x1="475.79" x2="475.79" y1="191.74" y2="251.09" />
<line x1="480.82" x2="480.82" y1="231.30" y2="251.09" />
<line x1="490.87" x2="490.87" y1="232.83" y2="251.09" />
<line x1="498.41" x2="498.41" y1="208.48" y2="251.09" />
<line x1="505.95" x2="505.95" y1="222.17" y2="251.09" />
<line x1="508.46" x2="508.46" y1="249.57" y2="251.09" />
<line x1="510.98" x2="510.98" y1="200.87" y2="251.09" />
<line x1="513.49" x2="513.49" y1="214.57" y2="251.09" />
<line x1="516.00" x2="516.00" y1="219.13" y2="251.09" />
<line x1="518.51" x2="518.51" y1="194.78" y2="251.09" />
<line x1="521.03" x2="521.03" y1="187.17" y2="251.09" />
<line x1="523.54" x2="523.54" y1="203.91" y2="251.09" />
<line x1="526.05" x2="526.05" y1="231.30" y2="251.09" />
<line x1="528.57" x2="528.57" y1="202.39" y2="251.09" />
<line x1="531.08" x2="531.08" y1="220.65" y2="251.09" />
<line x1="533.59" x2="533.59" y1="176.52" y2="251.09" />
<line x1="536.10" x2="536.10" y1="234.35" y2="251.09" />
<line x1="546.16" x2="546.16" y1="220.65" y2="251.09" />
<line x1="551.18" x2="551.18" y1="272.39" y2="251.09" />
<line x1="553.70" x2="553.70" y1="185.65" y2="251.09" />
<line x1="558.72" x2="558.72" y1="226.74" y2="251.09" />
<line x1="561.23" x2="561.23" y1="194.78" y2="251.09" />
<line x1="563.75" x2="563.75" y1="232.83" y2="251.09" />
<line x1="566.26" x2="566.26" y1="321.09" y2="251.09" />
<line x1="568.77" x2="568.77" y1="194.78" y2="251.09" />
<line x1="571.29" x2="571.29" y1="213.04" y2="251.09" />
<line x1="596.42" x2="596.42" y1="261.74" y2="251.09" />
<line x1="598.93" x2="598.93" y1="202.39" y2="251.09" />
<line x1="601.44" x2="601.44" y1="217.61" y2="251.09" />
<line x1="603.96" x2="603.96" y1="208.48" y2="251.09" />
<line x1="608.98" x2="608.98" y1="278.48" y2="251.09" />
<line x1="611.49" x2="611.49" y1="479.35" y2="251.09" />
<line x1="614.01" x2="614.01" y1="222.17" y2="251.09" />
<line x1="616.52" x2="616.52" y1="194.78" y2="251.09" />
<line x1="619.03" x2="619.03" y1="219.13" y2="251.09" />
<line x1="621.55" x2="621.55" y1="216.09" y2="251.09" />
<line x1="624.06" x2="624.06" y1="213.04" y2="251.09" />
<line x1="626.57" x2="626.57" y1="196.30" y2="251.09" />
<line x1="639.14" x2="639.14" y1="240.43" y2="251.09" />
<line x1="641.65" x2="641.65" y1="229.78" y2="251.09" />
<line x1="644.16" x2="644.16" y1="197.83" y2="251.09" />
<line x1="646.68" x2="646.68" y1="182.61" y2="251.09" />
<line x1="649.19" x2="649.19" y1="127.83" y2="251.09" />
<line x1="651.70" x2="651.70" y1="50.22" y2="251.09" />
<line x1="654.21" x2="654.21" y1="214.57" y2="251.09" />
<line x1="666.78" x2="666.78" y1="219.13" y2="251.09" />
<line x1="674.32" x2="674.32" y1="231.30" y2="251.09" />
<line x1="676.83" x2="676.83" y1="220.65" y2="251.09" />
<line x1="679.34" x2="679.34" y1="178.04" y2="251.09" />
<line x1="681.86" x2="681.86" y1="127.83" y2="251.09" />
<line x1="684.37" x2="684.37" y1="254.13" y2="251.09" />
<line x1="694.42" x2="694.42" y1="182.61" y2="251.09" />
<line x1="709.50" x2="709.50" y1="170.43" y2="251.09" />
<line x1="712.01" x2="712.01" y1="156.74" y2="251.09" />
<line x1="714.53" x2="714.53" y1="185.65" y2="251.09" />
<line x1="717.04" x2="717.04" y1="150.65" y2="251.09" />
<line x1="729.60" x2="729.60" y1="141.52" y2="251.09" />
<line x1="732.12" x2="732.12" y1="178.04" y2="251.09" />
<line x1="734.63" x2="734.63" y1="161.30" y2="251.09" />
<line x1="737.14" x2="737.14" y1="191.74" y2="251.09" />
<line x1="742.17" x2="742.17" y1="182.61" y2="251.09" />
<line x1="744.68" x2="744.68" y1="150.65" y2="251.09" />
<line x1="747.19" x2="747.19" y1="181.09" y2="251.09" />
<line x1="749.71" x2="749.71" y1="179.57" y2="251.09" />
<line x1="752.22" x2="752.22" y1="185.65" y2="251.09" />
<line x1="754.73" x2="754.73" y1="214.57" y2="251.09" />
<line x1="757.25" x2="757.25" y1="167.39" y2="251.09" />
<line x1="759.76" x2="759.76" y1="185.65" y2="251.09" />
<line x1="764.79" x2="764.79" y1="199.35" y2="251.09" />
<line x1="772.32" x2="772.32" y1="187.17" y2="251.09" />
<line x1="774.84" x2="774.84" y1="217.61" y2="251.09" />
<line x1="784.89" x2="784.89" y1="206.96" y2="251.09" />
<line x1="787.40" x2="787.40" y1="202.39" y2="251.09" />
<line x1="792.43" x2="792.43" y1="132.39" y2="251.09" />
<line x1="794.94" x2="794.94" y1="133.91" y2="251.09" />
<line x1="797.45" x2="797.45" y1="111.09" y2="251.09" />
<line x1="799.97" x2="799.97" y1="144.57" y2="251.09" />
<line x1="802.48" x2="802.48" y1="188.70" y2="251.09" />
<line x1="827.61" x2="827.61" y1="194.78" y2="251.09" />
<line x1="830.12" x2="830.12" y1="176.52" y2="251.09" />
<line x1="832.64" x2="832.64" y1="182.61" y2="251.09" />
<line x1="835.15" x2="835.15" y1="196.30" y2="251.09" />
<line x1="837.66" x2="837.66" y1="176.52" y2="251.09" />
<line x1="850.23" x2="850.23" y1="95.87" y2="251.09" />
<line x1="862.79" x2="862.79" y1="251.09" y2="251.09" />
<line x1="865.30" x2="865.30" y1="83.70" y2="251.09" />
<line x1="867.82" x2="867.82" y1="48.70" y2="251.09" />
<line x1="870.33" x2="870.33" y1="165.87" y2="251.09" />
<line x1="875.36" x2="875.36" y1="150.65" y2="251.09" />
<line x1="880.38" x2="880.38" y1="120.22" y2="251.09" />
<line x1="885.41" x2="885.41" y1="85.22" y2="251.09" />
<line x1="892.95" x2="892.95" y1="158.26" y2="251.09" />
<line x1="895.46" x2="895.46" y1="120.22" y2="251.09" />
<line x1="897.97" x2="897.97" y1="127.83" y2="251.09" />
<line x1="900.49" x2="900.49" y1="170.43" y2="251.09" />
<line x1="903.00" x2="903.00" y1="168.91" y2="251.09" />
<line x1="908.03" x2="908.03" y1="188.70" y2="251.09" />
<line x1="910.54" x2="910.54" y1="181.09" y2="251.09" />
<line x1="918.08" x2="918.08" y1="188.70" y2="251.09" />
<line x1="920.59" x2="920.59" y1="109.57" y2="251.09" />
<line x1="923.10" x2="923.10" y1="213.04" y2="251.09" />
<line x1="925.62" x2="925.62" y1="210.00" y2="251.09" />
<line x1="928.13" x2="928.13" y1="170.43" y2="251.09" />
<line x1="933.15" x2="933.15" y1="211.52" y2="251.09" />
<line x1="963.31" x2="963.31" y1="241.96" y2="251.09" />
<line x1="975.88" x2="975.88" y1="191.74" y2="251.09" />
<line x1="978.39" x2="978.39" y1="214.57" y2="251.09" />
<line x1="993.47" x2="993.47" y1="83.70" y2="251.09" />
<line x1="995.98" x2="995.98" y1="220.65" y2="251.09" />
<line x1="998.49" x2="998.49" y1="251.09" y2="251.09" />
</g>
<g stroke="black">
<g fill="black" font-family="Arial, sans-serif" font-size="10" stroke="none" text-anchor="middle" />
<line x1="80.00" x2="1000.00" y1="251.09" y2="251.09" />
</g>
<g stroke="black">
<g fill="black" font-family="Arial, sans-serif" font-size="10" stroke="none" text-anchor="middle" />
<line x1="80.00" x2="80.00" y1="251.09" y2="0.00" />
</g>
</g>
</g>
<text style="font-size: 30px;" x="100.00" y="23.00">2017</text>
<text x="5.00" y="150.00">d18O</text>
</g>
</svg>