<?xml version="1.0"?>
<svg height="350" version="1.1" width="1000" xmlns:xlink="http://www.w3.org/1999/xlink" xmlns="http://www.w3.org/2000/svg">
<g>
<g>
<g>
<g stroke-dasharray="1 1" stroke="#ccc">
<line x1="80.00" x2="1000.00" y1="7.61" y2="7.61" />
<line x1="80.00" x2="1000.00" y1="22.83" y2="22.83" />
<line x1="80.00" x2="1000.00" y1="38.04" y2="38.04" />
<line x1="80.00" x2="1000.00" y1="53.26" y2="53.26" />
<line x1="80.00" x2="1000.00" y1="68.48" y2="68.48" />
<line x1="80.00" x2="1000.00" y1="83.70" y2="83.70" />
<line x1="80.00" x2="1000.00" y1="98.91" y2="98.91" />
<line x1="80.00" x2="1000.00" y1="114.13" y2="114.13" />
<line x1="80.00" x2="1000.00" y1="129.35" y2="129.35" />
<line x1="80.00" x2="1000.00" y1="144.57" y2="144.57" />
<line x1="80.00" x2="1000.00" y1="159.78" y2="159.78" />
<line x1="80.00" x2="1000.00" y1="175.00" y2="175.00" />
<line x1="80.00" x2="1000.00" y1="190.22" y2="190.22" />
<line x1="80.00" x2="1000.00" y1="205.43" y2="205.43" />
<line x1="80.00" x2="1000.00" y1="220.65" y2="220.65" />
<line x1="80.00" x2="1000.00" y1="235.87" y2="235.87" />
<line x1="80.00" x2="1000.00" y1="251.09" y2="251.09" />
<line x1="80.00" x2="1000.00" y1="266.30" y2="266.30" />
<line x1="80.00" x2="1000.00" y1="281.52" y2="281.52" />
<line x1="80.00" x2="1000.00" y1="296.74" y2="296.74" />
<line x1="80.00" x2="1000.00" y1="311.96" y2="311.96" />
<line x1="80.00" x2="1000.00" y1="327.17" y2="327.17" />
<line x1="80.00" x2="1000.00" y1="342.39" y2="342.39" />
</g>
<g stroke="black">
<g fill="none" font-family="Arial, sans-serif" font-size="10" stroke="none" text-anchor="middle" />
<line x1="80.00" x2="1000.00" y1="251.09" y2="251.09" />
</g>
<g stroke="black">
<line x1="80.00" x2="70.00" y1="7.61" y2="7.61" />
<line x1="80.00" x2="70.00" y1="22.83" y2="22.83" />
<line x1="80.00" x2="70.00" y1="38.04" y2="38.04" />
<line x1="80.00" x2="70.00" y1="53.26" y2="53.26" />
<line x1="80.00" x2="70.00" y1="68.48" y2="68.48" />
<line x1="80.00" x2="70.00" y1="83.70" y2="83.70" />
<line x1="80.00" x2="70.00" y1="98.91" y2="98.91" />
<line x1="80.00" x2="70.00" y1="114.13" y2="114.13" />
<line x1="80.00" x2="70.00" y1="129.35" y2="129.35" />
<line x1="80.00" x2="70.00" y1="144.57" y2="144.57" />
<line x1="80.00" x2="70.00" y1="159.78" y2="159.78" />
<line x1="80.00" x2="70.00" y1="175.00" y2="175.00" />
<line x1="80.00" x2="70.00" y1="190.22" y2="190.22" />
<line x1="80.00" x2="70.00" y1="205.43" y2="205.43" />
<line x1="80.00" x2="70.00" y1="220.65" y2="220.65" />
<line x1="80.00" x2="70.00" y1="235.87" y2="235.87" />
<line x1="80.00" x2="70.00" y1="251.09" y2="251.09" />
<line x1="80.00" x2="70.00" y1="266.30" y2="266.30" />
<line x1="80.00" x2="70.00" y1="281.52" y2="281.52" />
<line x1="80.00" x2="70.00" y1="296.74" y2="296.74" />
<line x1="80.00" x2="70.00" y1="311.96" y2="311.96" />
<line x1="80.00" x2="70.00" y1="327.17" y2="327.17" />
<line x1="80.00" x2="70.00" y1="342.39" y2="342.39" />
<g fill="black" font-family="Arial, sans-serif" font-size="10" stroke="none" text-anchor="middle">
<text x="60.00" y="7.61">-16.00</text>
<text x="60.00" y="22.83">-15.00</text>
<text x="60.00" y="38.04">-14.00</text>
<text x="60.00" y="53.26">-13.00</text>
<text x="60.00" y="68.48">-12.00</text>
<text x="60.00" y="83.70">-11.00</text>
<text x="60.00" y="98.91">-10.00</text>
<text x="60.00" y="114.13">-9.00</text>
<text x="60.00" y="129.35">-8.00</text>
<text x="60.00" y="144.57">-7.00</text>
<text x="60.00" y="159.78">-6.00</text>
<text x="60.00" y="175.00">-5.00</text>
<text x="60.00" y="190.22">-4.00</text>
<text x="60.00" y="205.43">-3.00</text>
<text x="60.00" y="220.65">-2.00</text>
<text x="60.00" y="235.87">-1.00</text>
<text x="60.00" y="251.09">0.00</text>
<text x="60.00" y="266.30">1.00</text>
<text x="60.00" y="281.52">2.00</text>
<text x="60.00" y="296.74">3.00</text>
<text x="60.00" y="311.96">4.00</text>
<text x="60.00" y="327.17">5.00</text>
<text x="60.00" y="342.39">6.00</text>
</g>
<line x1="80.00" x2="80.00" y1="0.00" y2="350.00" />
</g>
</g>
<g>
<g stroke-dasharray="1 1" stroke="#ccc">
</g>
<g stroke-width="1.887308533916849" stroke="#ffb2b0">
<line x1="83.77" x2="83.77" y1="281.52" y2="251.09" />
<line x1="91.31" x2="91.31" y1="199.35" y2="251.09" />
<line x1="98.85" x2="98.85" y1="182.61" y2="251.09" />
<line x1="101.36" x2="101.36" y1="140.00" y2="251.09" />
<line x1="106.39" x2="106.39" y1="165.87" y2="251.09" />
<line x1="108.90" x2="108.90" y1="175.00" y2="251.09" />
<line x1="111.41" x2="111.41" y1="206.96" y2="251.09" />
<line x1="121.46" x2="121.46" y1="197.83" y2="251.09" />
<line x1="123.98" x2="123.98" y1="196.30" y2="251.09" />
<line x1="129.00" x2="129.00" y1="156.74" y2="251.09" />
<line x1="131.52" x2="131.52" y1="112.61" y2="251.09" />
<line x1="134.03" x2="134.03" y1="168.91" y2="251.09" />
<line x1="136.54" x2="136.54" y1="251.09" y2="251.09" />
<line x1="139.05" x2="139.05" y1="118.70" y2="251.09" />
<line x1="141.57" x2="141.57" y1="141.52" y2="251.09" />
<line x1="151.62" x2="151.62" y1="168.91" y2="251.09" />
<line x1="154.13" x2="154.13" y1="251.09" y2="251.09" />
<line x1="159.16" x2="159.16" y1="193.26" y2="251.09" />
<line x1="206.91" x2="206.91" y1="158.26" y2="251.09" />
<line x1="216.96" x2="216.96" y1="202.39" y2="251.09" />
<line x1="247.11" x2="247.11" y1="200.65" y2="251.09" />
<line x1="269.73" x2="269.73" y1="220.81" y2="251.09" />
<line x1="274.76" x2="274.76" y1="182.35" y2="251.09" />
<line x1="287.32" x2="287.32" y1="215.50" y2="251.09" />
<line x1="289.83" x2="289.83" y1="236.10" y2="251.09" />
<line x1="299.89" x2="299.89" y1="242.90" y2="251.09" />
<line x1="304.91" x2="304.91" y1="232.78" y2="251.09" />
<line x1="307.42" x2="307.42" y1="195.80" y2="251.09" />
<line x1="309.94" x2="309.94" y1="201.28" y2="251.09" />
<line x1="312.45" x2="312.45" y1="226.49" y2="251.09" />
<line x1="314.96" x2="314.96" y1="239.25" y2="251.09" />
<line x1="322.50" x2="322.50" y1="253.93" y2="251.09" />
<line x1="332.55" x2="332.55" y1="243.25" y2="251.09" />
<line x1="355.17" x2="355.17" y1="297.90" y2="251.09" />
<line x1="357.68" x2="357.68" y1="251.09" y2="251.09" />
<line x1="362.71" x2="362.71" y1="232.45" y2="251.09" />
<line x1="370.25" x2="370.25" y1="188.22" y2="251.09" />
<line x1="372.76" x2="372.76" y1="122.54" y2="251.09" />
<line x1="375.27" x2="375.27" y1="118.76" y2="251.09" />
<line x1="380.30" x2="380.30" y1="142.09" y2="251.09" />
<line x1="385.33" x2="385.33" y1="154.12" y2="251.09" />
<line x1="387.84" x2="387.84" y1="205.69" y2="251.09" />
<line x1="390.35" x2="390.35" y1="140.25" y2="251.09" />
<line x1="395.38" x2="395.38" y1="182.47" y2="251.09" />
<line x1="400.40" x2="400.40" y1="200.69" y2="251.09" />
<line x1="405.43" x2="405.43" y1="204.12" y2="251.09" />
<line x1="407.94" x2="407.94" y1="169.52" y2="251.09" />
<line x1="412.97" x2="412.97" y1="174.60" y2="251.09" />
<line x1="415.48" x2="415.48" y1="175.68" y2="251.09" />
<line x1="420.51" x2="420.51" y1="211.85" y2="251.09" />
<line x1="423.02" x2="423.02" y1="175.08" y2="251.09" />
<line x1="425.53" x2="425.53" y1="177.51" y2="251.09" />
<line x1="428.05" x2="428.05" y1="155.98" y2="251.09" />
<line x1="433.07" x2="433.07" y1="177.41" y2="251.09" />
<line x1="435.59" x2="435.59" y1="196.25" y2="251.09" />
<line x1="438.10" x2="438.10" y1="178.06" y2="251.09" />
<line x1="440.61" x2="440.61" y1="192.86" y2="251.09" />
<line x1="443.12" x2="443.12" y1="147.50" y2="251.09" />
<line x1="445.64" x2="445.64" y1="84.37" y2="251.09" />
<line x1="448.15" x2="448.15" y1="97.14" y2="251.09" />
<line x1="453.18" x2="453.18" y1="164.72" y2="251.09" />
<line x1="455.69" x2="455.69" y1="160.27" y2="251.09" />
<line x1="463.23" x2="463.23" y1="208.80" y2="251.09" />
<line x1="468.25" x2="468.25" y1="219.22" y2="251.09" />
<line x1="473.28" x2="473.28" y1="155.92" y2="251.09" />
<line x1="480.82" x2="480.82" y1="235.91" y2="251.09" />
<line x1="483.33" x2="483.33" y1="212.77" y2="251.09" />
<line x1="488.36" x2="488.36" y1="145.93" y2="251.09" />
<line x1="498.41" x2="498.41" y1="251.09" y2="251.09" />
<line x1="500.92" x2="500.92" y1="196.87" y2="251.09" />
<line x1="503.44" x2="503.44" y1="199.76" y2="251.09" />
<line x1="505.95" x2="505.95" y1="178.92" y2="251.09" />
<line x1="508.46" x2="508.46" y1="185.73" y2="251.09" />
<line x1="510.98" x2="510.98" y1="196.13" y2="251.09" />
<line x1="521.03" x2="521.03" y1="236.55" y2="251.09" />
<line x1="523.54" x2="523.54" y1="243.88" y2="251.09" />
<line x1="526.05" x2="526.05" y1="211.13" y2="251.09" />
<line x1="531.08" x2="531.08" y1="210.80" y2="251.09" />
<line x1="546.16" x2="546.16" y1="184.01" y2="251.09" />
<line x1="548.67" x2="548.67" y1="162.74" y2="251.09" />
<line x1="556.21" x2="556.21" y1="235.84" y2="251.09" />
<line x1="558.72" x2="558.72" y1="251.09" y2="251.09" />
<line x1="561.23" x2="561.23" y1="192.94" y2="251.09" />
<line x1="563.75" x2="563.75" y1="209.68" y2="251.09" />
<line x1="568.77" x2="568.77" y1="219.47" y2="251.09" />
<line x1="571.29" x2="571.29" y1="255.39" y2="251.09" />
<line x1="576.31" x2="576.31" y1="237.96" y2="251.09" />
<line x1="578.83" x2="578.83" y1="227.92" y2="251.09" />
<line x1="581.34" x2="581.34" y1="251.09" y2="251.09" />
<line x1="583.85" x2="583.85" y1="194.78" y2="251.09" />
<line x1="586.36" x2="586.36" y1="226.74" y2="251.09" />
<line x1="588.88" x2="588.88" y1="236.50" y2="251.09" />
<line x1="601.44" x2="601.44" y1="229.80" y2="251.09" />
<line x1="603.96" x2="603.96" y1="203.31" y2="251.09" />
<line x1="606.47" x2="606.47" y1="138.71" y2="251.09" />
<line x1="608.98" x2="608.98" y1="232.91" y2="251.09" />
<line x1="611.49" x2="611.49" y1="185.52" y2="251.09" />
<line x1="624.06" x2="624.06" y1="229.20" y2="251.09" />
<line x1="626.57" x2="626.57" y1="222.24" y2="251.09" />
<line x1="629.08" x2="629.08" y1="229.74" y2="251.09" />
<line x1="631.60" x2="631.60" y1="236.28" y2="251.09" />
<line x1="634.11" x2="634.11" y1="231.03" y2="251.09" />
<line x1="636.62" x2="636.62" y1="230.16" y2="251.09" />
<line x1="639.14" x2="639.14" y1="226.18" y2="251.09" />
<line x1="654.21" x2="654.21" y1="207.38" y2="251.09" />
<line x1="656.73" x2="656.73" y1="251.09" y2="251.09" />
<line x1="659.24" x2="659.24" y1="221.14" y2="251.09" />
<line x1="661.75" x2="661.75" y1="251.09" y2="251.09" />
<line x1="664.27" x2="664.27" y1="201.61" y2="251.09" />
<line x1="666.78" x2="666.78" y1="207.59" y2="251.09" />
<line x1="669.29" x2="669.29" y1="215.33" y2="251.09" />
<line x1="671.81" x2="671.81" y1="179.02" y2="251.09" />
<line x1="674.32" x2="674.32" y1="213.31" y2="251.09" />
<line x1="676.83" x2="676.83" y1="204.17" y2="251.09" />
<line x1="681.86" x2="681.86" y1="236.53" y2="251.09" />
<line x1="689.40" x2="689.40" y1="232.04" y2="251.09" />
<line x1="694.42" x2="694.42" y1="238.91" y2="251.09" />
<line x1="699.45" x2="699.45" y1="251.09" y2="251.09" />
<line x1="701.96" x2="701.96" y1="200.25" y2="251.09" />
<line x1="704.47" x2="704.47" y1="229.19" y2="251.09" />
<line x1="714.53" x2="714.53" y1="213.01" y2="251.09" />
<line x1="717.04" x2="717.04" y1="298.18" y2="251.09" />
<line x1="719.55" x2="719.55" y1="241.87" y2="251.09" />
<line x1="724.58" x2="724.58" y1="186.81" y2="251.09" />
<line x1="727.09" x2="727.09" y1="163.75" y2="251.09" />
<line x1="729.60" x2="729.60" y1="175.41" y2="251.09" />
<line x1="732.12" x2="732.12" y1="183.78" y2="251.09" />
<line x1="734.63" x2="734.63" y1="180.88" y2="251.09" />
<line x1="737.14" x2="737.14" y1="136.51" y2="251.09" />
<line x1="739.66" x2="739.66" y1="168.50" y2="251.09" />
<line x1="744.68" x2="744.68" y1="192.86" y2="251.09" />
<line x1="749.71" x2="749.71" y1="145.46" y2="251.09" />
<line x1="754.73" x2="754.73" y1="193.17" y2="251.09" />
<line x1="757.25" x2="757.25" y1="160.07" y2="251.09" />
<line x1="762.27" x2="762.27" y1="146.75" y2="251.09" />
<line x1="767.30" x2="767.30" y1="181.38" y2="251.09" />
<line x1="769.81" x2="769.81" y1="181.65" y2="251.09" />
<line x1="772.32" x2="772.32" y1="158.47" y2="251.09" />
<line x1="774.84" x2="774.84" y1="109.10" y2="251.09" />
<line x1="777.35" x2="777.35" y1="99.50" y2="251.09" />
<line x1="779.86" x2="779.86" y1="139.30" y2="251.09" />
<line x1="782.38" x2="782.38" y1="184.54" y2="251.09" />
<line x1="787.40" x2="787.40" y1="112.91" y2="251.09" />
<line x1="789.92" x2="789.92" y1="140.29" y2="251.09" />
<line x1="792.43" x2="792.43" y1="184.19" y2="251.09" />
<line x1="794.94" x2="794.94" y1="188.64" y2="251.09" />
<line x1="797.45" x2="797.45" y1="205.76" y2="251.09" />
<line x1="799.97" x2="799.97" y1="183.15" y2="251.09" />
<line x1="804.99" x2="804.99" y1="251.09" y2="251.09" />
<line x1="807.51" x2="807.51" y1="160.79" y2="251.09" />
<line x1="817.56" x2="817.56" y1="123.64" y2="251.09" />
<line x1="820.07" x2="820.07" y1="197.95" y2="251.09" />
<line x1="822.58" x2="822.58" y1="258.01" y2="251.09" />
<line x1="827.61" x2="827.61" y1="118.06" y2="251.09" />
<line x1="830.12" x2="830.12" y1="137.70" y2="251.09" />
<line x1="832.64" x2="832.64" y1="123.61" y2="251.09" />
<line x1="852.74" x2="852.74" y1="211.50" y2="251.09" />
<line x1="857.77" x2="857.77" y1="163.51" y2="251.09" />
<line x1="862.79" x2="862.79" y1="200.00" y2="251.09" />
<line x1="867.82" x2="867.82" y1="65.17" y2="251.09" />
<line x1="877.87" x2="877.87" y1="209.56" y2="251.09" />
<line x1="880.38" x2="880.38" y1="198.63" y2="251.09" />
<line x1="882.90" x2="882.90" y1="157.16" y2="251.09" />
<line x1="885.41" x2="885.41" y1="184.18" y2="251.09" />
<line x1="887.92" x2="887.92" y1="109.68" y2="251.09" />
<line x1="890.43" x2="890.43" y1="251.09" y2="251.09" />
<line x1="892.95" x2="892.95" y1="217.10" y2="251.09" />
<line x1="895.46" x2="895.46" y1="233.58" y2="251.09" />
<line x1="897.97" x2="897.97" y1="233.76" y2="251.09" />
<line x1="900.49" x2="900.49" y1="188.89" y2="251.09" />
<line x1="913.05" x2="913.05" y1="188.46" y2="251.09" />
<line x1="915.56" x2="915.56" y1="251.09" y2="251.09" />
<line x1="925.62" x2="925.62" y1="194.41" y2="251.09" />
<line x1="928.13" x2="928.13" y1="198.42" y2="251.09" />
<line x1="930.64" x2="930.64" y1="208.45" y2="251.09" />
<line x1="935.67" x2="935.67" y1="143.92" y2="251.09" />
<line x1="940.69" x2="940.69" y1="191.97" y2="251.09" />
<line x1="945.72" x2="945.72" y1="176.05" y2="251.09" />
<line x1="948.23" x2="948.23" y1="251.09" y2="251.09" />
<line x1="953.26" x2="953.26" y1="218.58" y2="251.09" />
<line x1="958.28" x2="958.28" y1="198.47" y2="251.09" />
<line x1="960.80" x2="960.80" y1="151.23" y2="251.09" />
<line x1="963.31" x2="963.31" y1="211.92" y2="251.09" />
<line x1="965.82" x2="965.82" y1="212.34" y2="251.09" />
<line x1="968.34" x2="968.34" y1="220.03" y2="251.09" />
<line x1="973.36" x2="973.36" y1="214.11" y2="251.09" />
<line x1="978.39" x2="978.39" y1="230.41" y2="251.09" />
<line x1="980.90" x2="980.90" y1="200.48" y2="251.09" />
<line x1="983.41" x2="983.41" y1="251.09" y2="251.09" />
</g>
<g stroke="black">
<g fill="black" font-family="Arial, sans-serif" font-size="10" stroke="none" text-anchor="middle" />
<line x1="80.00" x2="1000.00" y1="251.09" y2="251.09" />
</g>
<g stroke="black">
<g fill="black" font-family="Arial, sans-serif" font-size="10" stroke="none" text-anchor="middle" />
<line x1="80.00" x2="80.00" y1="251.09" y2="0.00" />
</g>
</g>
</g>
<text style="font-size: 30px;" x="100.00" y="23.00">2018</text>
<text x="5.00" y="150.00">d18O</text>
</g>
</svg>