<?xml version="1.0"?>
<svg height="3.200000000000003" version="1.1" viewBox="0 0 4.799999999999983 3.200000000000003" width="4.799999999999983" xmlns:xlink="http://www.w3.org/1999/xlink" xmlns="http://www.w3.org/2000/svg">
<g>
<g transform="matrix(1.00,0.00,0.00,1.00,0.00,0.00)">
<g>
<g transform="matrix(1.00,0.00,0.00,1.00,0.00,0.00)">
<svg height="0.8000000000000007" version="1.1" viewBox="0 0 1.5999999999999943 0.8000000000000007" width="1.5999999999999943" xmlns:xlink="http://www.w3.org/1999/xlink" xmlns="http://www.w3.org/2000/svg">
<g>
<g>
<g>
<polygon fill="#afafaf" points="0.00,-0.00 0.20,-0.00 0.20,0.16 0.00,0.16" />
<polygon fill="#a8a8a8" points="0.20,-0.00 0.40,-0.00 0.40,0.16 0.20,0.16" />
<polygon fill="#b1b1b1" points="0.40,-0.00 0.60,-0.00 0.60,0.16 0.40,0.16" />
<polygon fill="#bdbdbd" points="0.60,-0.00 0.80,-0.00 0.80,0.16 0.60,0.16" />
<polygon fill="#bdbdbd" points="0.80,-0.00 1.00,-0.00 1.00,0.16 0.80,0.16" />
<polygon fill="#b0b0b0" points="1.00,-0.00 1.20,-0.00 1.20,0.16 1.00,0.16" />
<polygon fill="#acacac" points="1.20,-0.00 1.40,-0.00 1.40,0.16 1.20,0.16" />
<polygon fill="#b4b4b4" points="1.40,-0.00 1.60,-0.00 1.60,0.16 1.40,0.16" />
<polygon fill="#404040" points="0.00,0.16 0.20,0.16 0.20,0.32 0.00,0.32" />
<polygon fill="#373737" points="0.20,0.16 0.40,0.16 0.40,0.32 0.20,0.32" />
<polygon fill="#bcbcbc" points="0.40,0.16 0.60,0.16 0.60,0.32 0.40,0.32" />
<polygon fill="#c7c7c7" points="0.60,0.16 0.80,0.16 0.80,0.32 0.60,0.32" />
<polygon fill="#c6c6c6" points="0.80,0.16 1.00,0.16 1.00,0.32 0.80,0.32" />
<polygon fill="#bababa" points="1.00,0.16 1.20,0.16 1.20,0.32 1.00,0.32" />
<polygon fill="#b7b7b7" points="1.20,0.16 1.40,0.16 1.40,0.32 1.20,0.32" />
<polygon fill="#c2c2c2" points="1.40,0.16 1.60,0.16 1.60,0.32 1.40,0.32" />
<polygon fill="#4d4d4d" points="0.00,0.32 0.20,0.32 0.20,0.48 0.00,0.48" />
<polygon fill="#454545" points="0.20,0.32 0.40,0.32 0.40,0.48 0.20,0.48" />
<polygon fill="#494949" points="0.40,0.32 0.60,0.32 0.60,0.48 0.40,0.48" />
<polygon fill="#d0d0d0" points="0.60,0.32 0.80,0.32 0.80,0.48 0.60,0.48" />
<polygon fill="#cecece" points="0.80,0.32 1.00,0.32 1.00,0.48 0.80,0.48" />
<polygon fill="#c4c4c4" points="1.00,0.32 1.20,0.32 1.20,0.48 1.00,0.48" />
<polygon fill="#c4c4c4" points="1.20,0.32 1.40,0.32 1.40,0.48 1.20,0.48" />
<polygon fill="#d1d1d1" points="1.40,0.32 1.60,0.32 1.60,0.48 1.40,0.48" />
<polygon fill="#515151" points="0.00,0.48 0.20,0.48 0.20,0.64 0.00,0.64" />
<polygon fill="#4e4e4e" points="0.20,0.48 0.40,0.48 0.40,0.64 0.20,0.64" />
<polygon fill="#4b4b4b" points="0.40,0.48 0.60,0.48 0.60,0.64 0.40,0.64" />
<polygon fill="#c7c7c7" points="0.60,0.48 0.80,0.48 0.80,0.64 0.60,0.64" />
<polygon fill="#c4c4c4" points="0.80,0.48 1.00,0.48 1.00,0.64 0.80,0.64" />
<polygon fill="#c2c2c2" points="1.00,0.48 1.20,0.48 1.20,0.64 1.00,0.64" />
<polygon fill="#cccccc" points="1.20,0.48 1.40,0.48 1.40,0.64 1.20,0.64" />
<polygon fill="#e0e0e0" points="1.40,0.48 1.60,0.48 1.60,0.64 1.40,0.64" />
<polygon fill="#494949" points="0.00,0.64 0.20,0.64 0.20,0.80 0.00,0.80" />
<polygon fill="#4d4d4d" points="0.20,0.64 0.40,0.64 0.40,0.80 0.20,0.80" />
<polygon fill="#444444" points="0.40,0.64 0.60,0.64 0.60,0.80 0.40,0.80" />
<polygon fill="#b7b7b7" points="0.60,0.64 0.80,0.64 0.80,0.80 0.60,0.80" />
<polygon fill="#b4b4b4" points="0.80,0.64 1.00,0.64 1.00,0.80 0.80,0.80" />
<polygon fill="#bcbcbc" points="1.00,0.64 1.20,0.64 1.20,0.80 1.00,0.80" />
<polygon fill="#d0d0d0" points="1.20,0.64 1.40,0.64 1.40,0.80 1.20,0.80" />
<polygon fill="#e4e4e4" points="1.40,0.64 1.60,0.64 1.60,0.80 1.40,0.80" />
</g>
</g>
<g>
<polyline fill="none" points="0.17,0.80 0.33,0.47 0.74,0.34 0.74,0.25 0.87,0.20 1.04,0.37 1.22,0.37 1.30,0.49 1.12,0.64 1.14,0.80 0.17,0.80" stroke-width="0.05px" stroke="black" />
</g>
<circle cx="0.80" cy="0.50" fill="#9999EA" r="0.008000000000000007" />
</g>
</svg>
</g>
<g transform="matrix(1.00,0.00,0.00,1.00,1.60,0.00)">
<svg height="0.8000000000000007" version="1.1" viewBox="0 0 1.5999999999999943 0.8000000000000007" width="1.5999999999999943" xmlns:xlink="http://www.w3.org/1999/xlink" xmlns="http://www.w3.org/2000/svg">
<g>
<g>
<g>
<polygon fill="#bfbfbf" points="0.00,-0.00 0.20,-0.00 0.20,0.16 0.00,0.16" />
<polygon fill="#b6b6b6" points="0.20,-0.00 0.40,-0.00 0.40,0.16 0.20,0.16" />
<polygon fill="#bbbbbb" points="0.40,-0.00 0.60,-0.00 0.60,0.16 0.40,0.16" />
<polygon fill="#464646" points="0.60,-0.00 0.80,-0.00 0.80,0.16 0.60,0.16" />
<polygon fill="#454545" points="0.80,-0.00 1.00,-0.00 1.00,0.16 0.80,0.16" />
<polygon fill="#383838" points="1.00,-0.00 1.20,-0.00 1.20,0.16 1.00,0.16" />
<polygon fill="#363636" points="1.20,-0.00 1.40,-0.00 1.40,0.16 1.20,0.16" />
<polygon fill="#424242" points="1.40,-0.00 1.60,-0.00 1.60,0.16 1.40,0.16" />
<polygon fill="#bababa" points="0.00,0.16 0.20,0.16 0.20,0.32 0.00,0.32" />
<polygon fill="#b2b2b2" points="0.20,0.16 0.40,0.16 0.40,0.32 0.20,0.32" />
<polygon fill="#b4b4b4" points="0.40,0.16 0.60,0.16 0.60,0.32 0.40,0.32" />
<polygon fill="#3a3a3a" points="0.60,0.16 0.80,0.16 0.80,0.32 0.60,0.32" />
<polygon fill="#373737" points="0.80,0.16 1.00,0.16 1.00,0.32 0.80,0.32" />
<polygon fill="#2d2d2d" points="1.00,0.16 1.20,0.16 1.20,0.32 1.00,0.32" />
<polygon fill="#323232" points="1.20,0.16 1.40,0.16 1.40,0.32 1.20,0.32" />
<polygon fill="#484848" points="1.40,0.16 1.60,0.16 1.60,0.32 1.40,0.32" />
<polygon fill="#b0b0b0" points="0.00,0.32 0.20,0.32 0.20,0.48 0.00,0.48" />
<polygon fill="#afafaf" points="0.20,0.32 0.40,0.32 0.40,0.48 0.20,0.48" />
<polygon fill="#afafaf" points="0.40,0.32 0.60,0.32 0.60,0.48 0.40,0.48" />
<polygon fill="#b0b0b0" points="0.60,0.32 0.80,0.32 0.80,0.48 0.60,0.48" />
<polygon fill="#303030" points="0.80,0.32 1.00,0.32 1.00,0.48 0.80,0.48" />
<polygon fill="#2f2f2f" points="1.00,0.32 1.20,0.32 1.20,0.48 1.00,0.48" />
<polygon fill="#3b3b3b" points="1.20,0.32 1.40,0.32 1.40,0.48 1.20,0.48" />
<polygon fill="#535353" points="1.40,0.32 1.60,0.32 1.60,0.48 1.40,0.48" />
<polygon fill="#afafaf" points="0.00,0.48 0.20,0.48 0.20,0.64 0.00,0.64" />
<polygon fill="#b6b6b6" points="0.20,0.48 0.40,0.48 0.40,0.64 0.20,0.64" />
<polygon fill="#b4b4b4" points="0.40,0.48 0.60,0.48 0.60,0.64 0.40,0.64" />
<polygon fill="#b1b1b1" points="0.60,0.48 0.80,0.48 0.80,0.64 0.60,0.64" />
<polygon fill="#b3b3b3" points="0.80,0.48 1.00,0.48 1.00,0.64 0.80,0.64" />
<polygon fill="#3c3c3c" points="1.00,0.48 1.20,0.48 1.20,0.64 1.00,0.64" />
<polygon fill="#4a4a4a" points="1.20,0.48 1.40,0.48 1.40,0.64 1.20,0.64" />
<polygon fill="#575757" points="1.40,0.48 1.60,0.48 1.60,0.64 1.40,0.64" />
<polygon fill="#bababa" points="0.00,0.64 0.20,0.64 0.20,0.80 0.00,0.80" />
<polygon fill="#c3c3c3" points="0.20,0.64 0.40,0.64 0.40,0.80 0.20,0.80" />
<polygon fill="#bfbfbf" points="0.40,0.64 0.60,0.64 0.60,0.80 0.40,0.80" />
<polygon fill="#b6b6b6" points="0.60,0.64 0.80,0.64 0.80,0.80 0.60,0.80" />
<polygon fill="#b8b8b8" points="0.80,0.64 1.00,0.64 1.00,0.80 0.80,0.80" />
<polygon fill="#464646" points="1.00,0.64 1.20,0.64 1.20,0.80 1.00,0.80" />
<polygon fill="#515151" points="1.20,0.64 1.40,0.64 1.40,0.80 1.20,0.80" />
<polygon fill="#525252" points="1.40,0.64 1.60,0.64 1.60,0.80 1.40,0.80" />
</g>
</g>
<g>
<polyline fill="none" points="0.17,0.80 0.33,0.47 0.74,0.34 0.74,0.25 0.87,0.20 1.04,0.37 1.22,0.37 1.30,0.49 1.12,0.64 1.14,0.80 0.17,0.80" stroke-width="0.05px" stroke="black" />
</g>
<circle cx="0.80" cy="0.50" fill="#9999EA" r="0.008000000000000007" />
</g>
</svg>
</g>
<g transform="matrix(1.00,0.00,0.00,1.00,3.20,0.00)">
<svg height="0.8000000000000007" version="1.1" viewBox="0 0 1.5999999999999943 0.8000000000000007" width="1.5999999999999943" xmlns:xlink="http://www.w3.org/1999/xlink" xmlns="http://www.w3.org/2000/svg">
<g>
<g>
<g>
<polygon fill="#b6b6b6" points="0.00,-0.00 0.20,-0.00 0.20,0.16 0.00,0.16" />
<polygon fill="#b4b4b4" points="0.20,-0.00 0.40,-0.00 0.40,0.16 0.20,0.16" />
<polygon fill="#b0b0b0" points="0.40,-0.00 0.60,-0.00 0.60,0.16 0.40,0.16" />
<polygon fill="#aeaeae" points="0.60,-0.00 0.80,-0.00 0.80,0.16 0.60,0.16" />
<polygon fill="#afafaf" points="0.80,-0.00 1.00,-0.00 1.00,0.16 0.80,0.16" />
<polygon fill="#b1b1b1" points="1.00,-0.00 1.20,-0.00 1.20,0.16 1.00,0.16" />
<polygon fill="#adadad" points="1.20,-0.00 1.40,-0.00 1.40,0.16 1.20,0.16" />
<polygon fill="#aaaaaa" points="1.40,-0.00 1.60,-0.00 1.60,0.16 1.40,0.16" />
<polygon fill="#bfbfbf" points="0.00,0.16 0.20,0.16 0.20,0.32 0.00,0.32" />
<polygon fill="#b5b5b5" points="0.20,0.16 0.40,0.16 0.40,0.32 0.20,0.32" />
<polygon fill="#aaaaaa" points="0.40,0.16 0.60,0.16 0.60,0.32 0.40,0.32" />
<polygon fill="#a6a6a6" points="0.60,0.16 0.80,0.16 0.80,0.32 0.60,0.32" />
<polygon fill="#ababab" points="0.80,0.16 1.00,0.16 1.00,0.32 0.80,0.32" />
<polygon fill="#b2b2b2" points="1.00,0.16 1.20,0.16 1.20,0.32 1.00,0.32" />
<polygon fill="#b2b2b2" points="1.20,0.16 1.40,0.16 1.40,0.32 1.20,0.32" />
<polygon fill="#afafaf" points="1.40,0.16 1.60,0.16 1.60,0.32 1.40,0.32" />
<polygon fill="#c8c8c8" points="0.00,0.32 0.20,0.32 0.20,0.48 0.00,0.48" />
<polygon fill="#b9b9b9" points="0.20,0.32 0.40,0.32 0.40,0.48 0.20,0.48" />
<polygon fill="#a8a8a8" points="0.40,0.32 0.60,0.32 0.60,0.48 0.40,0.48" />
<polygon fill="#a6a6a6" points="0.60,0.32 0.80,0.32 0.80,0.48 0.60,0.48" />
<polygon fill="#b2b2b2" points="0.80,0.32 1.00,0.32 1.00,0.48 0.80,0.48" />
<polygon fill="#bdbdbd" points="1.00,0.32 1.20,0.32 1.20,0.48 1.00,0.48" />
<polygon fill="#bfbfbf" points="1.20,0.32 1.40,0.32 1.40,0.48 1.20,0.48" />
<polygon fill="#b8b8b8" points="1.40,0.32 1.60,0.32 1.60,0.48 1.40,0.48" />
<polygon fill="#c4c4c4" points="0.00,0.48 0.20,0.48 0.20,0.64 0.00,0.64" />
<polygon fill="#b3b3b3" points="0.20,0.48 0.40,0.48 0.40,0.64 0.20,0.64" />
<polygon fill="#a3a3a3" points="0.40,0.48 0.60,0.48 0.60,0.64 0.40,0.64" />
<polygon fill="#a6a6a6" points="0.60,0.48 0.80,0.48 0.80,0.64 0.60,0.64" />
<polygon fill="#b7b7b7" points="0.80,0.48 1.00,0.48 1.00,0.64 0.80,0.64" />
<polygon fill="#c5c5c5" points="1.00,0.48 1.20,0.48 1.20,0.64 1.00,0.64" />
<polygon fill="#c7c7c7" points="1.20,0.48 1.40,0.48 1.40,0.64 1.20,0.64" />
<polygon fill="#bdbdbd" points="1.40,0.48 1.60,0.48 1.60,0.64 1.40,0.64" />
<polygon fill="#b7b7b7" points="0.00,0.64 0.20,0.64 0.20,0.80 0.00,0.80" />
<polygon fill="#a8a8a8" points="0.20,0.64 0.40,0.64 0.40,0.80 0.20,0.80" />
<polygon fill="#9c9c9c" points="0.40,0.64 0.60,0.64 0.60,0.80 0.40,0.80" />
<polygon fill="#a4a4a4" points="0.60,0.64 0.80,0.64 0.80,0.80 0.60,0.80" />
<polygon fill="#b7b7b7" points="0.80,0.64 1.00,0.64 1.00,0.80 0.80,0.80" />
<polygon fill="#c5c5c5" points="1.00,0.64 1.20,0.64 1.20,0.80 1.00,0.80" />
<polygon fill="#c7c7c7" points="1.20,0.64 1.40,0.64 1.40,0.80 1.20,0.80" />
<polygon fill="#bcbcbc" points="1.40,0.64 1.60,0.64 1.60,0.80 1.40,0.80" />
</g>
</g>
<g>
<polyline fill="none" points="0.17,0.80 0.33,0.47 0.74,0.34 0.74,0.25 0.87,0.20 1.04,0.37 1.22,0.37 1.30,0.49 1.12,0.64 1.14,0.80 0.17,0.80" stroke-width="0.05px" stroke="black" />
</g>
<circle cx="0.80" cy="0.50" fill="#9999EA" r="0.008000000000000007" />
</g>
</svg>
</g>
</g>
</g>
<g transform="matrix(1.00,0.00,0.00,1.00,0.00,0.80)">
<g>
<g transform="matrix(1.00,0.00,0.00,1.00,0.00,0.00)">
<svg height="0.8000000000000007" version="1.1" viewBox="0 0 1.5999999999999943 0.8000000000000007" width="1.5999999999999943" xmlns:xlink="http://www.w3.org/1999/xlink" xmlns="http://www.w3.org/2000/svg">
<g>
<g>
<g>
<polygon fill="#c8c8c8" points="0.00,-0.00 0.20,-0.00 0.20,0.16 0.00,0.16" />
<polygon fill="#bababa" points="0.20,-0.00 0.40,-0.00 0.40,0.16 0.20,0.16" />
<polygon fill="#ababab" points="0.40,-0.00 0.60,-0.00 0.60,0.16 0.40,0.16" />
<polygon fill="#a9a9a9" points="0.60,-0.00 0.80,-0.00 0.80,0.16 0.60,0.16" />
<polygon fill="#b2b2b2" points="0.80,-0.00 1.00,-0.00 1.00,0.16 0.80,0.16" />
<polygon fill="#bbbbbb" points="1.00,-0.00 1.20,-0.00 1.20,0.16 1.00,0.16" />
<polygon fill="#c6c6c6" points="1.20,-0.00 1.40,-0.00 1.40,0.16 1.20,0.16" />
<polygon fill="#cdcdcd" points="1.40,-0.00 1.60,-0.00 1.60,0.16 1.40,0.16" />
<polygon fill="#515151" points="0.00,0.16 0.20,0.16 0.20,0.32 0.00,0.32" />
<polygon fill="#4b4b4b" points="0.20,0.16 0.40,0.16 0.40,0.32 0.20,0.32" />
<polygon fill="#c5c5c5" points="0.40,0.16 0.60,0.16 0.60,0.32 0.40,0.32" />
<polygon fill="#c3c3c3" points="0.60,0.16 0.80,0.16 0.80,0.32 0.60,0.32" />
<polygon fill="#c3c3c3" points="0.80,0.16 1.00,0.16 1.00,0.32 0.80,0.32" />
<polygon fill="#c1c1c1" points="1.00,0.16 1.20,0.16 1.20,0.32 1.00,0.32" />
<polygon fill="#c3c3c3" points="1.20,0.16 1.40,0.16 1.40,0.32 1.20,0.32" />
<polygon fill="#c6c6c6" points="1.40,0.16 1.60,0.16 1.60,0.32 1.40,0.32" />
<polygon fill="#4e4e4e" points="0.00,0.32 0.20,0.32 0.20,0.48 0.00,0.48" />
<polygon fill="#4f4f4f" points="0.20,0.32 0.40,0.32 0.40,0.48 0.20,0.48" />
<polygon fill="#565656" points="0.40,0.32 0.60,0.32 0.60,0.48 0.40,0.48" />
<polygon fill="#d7d7d7" points="0.60,0.32 0.80,0.32 0.80,0.48 0.60,0.48" />
<polygon fill="#cfcfcf" points="0.80,0.32 1.00,0.32 1.00,0.48 0.80,0.48" />
<polygon fill="#c4c4c4" points="1.00,0.32 1.20,0.32 1.20,0.48 1.00,0.48" />
<polygon fill="#bfbfbf" points="1.20,0.32 1.40,0.32 1.40,0.48 1.20,0.48" />
<polygon fill="#c1c1c1" points="1.40,0.32 1.60,0.32 1.60,0.48 1.40,0.48" />
<polygon fill="#414141" points="0.00,0.48 0.20,0.48 0.20,0.64 0.00,0.64" />
<polygon fill="#454545" points="0.20,0.48 0.40,0.48 0.40,0.64 0.20,0.64" />
<polygon fill="#4f4f4f" points="0.40,0.48 0.60,0.48 0.60,0.64 0.40,0.64" />
<polygon fill="#d1d1d1" points="0.60,0.48 0.80,0.48 0.80,0.64 0.60,0.64" />
<polygon fill="#c8c8c8" points="0.80,0.48 1.00,0.48 1.00,0.64 0.80,0.64" />
<polygon fill="#bbbbbb" points="1.00,0.48 1.20,0.48 1.20,0.64 1.00,0.64" />
<polygon fill="#b8b8b8" points="1.20,0.48 1.40,0.48 1.40,0.64 1.20,0.64" />
<polygon fill="#c1c1c1" points="1.40,0.48 1.60,0.48 1.60,0.64 1.40,0.64" />
<polygon fill="#313131" points="0.00,0.64 0.20,0.64 0.20,0.80 0.00,0.80" />
<polygon fill="#343434" points="0.20,0.64 0.40,0.64 0.40,0.80 0.20,0.80" />
<polygon fill="#404040" points="0.40,0.64 0.60,0.64 0.60,0.80 0.40,0.80" />
<polygon fill="#c5c5c5" points="0.60,0.64 0.80,0.64 0.80,0.80 0.60,0.80" />
<polygon fill="#bebebe" points="0.80,0.64 1.00,0.64 1.00,0.80 0.80,0.80" />
<polygon fill="#b0b0b0" points="1.00,0.64 1.20,0.64 1.20,0.80 1.00,0.80" />
<polygon fill="#b0b0b0" points="1.20,0.64 1.40,0.64 1.40,0.80 1.20,0.80" />
<polygon fill="#c1c1c1" points="1.40,0.64 1.60,0.64 1.60,0.80 1.40,0.80" />
</g>
</g>
<g>
<polyline fill="none" points="0.17,0.80 0.33,0.47 0.74,0.34 0.74,0.25 0.87,0.20 1.04,0.37 1.22,0.37 1.30,0.49 1.12,0.64 1.14,0.80 0.17,0.80" stroke-width="0.05px" stroke="black" />
</g>
<circle cx="0.80" cy="0.50" fill="#9999EA" r="0.008000000000000007" />
</g>
</svg>
</g>
<g transform="matrix(1.00,0.00,0.00,1.00,1.60,0.00)">
<svg height="0.8000000000000007" version="1.1" viewBox="0 0 1.5999999999999943 0.8000000000000007" width="1.5999999999999943" xmlns:xlink="http://www.w3.org/1999/xlink" xmlns="http://www.w3.org/2000/svg">
<g>
<g>
<g>
<polygon fill="#aeaeae" points="0.00,-0.00 0.20,-0.00 0.20,0.16 0.00,0.16" />
<polygon fill="#aeaeae" points="0.20,-0.00 0.40,-0.00 0.40,0.16 0.20,0.16" />
<polygon fill="#b2b2b2" points="0.40,-0.00 0.60,-0.00 0.60,0.16 0.40,0.16" />
<polygon fill="#333333" points="0.60,-0.00 0.80,-0.00 0.80,0.16 0.60,0.16" />
<polygon fill="#2c2c2c" points="0.80,-0.00 1.00,-0.00 1.00,0.16 0.80,0.16" />
<polygon fill="#212121" points="1.00,-0.00 1.20,-0.00 1.20,0.16 1.00,0.16" />
<polygon fill="#161616" points="1.20,-0.00 1.40,-0.00 1.40,0.16 1.20,0.16" />
<polygon fill="#181818" points="1.40,-0.00 1.60,-0.00 1.60,0.16 1.40,0.16" />
<polygon fill="#b8b8b8" points="0.00,0.16 0.20,0.16 0.20,0.32 0.00,0.32" />
<polygon fill="#bcbcbc" points="0.20,0.16 0.40,0.16 0.40,0.32 0.20,0.32" />
<polygon fill="#c5c5c5" points="0.40,0.16 0.60,0.16 0.60,0.32 0.40,0.32" />
<polygon fill="#494949" points="0.60,0.16 0.80,0.16 0.80,0.32 0.60,0.32" />
<polygon fill="#3f3f3f" points="0.80,0.16 1.00,0.16 1.00,0.32 0.80,0.32" />
<polygon fill="#313131" points="1.00,0.16 1.20,0.16 1.20,0.32 1.00,0.32" />
<polygon fill="#212121" points="1.20,0.16 1.40,0.16 1.40,0.32 1.20,0.32" />
<polygon fill="#1d1d1d" points="1.40,0.16 1.60,0.16 1.60,0.32 1.40,0.32" />
<polygon fill="#c5c5c5" points="0.00,0.32 0.20,0.32 0.20,0.48 0.00,0.48" />
<polygon fill="#c9c9c9" points="0.20,0.32 0.40,0.32 0.40,0.48 0.20,0.48" />
<polygon fill="#d3d3d3" points="0.40,0.32 0.60,0.32 0.60,0.48 0.40,0.48" />
<polygon fill="#d6d6d6" points="0.60,0.32 0.80,0.32 0.80,0.48 0.60,0.48" />
<polygon fill="#4e4e4e" points="0.80,0.32 1.00,0.32 1.00,0.48 0.80,0.48" />
<polygon fill="#404040" points="1.00,0.32 1.20,0.32 1.20,0.48 1.00,0.48" />
<polygon fill="#2d2d2d" points="1.20,0.32 1.40,0.32 1.40,0.48 1.20,0.48" />
<polygon fill="#232323" points="1.40,0.32 1.60,0.32 1.60,0.48 1.40,0.48" />
<polygon fill="#c7c7c7" points="0.00,0.48 0.20,0.48 0.20,0.64 0.00,0.64" />
<polygon fill="#cacaca" points="0.20,0.48 0.40,0.48 0.40,0.64 0.20,0.64" />
<polygon fill="#d3d3d3" points="0.40,0.48 0.60,0.48 0.60,0.64 0.40,0.64" />
<polygon fill="#d8d8d8" points="0.60,0.48 0.80,0.48 0.80,0.64 0.60,0.64" />
<polygon fill="#d4d4d4" points="0.80,0.48 1.00,0.48 1.00,0.64 0.80,0.64" />
<polygon fill="#4c4c4c" points="1.00,0.48 1.20,0.48 1.20,0.64 1.00,0.64" />
<polygon fill="#3b3b3b" points="1.20,0.48 1.40,0.48 1.40,0.64 1.20,0.64" />
<polygon fill="#2d2d2d" points="1.40,0.48 1.60,0.48 1.60,0.64 1.40,0.64" />
<polygon fill="#bdbdbd" points="0.00,0.64 0.20,0.64 0.20,0.80 0.00,0.80" />
<polygon fill="#bdbdbd" points="0.20,0.64 0.40,0.64 0.40,0.80 0.20,0.80" />
<polygon fill="#c1c1c1" points="0.40,0.64 0.60,0.64 0.60,0.80 0.40,0.80" />
<polygon fill="#c7c7c7" points="0.60,0.64 0.80,0.64 0.80,0.80 0.60,0.80" />
<polygon fill="#cccccc" points="0.80,0.64 1.00,0.64 1.00,0.80 0.80,0.80" />
<polygon fill="#4f4f4f" points="1.00,0.64 1.20,0.64 1.20,0.80 1.00,0.80" />
<polygon fill="#464646" points="1.20,0.64 1.40,0.64 1.40,0.80 1.20,0.80" />
<polygon fill="#383838" points="1.40,0.64 1.60,0.64 1.60,0.80 1.40,0.80" />
</g>
</g>
<g>
<polyline fill="none" points="0.17,0.80 0.33,0.47 0.74,0.34 0.74,0.25 0.87,0.20 1.04,0.37 1.22,0.37 1.30,0.49 1.12,0.64 1.14,0.80 0.17,0.80" stroke-width="0.05px" stroke="black" />
</g>
<circle cx="0.80" cy="0.50" fill="#9999EA" r="0.008000000000000007" />
</g>
</svg>
</g>
<g transform="matrix(1.00,0.00,0.00,1.00,3.20,0.00)">
<svg height="0.8000000000000007" version="1.1" viewBox="0 0 1.5999999999999943 0.8000000000000007" width="1.5999999999999943" xmlns:xlink="http://www.w3.org/1999/xlink" xmlns="http://www.w3.org/2000/svg">
<g>
<g>
<g>
<polygon fill="#bebebe" points="0.00,-0.00 0.20,-0.00 0.20,0.16 0.00,0.16" />
<polygon fill="#b1b1b1" points="0.20,-0.00 0.40,-0.00 0.40,0.16 0.20,0.16" />
<polygon fill="#adadad" points="0.40,-0.00 0.60,-0.00 0.60,0.16 0.40,0.16" />
<polygon fill="#b4b4b4" points="0.60,-0.00 0.80,-0.00 0.80,0.16 0.60,0.16" />
<polygon fill="#bdbdbd" points="0.80,-0.00 1.00,-0.00 1.00,0.16 0.80,0.16" />
<polygon fill="#bebebe" points="1.00,-0.00 1.20,-0.00 1.20,0.16 1.00,0.16" />
<polygon fill="#bebebe" points="1.20,-0.00 1.40,-0.00 1.40,0.16 1.20,0.16" />
<polygon fill="#bfbfbf" points="1.40,-0.00 1.60,-0.00 1.60,0.16 1.40,0.16" />
<polygon fill="#cecece" points="0.00,0.16 0.20,0.16 0.20,0.32 0.00,0.32" />
<polygon fill="#c1c1c1" points="0.20,0.16 0.40,0.16 0.40,0.32 0.20,0.32" />
<polygon fill="#bdbdbd" points="0.40,0.16 0.60,0.16 0.60,0.32 0.40,0.32" />
<polygon fill="#c6c6c6" points="0.60,0.16 0.80,0.16 0.80,0.32 0.60,0.32" />
<polygon fill="#cdcdcd" points="0.80,0.16 1.00,0.16 1.00,0.32 0.80,0.32" />
<polygon fill="#cdcdcd" points="1.00,0.16 1.20,0.16 1.20,0.32 1.00,0.32" />
<polygon fill="#c8c8c8" points="1.20,0.16 1.40,0.16 1.40,0.32 1.20,0.32" />
<polygon fill="#c0c0c0" points="1.40,0.16 1.60,0.16 1.60,0.32 1.40,0.32" />
<polygon fill="#dddddd" points="0.00,0.32 0.20,0.32 0.20,0.48 0.00,0.48" />
<polygon fill="#d2d2d2" points="0.20,0.32 0.40,0.32 0.40,0.48 0.20,0.48" />
<polygon fill="#d1d1d1" points="0.40,0.32 0.60,0.32 0.60,0.48 0.40,0.48" />
<polygon fill="#dadada" points="0.60,0.32 0.80,0.32 0.80,0.48 0.60,0.48" />
<polygon fill="#dfdfdf" points="0.80,0.32 1.00,0.32 1.00,0.48 0.80,0.48" />
<polygon fill="#dbdbdb" points="1.00,0.32 1.20,0.32 1.20,0.48 1.00,0.48" />
<polygon fill="#d1d1d1" points="1.20,0.32 1.40,0.32 1.40,0.48 1.20,0.48" />
<polygon fill="#c4c4c4" points="1.40,0.32 1.60,0.32 1.60,0.48 1.40,0.48" />
<polygon fill="#dbdbdb" points="0.00,0.48 0.20,0.48 0.20,0.64 0.00,0.64" />
<polygon fill="#d1d1d1" points="0.20,0.48 0.40,0.48 0.40,0.64 0.20,0.64" />
<polygon fill="#d4d4d4" points="0.40,0.48 0.60,0.48 0.60,0.64 0.40,0.64" />
<polygon fill="#dedede" points="0.60,0.48 0.80,0.48 0.80,0.64 0.60,0.64" />
<polygon fill="#e0e0e0" points="0.80,0.48 1.00,0.48 1.00,0.64 0.80,0.64" />
<polygon fill="#d6d6d6" points="1.00,0.48 1.20,0.48 1.20,0.64 1.00,0.64" />
<polygon fill="#cbcbcb" points="1.20,0.48 1.40,0.48 1.40,0.64 1.20,0.64" />
<polygon fill="#c4c4c4" points="1.40,0.48 1.60,0.48 1.60,0.64 1.40,0.64" />
<polygon fill="#cacaca" points="0.00,0.64 0.20,0.64 0.20,0.80 0.00,0.80" />
<polygon fill="#c0c0c0" points="0.20,0.64 0.40,0.64 0.40,0.80 0.20,0.80" />
<polygon fill="#c6c6c6" points="0.40,0.64 0.60,0.64 0.60,0.80 0.40,0.80" />
<polygon fill="#d1d1d1" points="0.60,0.64 0.80,0.64 0.80,0.80 0.60,0.80" />
<polygon fill="#d0d0d0" points="0.80,0.64 1.00,0.64 1.00,0.80 0.80,0.80" />
<polygon fill="#c3c3c3" points="1.00,0.64 1.20,0.64 1.20,0.80 1.00,0.80" />
<polygon fill="#b9b9b9" points="1.20,0.64 1.40,0.64 1.40,0.80 1.20,0.80" />
<polygon fill="#bababa" points="1.40,0.64 1.60,0.64 1.60,0.80 1.40,0.80" />
</g>
</g>
<g>
<polyline fill="none" points="0.17,0.80 0.33,0.47 0.74,0.34 0.74,0.25 0.87,0.20 1.04,0.37 1.22,0.37 1.30,0.49 1.12,0.64 1.14,0.80 0.17,0.80" stroke-width="0.05px" stroke="black" />
</g>
<circle cx="0.80" cy="0.50" fill="#9999EA" r="0.008000000000000007" />
</g>
</svg>
</g>
</g>
</g>
<g transform="matrix(1.00,0.00,0.00,1.00,0.00,1.60)">
<g>
<g transform="matrix(1.00,0.00,0.00,1.00,0.00,0.00)">
<svg height="0.8000000000000007" version="1.1" viewBox="0 0 1.5999999999999943 0.8000000000000007" width="1.5999999999999943" xmlns:xlink="http://www.w3.org/1999/xlink" xmlns="http://www.w3.org/2000/svg">
<g>
<g>
<g>
<polygon fill="#bcbcbc" points="0.00,-0.00 0.20,-0.00 0.20,0.16 0.00,0.16" />
<polygon fill="#b3b3b3" points="0.20,-0.00 0.40,-0.00 0.40,0.16 0.20,0.16" />
<polygon fill="#bababa" points="0.40,-0.00 0.60,-0.00 0.60,0.16 0.40,0.16" />
<polygon fill="#c6c6c6" points="0.60,-0.00 0.80,-0.00 0.80,0.16 0.60,0.16" />
<polygon fill="#c6c6c6" points="0.80,-0.00 1.00,-0.00 1.00,0.16 0.80,0.16" />
<polygon fill="#b9b9b9" points="1.00,-0.00 1.20,-0.00 1.20,0.16 1.00,0.16" />
<polygon fill="#b8b8b8" points="1.20,-0.00 1.40,-0.00 1.40,0.16 1.20,0.16" />
<polygon fill="#c3c3c3" points="1.40,-0.00 1.60,-0.00 1.60,0.16 1.40,0.16" />
<polygon fill="#313131" points="0.00,0.16 0.20,0.16 0.20,0.32 0.00,0.32" />
<polygon fill="#2c2c2c" points="0.20,0.16 0.40,0.16 0.40,0.32 0.20,0.32" />
<polygon fill="#b7b7b7" points="0.40,0.16 0.60,0.16 0.60,0.32 0.40,0.32" />
<polygon fill="#c6c6c6" points="0.60,0.16 0.80,0.16 0.80,0.32 0.60,0.32" />
<polygon fill="#c6c6c6" points="0.80,0.16 1.00,0.16 1.00,0.32 0.80,0.32" />
<polygon fill="#b9b9b9" points="1.00,0.16 1.20,0.16 1.20,0.32 1.00,0.32" />
<polygon fill="#b8b8b8" points="1.20,0.16 1.40,0.16 1.40,0.32 1.20,0.32" />
<polygon fill="#c6c6c6" points="1.40,0.16 1.60,0.16 1.60,0.32 1.40,0.32" />
<polygon fill="#2f2f2f" points="0.00,0.32 0.20,0.32 0.20,0.48 0.00,0.48" />
<polygon fill="#343434" points="0.20,0.32 0.40,0.32 0.40,0.48 0.20,0.48" />
<polygon fill="#434343" points="0.40,0.32 0.60,0.32 0.60,0.48 0.40,0.48" />
<polygon fill="#cccccc" points="0.60,0.32 0.80,0.32 0.80,0.48 0.60,0.48" />
<polygon fill="#c7c7c7" points="0.80,0.32 1.00,0.32 1.00,0.48 0.80,0.48" />
<polygon fill="#b9b9b9" points="1.00,0.32 1.20,0.32 1.20,0.48 1.00,0.48" />
<polygon fill="#b2b2b2" points="1.20,0.32 1.40,0.32 1.40,0.48 1.20,0.48" />
<polygon fill="#bbbbbb" points="1.40,0.32 1.60,0.32 1.60,0.48 1.40,0.48" />
<polygon fill="#393939" points="0.00,0.48 0.20,0.48 0.20,0.64 0.00,0.64" />
<polygon fill="#464646" points="0.20,0.48 0.40,0.48 0.40,0.64 0.20,0.64" />
<polygon fill="#555555" points="0.40,0.48 0.60,0.48 0.60,0.64 0.40,0.64" />
<polygon fill="#d5d5d5" points="0.60,0.48 0.80,0.48 0.80,0.64 0.60,0.64" />
<polygon fill="#c7c7c7" points="0.80,0.48 1.00,0.48 1.00,0.64 0.80,0.64" />
<polygon fill="#b9b9b9" points="1.00,0.48 1.20,0.48 1.20,0.64 1.00,0.64" />
<polygon fill="#aaaaaa" points="1.20,0.48 1.40,0.48 1.40,0.64 1.20,0.64" />
<polygon fill="#a9a9a9" points="1.40,0.48 1.60,0.48 1.60,0.64 1.40,0.64" />
<polygon fill="#404040" points="0.00,0.64 0.20,0.64 0.20,0.80 0.00,0.80" />
<polygon fill="#505050" points="0.20,0.64 0.40,0.64 0.40,0.80 0.20,0.80" />
<polygon fill="#5f5f5f" points="0.40,0.64 0.60,0.64 0.60,0.80 0.40,0.80" />
<polygon fill="#d9d9d9" points="0.60,0.64 0.80,0.64 0.80,0.80 0.60,0.80" />
<polygon fill="#c8c8c8" points="0.80,0.64 1.00,0.64 1.00,0.80 0.80,0.80" />
<polygon fill="#b8b8b8" points="1.00,0.64 1.20,0.64 1.20,0.80 1.00,0.80" />
<polygon fill="#a7a7a7" points="1.20,0.64 1.40,0.64 1.40,0.80 1.20,0.80" />
<polygon fill="#a0a0a0" points="1.40,0.64 1.60,0.64 1.60,0.80 1.40,0.80" />
</g>
</g>
<g>
<polyline fill="none" points="0.17,0.80 0.33,0.47 0.74,0.34 0.74,0.25 0.87,0.20 1.04,0.37 1.22,0.37 1.30,0.49 1.12,0.64 1.14,0.80 0.17,0.80" stroke-width="0.05px" stroke="black" />
</g>
<circle cx="0.80" cy="0.50" fill="#9999EA" r="0.008000000000000007" />
</g>
</svg>
</g>
<g transform="matrix(1.00,0.00,0.00,1.00,1.60,0.00)">
<svg height="0.8000000000000007" version="1.1" viewBox="0 0 1.5999999999999943 0.8000000000000007" width="1.5999999999999943" xmlns:xlink="http://www.w3.org/1999/xlink" xmlns="http://www.w3.org/2000/svg">
<g>
<g>
<g>
<polygon fill="#c5c5c5" points="0.00,-0.00 0.20,-0.00 0.20,0.16 0.00,0.16" />
<polygon fill="#d6d6d6" points="0.20,-0.00 0.40,-0.00 0.40,0.16 0.20,0.16" />
<polygon fill="#e5e5e5" points="0.40,-0.00 0.60,-0.00 0.60,0.16 0.40,0.16" />
<polygon fill="#e2e2e2" points="0.60,-0.00 0.80,-0.00 0.80,0.16 0.60,0.16" />
<polygon fill="#d1d1d1" points="0.80,-0.00 1.00,-0.00 1.00,0.16 0.80,0.16" />
<polygon fill="#c2c2c2" points="1.00,-0.00 1.20,-0.00 1.20,0.16 1.00,0.16" />
<polygon fill="#afafaf" points="1.20,-0.00 1.40,-0.00 1.40,0.16 1.20,0.16" />
<polygon fill="#a5a5a5" points="1.40,-0.00 1.60,-0.00 1.60,0.16 1.40,0.16" />
<polygon fill="#cfcfcf" points="0.00,0.16 0.20,0.16 0.20,0.32 0.00,0.32" />
<polygon fill="#dedede" points="0.20,0.16 0.40,0.16 0.40,0.32 0.20,0.32" />
<polygon fill="#e8e8e8" points="0.40,0.16 0.60,0.16 0.60,0.32 0.40,0.32" />
<polygon fill="#dddddd" points="0.60,0.16 0.80,0.16 0.80,0.32 0.60,0.32" />
<polygon fill="#c8c8c8" points="0.80,0.16 1.00,0.16 1.00,0.32 0.80,0.32" />
<polygon fill="#b9b9b9" points="1.00,0.16 1.20,0.16 1.20,0.32 1.00,0.32" />
<polygon fill="#acacac" points="1.20,0.16 1.40,0.16 1.40,0.32 1.20,0.32" />
<polygon fill="#a7a7a7" points="1.40,0.16 1.60,0.16 1.60,0.32 1.40,0.32" />
<polygon fill="#cfcfcf" points="0.00,0.32 0.20,0.32 0.20,0.48 0.00,0.48" />
<polygon fill="#dedede" points="0.20,0.32 0.40,0.32 0.40,0.48 0.20,0.48" />
<polygon fill="#e4e4e4" points="0.40,0.32 0.60,0.32 0.60,0.48 0.40,0.48" />
<polygon fill="#d6d6d6" points="0.60,0.32 0.80,0.32 0.80,0.48 0.60,0.48" />
<polygon fill="#bfbfbf" points="0.80,0.32 1.00,0.32 1.00,0.48 0.80,0.48" />
<polygon fill="#b0b0b0" points="1.00,0.32 1.20,0.32 1.20,0.48 1.00,0.48" />
<polygon fill="#aaaaaa" points="1.20,0.32 1.40,0.32 1.40,0.48 1.20,0.48" />
<polygon fill="#afafaf" points="1.40,0.32 1.60,0.32 1.60,0.48 1.40,0.48" />
<polygon fill="#c4c4c4" points="0.00,0.48 0.20,0.48 0.20,0.64 0.00,0.64" />
<polygon fill="#d4d4d4" points="0.20,0.48 0.40,0.48 0.40,0.64 0.20,0.64" />
<polygon fill="#dfdfdf" points="0.40,0.48 0.60,0.48 0.60,0.64 0.40,0.64" />
<polygon fill="#d7d7d7" points="0.60,0.48 0.80,0.48 0.80,0.64 0.60,0.64" />
<polygon fill="#c3c3c3" points="0.80,0.48 1.00,0.48 1.00,0.64 0.80,0.64" />
<polygon fill="#b5b5b5" points="1.00,0.48 1.20,0.48 1.20,0.64 1.00,0.64" />
<polygon fill="#b3b3b3" points="1.20,0.48 1.40,0.48 1.40,0.64 1.20,0.64" />
<polygon fill="#bdbdbd" points="1.40,0.48 1.60,0.48 1.60,0.64 1.40,0.64" />
<polygon fill="#b5b5b5" points="0.00,0.64 0.20,0.64 0.20,0.80 0.00,0.80" />
<polygon fill="#c6c6c6" points="0.20,0.64 0.40,0.64 0.40,0.80 0.20,0.80" />
<polygon fill="#dadada" points="0.40,0.64 0.60,0.64 0.60,0.80 0.40,0.80" />
<polygon fill="#dddddd" points="0.60,0.64 0.80,0.64 0.80,0.80 0.60,0.80" />
<polygon fill="#d0d0d0" points="0.80,0.64 1.00,0.64 1.00,0.80 0.80,0.80" />
<polygon fill="#c3c3c3" points="1.00,0.64 1.20,0.64 1.20,0.80 1.00,0.80" />
<polygon fill="#c1c1c1" points="1.20,0.64 1.40,0.64 1.40,0.80 1.20,0.80" />
<polygon fill="#cccccc" points="1.40,0.64 1.60,0.64 1.60,0.80 1.40,0.80" />
</g>
</g>
<g>
<polyline fill="none" points="0.17,0.80 0.33,0.47 0.74,0.34 0.74,0.25 0.87,0.20 1.04,0.37 1.22,0.37 1.30,0.49 1.12,0.64 1.14,0.80 0.17,0.80" stroke-width="0.05px" stroke="black" />
</g>
<circle cx="0.80" cy="0.50" fill="#9999EA" r="0.008000000000000007" />
</g>
</svg>
</g>
<g transform="matrix(1.00,0.00,0.00,1.00,3.20,0.00)">
<svg height="0.8000000000000007" version="1.1" viewBox="0 0 1.5999999999999943 0.8000000000000007" width="1.5999999999999943" xmlns:xlink="http://www.w3.org/1999/xlink" xmlns="http://www.w3.org/2000/svg">
<g>
<g>
<g>
<polygon fill="#bbbbbb" points="0.00,-0.00 0.20,-0.00 0.20,0.16 0.00,0.16" />
<polygon fill="#b3b3b3" points="0.20,-0.00 0.40,-0.00 0.40,0.16 0.20,0.16" />
<polygon fill="#bcbcbc" points="0.40,-0.00 0.60,-0.00 0.60,0.16 0.40,0.16" />
<polygon fill="#4e4e4e" points="0.60,-0.00 0.80,-0.00 0.80,0.16 0.60,0.16" />
<polygon fill="#525252" points="0.80,-0.00 1.00,-0.00 1.00,0.16 0.80,0.16" />
<polygon fill="#484848" points="1.00,-0.00 1.20,-0.00 1.20,0.16 1.00,0.16" />
<polygon fill="#434343" points="1.20,-0.00 1.40,-0.00 1.40,0.16 1.20,0.16" />
<polygon fill="#424242" points="1.40,-0.00 1.60,-0.00 1.60,0.16 1.40,0.16" />
<polygon fill="#bfbfbf" points="0.00,0.16 0.20,0.16 0.20,0.32 0.00,0.32" />
<polygon fill="#b6b6b6" points="0.20,0.16 0.40,0.16 0.40,0.32 0.20,0.32" />
<polygon fill="#bcbcbc" points="0.40,0.16 0.60,0.16 0.60,0.32 0.40,0.32" />
<polygon fill="#484848" points="0.60,0.16 0.80,0.16 0.80,0.32 0.60,0.32" />
<polygon fill="#474747" points="0.80,0.16 1.00,0.16 1.00,0.32 0.80,0.32" />
<polygon fill="#3b3b3b" points="1.00,0.16 1.20,0.16 1.20,0.32 1.00,0.32" />
<polygon fill="#383838" points="1.20,0.16 1.40,0.16 1.40,0.32 1.20,0.32" />
<polygon fill="#424242" points="1.40,0.16 1.60,0.16 1.60,0.32 1.40,0.32" />
<polygon fill="#bcbcbc" points="0.00,0.32 0.20,0.32 0.20,0.48 0.00,0.48" />
<polygon fill="#b3b3b3" points="0.20,0.32 0.40,0.32 0.40,0.48 0.20,0.48" />
<polygon fill="#b6b6b6" points="0.40,0.32 0.60,0.32 0.60,0.48 0.40,0.48" />
<polygon fill="#bbbbbb" points="0.60,0.32 0.80,0.32 0.80,0.48 0.60,0.48" />
<polygon fill="#393939" points="0.80,0.32 1.00,0.32 1.00,0.48 0.80,0.48" />
<polygon fill="#2e2e2e" points="1.00,0.32 1.20,0.32 1.20,0.48 1.00,0.48" />
<polygon fill="#323232" points="1.20,0.32 1.40,0.32 1.40,0.48 1.20,0.48" />
<polygon fill="#474747" points="1.40,0.32 1.60,0.32 1.60,0.48 1.40,0.48" />
<polygon fill="#b2b2b2" points="0.00,0.48 0.20,0.48 0.20,0.64 0.00,0.64" />
<polygon fill="#afafaf" points="0.20,0.48 0.40,0.48 0.40,0.64 0.20,0.64" />
<polygon fill="#afafaf" points="0.40,0.48 0.60,0.48 0.60,0.64 0.40,0.64" />
<polygon fill="#b1b1b1" points="0.60,0.48 0.80,0.48 0.80,0.64 0.60,0.64" />
<polygon fill="#b0b0b0" points="0.80,0.48 1.00,0.48 1.00,0.64 0.80,0.64" />
<polygon fill="#2e2e2e" points="1.00,0.48 1.20,0.48 1.20,0.64 1.00,0.64" />
<polygon fill="#393939" points="1.20,0.48 1.40,0.48 1.40,0.64 1.20,0.64" />
<polygon fill="#515151" points="1.40,0.48 1.60,0.48 1.60,0.64 1.40,0.64" />
<polygon fill="#aeaeae" points="0.00,0.64 0.20,0.64 0.20,0.80 0.00,0.80" />
<polygon fill="#b4b4b4" points="0.20,0.64 0.40,0.64 0.40,0.80 0.20,0.80" />
<polygon fill="#b3b3b3" points="0.40,0.64 0.60,0.64 0.60,0.80 0.40,0.80" />
<polygon fill="#b0b0b0" points="0.60,0.64 0.80,0.64 0.80,0.80 0.60,0.80" />
<polygon fill="#b2b2b2" points="0.80,0.64 1.00,0.64 1.00,0.80 0.80,0.80" />
<polygon fill="#3a3a3a" points="1.00,0.64 1.20,0.64 1.20,0.80 1.00,0.80" />
<polygon fill="#484848" points="1.20,0.64 1.40,0.64 1.40,0.80 1.20,0.80" />
<polygon fill="#575757" points="1.40,0.64 1.60,0.64 1.60,0.80 1.40,0.80" />
</g>
</g>
<g>
<polyline fill="none" points="0.17,0.80 0.33,0.47 0.74,0.34 0.74,0.25 0.87,0.20 1.04,0.37 1.22,0.37 1.30,0.49 1.12,0.64 1.14,0.80 0.17,0.80" stroke-width="0.05px" stroke="black" />
</g>
<circle cx="0.80" cy="0.50" fill="#9999EA" r="0.008000000000000007" />
</g>
</svg>
</g>
</g>
</g>
<g transform="matrix(1.00,0.00,0.00,1.00,0.00,2.40)">
<g>
<g transform="matrix(1.00,0.00,0.00,1.00,0.00,0.00)">
<svg height="0.8000000000000007" version="1.1" viewBox="0 0 1.5999999999999943 0.8000000000000007" width="1.5999999999999943" xmlns:xlink="http://www.w3.org/1999/xlink" xmlns="http://www.w3.org/2000/svg">
<g>
<g>
<g>
<polygon fill="#bcbcbc" points="0.00,-0.00 0.20,-0.00 0.20,0.16 0.00,0.16" />
<polygon fill="#bbbbbb" points="0.20,-0.00 0.40,-0.00 0.40,0.16 0.20,0.16" />
<polygon fill="#bbbbbb" points="0.40,-0.00 0.60,-0.00 0.60,0.16 0.40,0.16" />
<polygon fill="#bdbdbd" points="0.60,-0.00 0.80,-0.00 0.80,0.16 0.60,0.16" />
<polygon fill="#c1c1c1" points="0.80,-0.00 1.00,-0.00 1.00,0.16 0.80,0.16" />
<polygon fill="#c4c4c4" points="1.00,-0.00 1.20,-0.00 1.20,0.16 1.00,0.16" />
<polygon fill="#bfbfbf" points="1.20,-0.00 1.40,-0.00 1.40,0.16 1.20,0.16" />
<polygon fill="#b2b2b2" points="1.40,-0.00 1.60,-0.00 1.60,0.16 1.40,0.16" />
<polygon fill="#c7c7c7" points="0.00,0.16 0.20,0.16 0.20,0.32 0.00,0.32" />
<polygon fill="#c8c8c8" points="0.20,0.16 0.40,0.16 0.40,0.32 0.20,0.32" />
<polygon fill="#c8c8c8" points="0.40,0.16 0.60,0.16 0.60,0.32 0.40,0.32" />
<polygon fill="#c4c4c4" points="0.60,0.16 0.80,0.16 0.80,0.32 0.60,0.32" />
<polygon fill="#bcbcbc" points="0.80,0.16 1.00,0.16 1.00,0.32 0.80,0.32" />
<polygon fill="#b4b4b4" points="1.00,0.16 1.20,0.16 1.20,0.32 1.00,0.32" />
<polygon fill="#ababab" points="1.20,0.16 1.40,0.16 1.40,0.32 1.20,0.32" />
<polygon fill="#a7a7a7" points="1.40,0.16 1.60,0.16 1.60,0.32 1.40,0.32" />
<polygon fill="#c6c6c6" points="0.00,0.32 0.20,0.32 0.20,0.48 0.00,0.48" />
<polygon fill="#c9c9c9" points="0.20,0.32 0.40,0.32 0.40,0.48 0.20,0.48" />
<polygon fill="#cecece" points="0.40,0.32 0.60,0.32 0.60,0.48 0.40,0.48" />
<polygon fill="#cccccc" points="0.60,0.32 0.80,0.32 0.80,0.48 0.60,0.48" />
<polygon fill="#c0c0c0" points="0.80,0.32 1.00,0.32 1.00,0.48 0.80,0.48" />
<polygon fill="#b2b2b2" points="1.00,0.32 1.20,0.32 1.20,0.48 1.00,0.48" />
<polygon fill="#a8a8a8" points="1.20,0.32 1.40,0.32 1.40,0.48 1.20,0.48" />
<polygon fill="#a9a9a9" points="1.40,0.32 1.60,0.32 1.60,0.48 1.40,0.48" />
<polygon fill="#b9b9b9" points="0.00,0.48 0.20,0.48 0.20,0.64 0.00,0.64" />
<polygon fill="#bebebe" points="0.20,0.48 0.40,0.48 0.40,0.64 0.20,0.64" />
<polygon fill="#cccccc" points="0.40,0.48 0.60,0.48 0.60,0.64 0.40,0.64" />
<polygon fill="#d4d4d4" points="0.60,0.48 0.80,0.48 0.80,0.64 0.60,0.64" />
<polygon fill="#cdcdcd" points="0.80,0.48 1.00,0.48 1.00,0.64 0.80,0.64" />
<polygon fill="#bfbfbf" points="1.00,0.48 1.20,0.48 1.20,0.64 1.00,0.64" />
<polygon fill="#b5b5b5" points="1.20,0.48 1.40,0.48 1.40,0.64 1.20,0.64" />
<polygon fill="#b6b6b6" points="1.40,0.48 1.60,0.48 1.60,0.64 1.40,0.64" />
<polygon fill="#afafaf" points="0.00,0.64 0.20,0.64 0.20,0.80 0.00,0.80" />
<polygon fill="#b7b7b7" points="0.20,0.64 0.40,0.64 0.40,0.80 0.20,0.80" />
<polygon fill="#cdcdcd" points="0.40,0.64 0.60,0.64 0.60,0.80 0.40,0.80" />
<polygon fill="#dbdbdb" points="0.60,0.64 0.80,0.64 0.80,0.80 0.60,0.80" />
<polygon fill="#d7d7d7" points="0.80,0.64 1.00,0.64 1.00,0.80 0.80,0.80" />
<polygon fill="#c9c9c9" points="1.00,0.64 1.20,0.64 1.20,0.80 1.00,0.80" />
<polygon fill="#bebebe" points="1.20,0.64 1.40,0.64 1.40,0.80 1.20,0.80" />
<polygon fill="#bcbcbc" points="1.40,0.64 1.60,0.64 1.60,0.80 1.40,0.80" />
</g>
</g>
<g>
<polyline fill="none" points="0.17,0.80 0.33,0.47 0.74,0.34 0.74,0.25 0.87,0.20 1.04,0.37 1.22,0.37 1.30,0.49 1.12,0.64 1.14,0.80 0.17,0.80" stroke-width="0.05px" stroke="black" />
</g>
<circle cx="0.80" cy="0.50" fill="#9999EA" r="0.008000000000000007" />
</g>
</svg>
</g>
<g transform="matrix(1.00,0.00,0.00,1.00,1.60,0.00)">
<svg height="0.8000000000000007" version="1.1" viewBox="0 0 1.5999999999999943 0.8000000000000007" width="1.5999999999999943" xmlns:xlink="http://www.w3.org/1999/xlink" xmlns="http://www.w3.org/2000/svg">
<g>
<g>
<g>
<polygon fill="#c2c2c2" points="0.00,-0.00 0.20,-0.00 0.20,0.16 0.00,0.16" />
<polygon fill="#cbcbcb" points="0.20,-0.00 0.40,-0.00 0.40,0.16 0.20,0.16" />
<polygon fill="#c4c4c4" points="0.40,-0.00 0.60,-0.00 0.60,0.16 0.40,0.16" />
<polygon fill="#393939" points="0.60,-0.00 0.80,-0.00 0.80,0.16 0.60,0.16" />
<polygon fill="#393939" points="0.80,-0.00 1.00,-0.00 1.00,0.16 0.80,0.16" />
<polygon fill="#464646" points="1.00,-0.00 1.20,-0.00 1.20,0.16 1.00,0.16" />
<polygon fill="#505050" points="1.20,-0.00 1.40,-0.00 1.40,0.16 1.20,0.16" />
<polygon fill="#4d4d4d" points="1.40,-0.00 1.60,-0.00 1.60,0.16 1.40,0.16" />
<polygon fill="#d3d3d3" points="0.00,0.16 0.20,0.16 0.20,0.32 0.00,0.32" />
<polygon fill="#dadada" points="0.20,0.16 0.40,0.16 0.40,0.32 0.20,0.32" />
<polygon fill="#cecece" points="0.40,0.16 0.60,0.16 0.60,0.32 0.40,0.32" />
<polygon fill="#3b3b3b" points="0.60,0.16 0.80,0.16 0.80,0.32 0.60,0.32" />
<polygon fill="#363636" points="0.80,0.16 1.00,0.16 1.00,0.32 0.80,0.32" />
<polygon fill="#3f3f3f" points="1.00,0.16 1.20,0.16 1.20,0.32 1.00,0.32" />
<polygon fill="#464646" points="1.20,0.16 1.40,0.16 1.40,0.32 1.20,0.32" />
<polygon fill="#3f3f3f" points="1.40,0.16 1.60,0.16 1.60,0.32 1.40,0.32" />
<polygon fill="#dfdfdf" points="0.00,0.32 0.20,0.32 0.20,0.48 0.00,0.48" />
<polygon fill="#e2e2e2" points="0.20,0.32 0.40,0.32 0.40,0.48 0.20,0.48" />
<polygon fill="#d5d5d5" points="0.40,0.32 0.60,0.32 0.60,0.48 0.40,0.48" />
<polygon fill="#bebebe" points="0.60,0.32 0.80,0.32 0.80,0.48 0.60,0.48" />
<polygon fill="#313131" points="0.80,0.32 1.00,0.32 1.00,0.48 0.80,0.48" />
<polygon fill="#313131" points="1.00,0.32 1.20,0.32 1.20,0.48 1.00,0.48" />
<polygon fill="#333333" points="1.20,0.32 1.40,0.32 1.40,0.48 1.20,0.48" />
<polygon fill="#303030" points="1.40,0.32 1.60,0.32 1.60,0.48 1.40,0.48" />
<polygon fill="#d7d7d7" points="0.00,0.48 0.20,0.48 0.20,0.64 0.00,0.64" />
<polygon fill="#d9d9d9" points="0.20,0.48 0.40,0.48 0.40,0.64 0.20,0.64" />
<polygon fill="#d3d3d3" points="0.40,0.48 0.60,0.48 0.60,0.64 0.40,0.64" />
<polygon fill="#c5c5c5" points="0.60,0.48 0.80,0.48 0.80,0.64 0.60,0.64" />
<polygon fill="#b5b5b5" points="0.80,0.48 1.00,0.48 1.00,0.64 0.80,0.64" />
<polygon fill="#2c2c2c" points="1.00,0.48 1.20,0.48 1.20,0.64 1.00,0.64" />
<polygon fill="#2a2a2a" points="1.20,0.48 1.40,0.48 1.40,0.64 1.20,0.64" />
<polygon fill="#303030" points="1.40,0.48 1.60,0.48 1.60,0.64 1.40,0.64" />
<polygon fill="#c5c5c5" points="0.00,0.64 0.20,0.64 0.20,0.80 0.00,0.80" />
<polygon fill="#c8c8c8" points="0.20,0.64 0.40,0.64 0.40,0.80 0.20,0.80" />
<polygon fill="#cecece" points="0.40,0.64 0.60,0.64 0.60,0.80 0.40,0.80" />
<polygon fill="#cdcdcd" points="0.60,0.64 0.80,0.64 0.80,0.80 0.60,0.80" />
<polygon fill="#c2c2c2" points="0.80,0.64 1.00,0.64 1.00,0.80 0.80,0.80" />
<polygon fill="#353535" points="1.00,0.64 1.20,0.64 1.20,0.80 1.00,0.80" />
<polygon fill="#323232" points="1.20,0.64 1.40,0.64 1.40,0.80 1.20,0.80" />
<polygon fill="#3d3d3d" points="1.40,0.64 1.60,0.64 1.60,0.80 1.40,0.80" />
</g>
</g>
<g>
<polyline fill="none" points="0.17,0.80 0.33,0.47 0.74,0.34 0.74,0.25 0.87,0.20 1.04,0.37 1.22,0.37 1.30,0.49 1.12,0.64 1.14,0.80 0.17,0.80" stroke-width="0.05px" stroke="black" />
</g>
<circle cx="0.80" cy="0.50" fill="#9999EA" r="0.008000000000000007" />
</g>
</svg>
</g>
<g transform="matrix(1.00,0.00,0.00,1.00,3.20,0.00)">
<svg height="0.8000000000000007" version="1.1" viewBox="0 0 1.5999999999999943 0.8000000000000007" width="1.5999999999999943" xmlns:xlink="http://www.w3.org/1999/xlink" xmlns="http://www.w3.org/2000/svg">
<g>
<g>
<g>
<polygon fill="#c9c9c9" points="0.00,-0.00 0.20,-0.00 0.20,0.16 0.00,0.16" />
<polygon fill="#bebebe" points="0.20,-0.00 0.40,-0.00 0.40,0.16 0.20,0.16" />
<polygon fill="#bebebe" points="0.40,-0.00 0.60,-0.00 0.60,0.16 0.40,0.16" />
<polygon fill="#c5c5c5" points="0.60,-0.00 0.80,-0.00 0.80,0.16 0.60,0.16" />
<polygon fill="#c4c4c4" points="0.80,-0.00 1.00,-0.00 1.00,0.16 0.80,0.16" />
<polygon fill="#bababa" points="1.00,-0.00 1.20,-0.00 1.20,0.16 1.00,0.16" />
<polygon fill="#aaaaaa" points="1.20,-0.00 1.40,-0.00 1.40,0.16 1.20,0.16" />
<polygon fill="#a3a3a3" points="1.40,-0.00 1.60,-0.00 1.60,0.16 1.40,0.16" />
<polygon fill="#c2c2c2" points="0.00,0.16 0.20,0.16 0.20,0.32 0.00,0.32" />
<polygon fill="#b9b9b9" points="0.20,0.16 0.40,0.16 0.40,0.32 0.20,0.32" />
<polygon fill="#bebebe" points="0.40,0.16 0.60,0.16 0.60,0.32 0.40,0.32" />
<polygon fill="#c7c7c7" points="0.60,0.16 0.80,0.16 0.80,0.32 0.60,0.32" />
<polygon fill="#c6c6c6" points="0.80,0.16 1.00,0.16 1.00,0.32 0.80,0.32" />
<polygon fill="#b8b8b8" points="1.00,0.16 1.20,0.16 1.20,0.32 1.00,0.32" />
<polygon fill="#a7a7a7" points="1.20,0.16 1.40,0.16 1.40,0.32 1.20,0.32" />
<polygon fill="#a0a0a0" points="1.40,0.16 1.60,0.16 1.60,0.32 1.40,0.32" />
<polygon fill="#b2b2b2" points="0.00,0.32 0.20,0.32 0.20,0.48 0.00,0.48" />
<polygon fill="#ababab" points="0.20,0.32 0.40,0.32 0.40,0.48 0.20,0.48" />
<polygon fill="#b6b6b6" points="0.40,0.32 0.60,0.32 0.60,0.48 0.40,0.48" />
<polygon fill="#c7c7c7" points="0.60,0.32 0.80,0.32 0.80,0.48 0.60,0.48" />
<polygon fill="#c8c8c8" points="0.80,0.32 1.00,0.32 1.00,0.48 0.80,0.48" />
<polygon fill="#bbbbbb" points="1.00,0.32 1.20,0.32 1.20,0.48 1.00,0.48" />
<polygon fill="#a8a8a8" points="1.20,0.32 1.40,0.32 1.40,0.48 1.20,0.48" />
<polygon fill="#a1a1a1" points="1.40,0.32 1.60,0.32 1.60,0.48 1.40,0.48" />
<polygon fill="#a2a2a2" points="0.00,0.48 0.20,0.48 0.20,0.64 0.00,0.64" />
<polygon fill="#a4a4a4" points="0.20,0.48 0.40,0.48 0.40,0.64 0.20,0.64" />
<polygon fill="#b9b9b9" points="0.40,0.48 0.60,0.48 0.60,0.64 0.40,0.64" />
<polygon fill="#d0d0d0" points="0.60,0.48 0.80,0.48 0.80,0.64 0.60,0.64" />
<polygon fill="#d2d2d2" points="0.80,0.48 1.00,0.48 1.00,0.64 0.80,0.64" />
<polygon fill="#c4c4c4" points="1.00,0.48 1.20,0.48 1.20,0.64 1.00,0.64" />
<polygon fill="#b0b0b0" points="1.20,0.48 1.40,0.48 1.40,0.64 1.20,0.64" />
<polygon fill="#a5a5a5" points="1.40,0.48 1.60,0.48 1.60,0.64 1.40,0.64" />
<polygon fill="#a2a2a2" points="0.00,0.64 0.20,0.64 0.20,0.80 0.00,0.80" />
<polygon fill="#afafaf" points="0.20,0.64 0.40,0.64 0.40,0.80 0.20,0.80" />
<polygon fill="#c9c9c9" points="0.40,0.64 0.60,0.64 0.60,0.80 0.40,0.80" />
<polygon fill="#dbdbdb" points="0.60,0.64 0.80,0.64 0.80,0.80 0.60,0.80" />
<polygon fill="#d8d8d8" points="0.80,0.64 1.00,0.64 1.00,0.80 0.80,0.80" />
<polygon fill="#cacaca" points="1.00,0.64 1.20,0.64 1.20,0.80 1.00,0.80" />
<polygon fill="#b5b5b5" points="1.20,0.64 1.40,0.64 1.40,0.80 1.20,0.80" />
<polygon fill="#a7a7a7" points="1.40,0.64 1.60,0.64 1.60,0.80 1.40,0.80" />
</g>
</g>
<g>
<polyline fill="none" points="0.17,0.80 0.33,0.47 0.74,0.34 0.74,0.25 0.87,0.20 1.04,0.37 1.22,0.37 1.30,0.49 1.12,0.64 1.14,0.80 0.17,0.80" stroke-width="0.05px" stroke="black" />
</g>
<circle cx="0.80" cy="0.50" fill="#9999EA" r="0.008000000000000007" />
</g>
</svg>
</g>
</g>
</g>
</g>
</svg>
