<?xml version="1.0" encoding="UTF-8" standalone="no"?>
<svg
   height="50"
   version="1.1"
   viewBox="0 0 100 50"
   width="100"
   id="svg90"
   sodipodi:docname="synthetic-singular-vector-subspace.svg"
   inkscape:version="1.1.1 (1:1.1+202109281949+c3084ef5ed)"
   xmlns:inkscape="http://www.inkscape.org/namespaces/inkscape"
   xmlns:sodipodi="http://sodipodi.sourceforge.net/DTD/sodipodi-0.dtd"
   xmlns="http://www.w3.org/2000/svg"
   xmlns:svg="http://www.w3.org/2000/svg">
  <defs
     id="defs94" />
  <sodipodi:namedview
     id="namedview92"
     pagecolor="#ffffff"
     bordercolor="#666666"
     borderopacity="1.0"
     inkscape:pageshadow="2"
     inkscape:pageopacity="0.0"
     inkscape:pagecheckerboard="0"
     showgrid="false"
     inkscape:zoom="8.967055"
     inkscape:cx="42.377347"
     inkscape:cy="31.281173"
     inkscape:window-width="960"
     inkscape:window-height="1011"
     inkscape:window-x="960"
     inkscape:window-y="36"
     inkscape:window-maximized="0"
     inkscape:current-layer="g88" />
  <g
     id="g88"
     transform="translate(3.6297708,-2.5623294)">
    <g
       fill="#00aaff"
       stroke-width="4px"
       stroke="none"
       id="g74"
       transform="translate(-4,2)">
      <g
         id="g6">
        <circle
           cx="4.5500002"
           cy="38.919998"
           fill="#c6a9fe"
           r="1.6"
           stroke-width="0.2"
           stroke="#000000"
           id="circle2" />
        <text
           dominant-baseline="central"
           fill="#000000"
           font-size="2px"
           text-anchor="middle"
           x="4.5500002"
           y="38.919998"
           id="text4">4</text>
      </g>
      <g
         id="g12">
        <circle
           cx="5.4200001"
           cy="34.970001"
           fill="#ffa19a"
           r="1.6"
           stroke-width="0.2"
           stroke="#000000"
           id="circle8" />
        <text
           dominant-baseline="central"
           fill="#000000"
           font-size="2px"
           text-anchor="middle"
           x="5.4200001"
           y="34.970001"
           id="text10">1</text>
      </g>
      <g
         id="g18">
        <circle
           cx="5.5300002"
           cy="34.580002"
           fill="#21b845"
           r="1.6"
           stroke-width="0.2"
           stroke="#000000"
           id="circle14" />
        <text
           dominant-baseline="central"
           fill="#000000"
           font-size="2px"
           text-anchor="middle"
           x="5.5300002"
           y="34.580002"
           id="text16">8</text>
      </g>
      <g
         id="g24">
        <circle
           cx="6.9299998"
           cy="40.84"
           fill="#93cb00"
           r="1.6"
           stroke-width="0.2"
           stroke="#000000"
           id="circle20" />
        <text
           dominant-baseline="central"
           fill="#000000"
           font-size="2px"
           text-anchor="middle"
           x="6.9299998"
           y="40.84"
           id="text22">10</text>
      </g>
      <g
         id="g30">
        <circle
           cx="20.309999"
           cy="2.5899999"
           fill="#28edd5"
           r="1.6"
           stroke-width="0.2"
           stroke="#000000"
           id="circle26" />
        <text
           dominant-baseline="central"
           fill="#000000"
           font-size="2px"
           text-anchor="middle"
           x="20.309999"
           y="2.5899999"
           id="text28">6</text>
      </g>
      <g
         id="g36">
        <circle
           cx="21.68"
           cy="2.9400001"
           fill="#ee62fe"
           r="1.6"
           stroke-width="0.2"
           stroke="#000000"
           id="circle32" />
        <text
           dominant-baseline="central"
           fill="#000000"
           font-size="2px"
           text-anchor="middle"
           x="21.68"
           y="2.9400001"
           id="text34">3</text>
      </g>
      <g
         id="g42">
        <circle
           cx="22.370001"
           cy="2.27"
           fill="#f6d350"
           r="1.6"
           stroke-width="0.2"
           stroke="#000000"
           id="circle38" />
        <text
           dominant-baseline="central"
           fill="#000000"
           font-size="2px"
           text-anchor="middle"
           x="22.370001"
           y="2.27"
           id="text40">0</text>
      </g>
      <g
         id="g48">
        <circle
           cx="27.32"
           cy="20.35"
           fill="#ff61d8"
           r="1.6"
           stroke-width="0.2"
           stroke="#000000"
           id="circle44" />
        <text
           dominant-baseline="central"
           fill="#000000"
           font-size="2px"
           text-anchor="middle"
           x="27.32"
           y="20.35"
           id="text46">2</text>
      </g>
      <g
         id="g54">
        <circle
           cx="28.08"
           cy="20.809999"
           fill="#cddf00"
           r="1.6"
           stroke-width="0.2"
           stroke="#000000"
           id="circle50" />
        <text
           dominant-baseline="central"
           fill="#000000"
           font-size="2px"
           text-anchor="middle"
           x="28.08"
           y="20.809999"
           id="text52">11</text>
      </g>
      <g
         id="g60">
        <circle
           cx="29.91"
           cy="23.030001"
           fill="#4fb600"
           r="1.6"
           stroke-width="0.2"
           stroke="#000000"
           id="circle56" />
        <text
           dominant-baseline="central"
           fill="#000000"
           font-size="2px"
           text-anchor="middle"
           x="29.91"
           y="23.030001"
           id="text58">9</text>
      </g>
      <g
         id="g66">
        <circle
           cx="32.279999"
           cy="25.290001"
           fill="#33d28d"
           r="1.6"
           stroke-width="0.2"
           stroke="#000000"
           id="circle62" />
        <text
           dominant-baseline="central"
           fill="#000000"
           font-size="2px"
           text-anchor="middle"
           x="32.279999"
           y="25.290001"
           id="text64">7</text>
      </g>
      <g
         id="g72">
        <circle
           cx="33.400002"
           cy="22.879999"
           fill="#82dffc"
           r="1.6"
           stroke-width="0.2"
           stroke="#000000"
           id="circle68" />
        <text
           dominant-baseline="central"
           fill="#000000"
           font-size="2px"
           text-anchor="middle"
           x="33.400002"
           y="22.879999"
           id="text70">5</text>
      </g>
    </g>
    <g
       stroke-width="0.3px"
       stroke="#000000"
       id="g80"
       transform="translate(-3.6654421,2.5575965)">
      <g
         fill="#000000"
         font-family="Arial, sans-serif"
         font-size="10px"
         stroke="none"
         text-anchor="middle"
         id="g76" />
      <line
         x1="0"
         x2="100"
         y1="25"
         y2="25"
         id="line78" />
    </g>
    <g
       stroke-width="0.3px"
       stroke="#000000"
       id="g86"
       transform="translate(-3.6654421,2.5575965)">
      <g
         fill="#000000"
         font-family="Arial, sans-serif"
         font-size="2px"
         stroke="none"
         text-anchor="end"
         id="g82" />
      <line
         x1="50"
         x2="50"
         y1="50"
         y2="0"
         id="line84" />
    </g>
  </g>
  <g
     id="g1111"
     transform="matrix(11.368775,0,0,11.368775,44.868819,10.025735)">
    <g
       id="g1009">
      <g
         id="g1007"
         transform="translate(3.1591471,1.4604126)">
        <g
           id="g1005">
          <svg
             height="0.80000001"
             version="1.1"
             viewBox="0 0 1.6 0.8"
             width="1.6"
             id="svg1003">
            <g
               id="g1001">
              <g
                 id="g993">
                <g
                   id="g991">
                  <polygon
                     fill="#ffe6e6"
                     points="0,0.16 0,0 0.2,0 0.2,0.16 "
                     id="polygon911" />
                  <polygon
                     fill="#ffe4e4"
                     points="0.2,0.16 0.2,0 0.4,0 0.4,0.16 "
                     id="polygon913" />
                  <polygon
                     fill="#ffe5e5"
                     points="0.4,0.16 0.4,0 0.6,0 0.6,0.16 "
                     id="polygon915" />
                  <polygon
                     fill="#ffcfcf"
                     points="0.6,0.16 0.6,0 0.8,0 0.8,0.16 "
                     id="polygon917" />
                  <polygon
                     fill="#ffcfcf"
                     points="0.8,0.16 0.8,0 1,0 1,0.16 "
                     id="polygon919" />
                  <polygon
                     fill="#ffcece"
                     points="1,0.16 1,0 1.2,0 1.2,0.16 "
                     id="polygon921" />
                  <polygon
                     fill="#ffcccc"
                     points="1.2,0.16 1.2,0 1.4,0 1.4,0.16 "
                     id="polygon923" />
                  <polygon
                     fill="#ffcdcd"
                     points="1.4,0.16 1.4,0 1.6,0 1.6,0.16 "
                     id="polygon925" />
                  <polygon
                     fill="#ffdddd"
                     points="0,0.32 0,0.16 0.2,0.16 0.2,0.32 "
                     id="polygon927" />
                  <polygon
                     fill="#ffdcdc"
                     points="0.2,0.32 0.2,0.16 0.4,0.16 0.4,0.32 "
                     id="polygon929" />
                  <polygon
                     fill="#ffe8e8"
                     points="0.4,0.32 0.4,0.16 0.6,0.16 0.6,0.32 "
                     id="polygon931" />
                  <polygon
                     fill="#ffd1d1"
                     points="0.6,0.32 0.6,0.16 0.8,0.16 0.8,0.32 "
                     id="polygon933" />
                  <polygon
                     fill="#ffd0d0"
                     points="0.8,0.32 0.8,0.16 1,0.16 1,0.32 "
                     id="polygon935" />
                  <polygon
                     fill="#ffcdcd"
                     points="1,0.32 1,0.16 1.2,0.16 1.2,0.32 "
                     id="polygon937" />
                  <polygon
                     fill="#ffcccc"
                     points="1.2,0.32 1.2,0.16 1.4,0.16 1.4,0.32 "
                     id="polygon939" />
                  <polygon
                     fill="#ffcdcd"
                     points="1.4,0.32 1.4,0.16 1.6,0.16 1.6,0.32 "
                     id="polygon941" />
                  <polygon
                     fill="#ffdede"
                     points="0,0.48 0,0.32 0.2,0.32 0.2,0.48 "
                     id="polygon943" />
                  <polygon
                     fill="#ffdddd"
                     points="0.2,0.48 0.2,0.32 0.4,0.32 0.4,0.48 "
                     id="polygon945" />
                  <polygon
                     fill="#ffdede"
                     points="0.4,0.48 0.4,0.32 0.6,0.32 0.6,0.48 "
                     id="polygon947" />
                  <polygon
                     fill="#ffeaea"
                     points="0.6,0.48 0.6,0.32 0.8,0.32 0.8,0.48 "
                     id="polygon949" />
                  <polygon
                     fill="#ffd0d0"
                     points="0.8,0.48 0.8,0.32 1,0.32 1,0.48 "
                     id="polygon951" />
                  <polygon
                     fill="#ffcdcd"
                     points="1,0.48 1,0.32 1.2,0.32 1.2,0.48 "
                     id="polygon953" />
                  <polygon
                     fill="#ffcccc"
                     points="1.2,0.48 1.2,0.32 1.4,0.32 1.4,0.48 "
                     id="polygon955" />
                  <polygon
                     fill="#ffcece"
                     points="1.4,0.48 1.4,0.32 1.6,0.32 1.6,0.48 "
                     id="polygon957" />
                  <polygon
                     fill="#ffdcdc"
                     points="0,0.64 0,0.48 0.2,0.48 0.2,0.64 "
                     id="polygon959" />
                  <polygon
                     fill="#ffdddd"
                     points="0.2,0.64 0.2,0.48 0.4,0.48 0.4,0.64 "
                     id="polygon961" />
                  <polygon
                     fill="#ffdede"
                     points="0.4,0.64 0.4,0.48 0.6,0.48 0.6,0.64 "
                     id="polygon963" />
                  <polygon
                     fill="#ffeaea"
                     points="0.6,0.64 0.6,0.48 0.8,0.48 0.8,0.64 "
                     id="polygon965" />
                  <polygon
                     fill="#ffe8e8"
                     points="0.8,0.64 0.8,0.48 1,0.48 1,0.64 "
                     id="polygon967" />
                  <polygon
                     fill="#ffcfcf"
                     points="1,0.64 1,0.48 1.2,0.48 1.2,0.64 "
                     id="polygon969" />
                  <polygon
                     fill="#ffcece"
                     points="1.2,0.64 1.2,0.48 1.4,0.48 1.4,0.64 "
                     id="polygon971" />
                  <polygon
                     fill="#ffd0d0"
                     points="1.4,0.64 1.4,0.48 1.6,0.48 1.6,0.64 "
                     id="polygon973" />
                  <polygon
                     fill="#ffdada"
                     points="0,0.8 0,0.64 0.2,0.64 0.2,0.8 "
                     id="polygon975" />
                  <polygon
                     fill="#ffdbdb"
                     points="0.2,0.8 0.2,0.64 0.4,0.64 0.4,0.8 "
                     id="polygon977" />
                  <polygon
                     fill="#ffdddd"
                     points="0.4,0.8 0.4,0.64 0.6,0.64 0.6,0.8 "
                     id="polygon979" />
                  <polygon
                     fill="#ffe9e9"
                     points="0.6,0.8 0.6,0.64 0.8,0.64 0.8,0.8 "
                     id="polygon981" />
                  <polygon
                     fill="#ffe8e8"
                     points="0.8,0.8 0.8,0.64 1,0.64 1,0.8 "
                     id="polygon983" />
                  <polygon
                     fill="#ffd0d0"
                     points="1,0.8 1,0.64 1.2,0.64 1.2,0.8 "
                     id="polygon985" />
                  <polygon
                     fill="#ffd0d0"
                     points="1.2,0.8 1.2,0.64 1.4,0.64 1.4,0.8 "
                     id="polygon987" />
                  <polygon
                     fill="#ffd1d1"
                     points="1.4,0.8 1.4,0.64 1.6,0.64 1.6,0.8 "
                     id="polygon989" />
                </g>
              </g>
              <g
                 id="g997">
                <polyline
                   fill="none"
                   points="0.17,0.80 0.33,0.47 0.74,0.34 0.74,0.25 0.87,0.20 1.04,0.37 1.22,0.37 1.30,0.49 1.12,0.64 1.14,0.80 0.17,0.80"
                   stroke-width="0.05px"
                   stroke="#000000"
                   id="polyline995" />
              </g>
              <circle
                 cx="0.80000001"
                 cy="0.5"
                 fill="#9999ea"
                 r="0.0080000004"
                 id="circle999" />
            </g>
          </svg>
        </g>
      </g>
    </g>
    <g
       transform="translate(0.65094572,-0.72780719)"
       id="g1109">
      <g
         id="g1107">
        <g
           id="g1105">
          <svg
             height="0.80000001"
             version="1.1"
             viewBox="0 0 1.6 0.8"
             width="1.6"
             id="svg1103">
            <g
               id="g1101">
              <g
                 id="g1093">
                <g
                   id="g1091">
                  <polygon
                     fill="#f3f3f3"
                     points="0,0 0.2,0 0.2,0.16 0,0.16 "
                     id="polygon1011" />
                  <polygon
                     fill="#eeeeee"
                     points="0.2,0 0.4,0 0.4,0.16 0.2,0.16 "
                     id="polygon1013" />
                  <polygon
                     fill="#ededed"
                     points="0.4,0 0.6,0 0.6,0.16 0.4,0.16 "
                     id="polygon1015" />
                  <polygon
                     fill="#ffe6e6"
                     points="0.6,0 0.8,0 0.8,0.16 0.6,0.16 "
                     id="polygon1017" />
                  <polygon
                     fill="#ffe4e4"
                     points="0.8,0 1,0 1,0.16 0.8,0.16 "
                     id="polygon1019" />
                  <polygon
                     fill="#ffe6e6"
                     points="1,0 1.2,0 1.2,0.16 1,0.16 "
                     id="polygon1021" />
                  <polygon
                     fill="#ffe5e5"
                     points="1.2,0 1.4,0 1.4,0.16 1.2,0.16 "
                     id="polygon1023" />
                  <polygon
                     fill="#ffe3e3"
                     points="1.4,0 1.6,0 1.6,0.16 1.4,0.16 "
                     id="polygon1025" />
                  <polygon
                     fill="#bcbcbc"
                     points="0,0.16 0.2,0.16 0.2,0.32 0,0.32 "
                     id="polygon1027" />
                  <polygon
                     fill="#b9b9b9"
                     points="0.2,0.16 0.4,0.16 0.4,0.32 0.2,0.32 "
                     id="polygon1029" />
                  <polygon
                     fill="#f0f0f0"
                     points="0.4,0.16 0.6,0.16 0.6,0.32 0.4,0.32 "
                     id="polygon1031" />
                  <polygon
                     fill="#ffe2e2"
                     points="0.6,0.16 0.8,0.16 0.8,0.32 0.6,0.32 "
                     id="polygon1033" />
                  <polygon
                     fill="#ffe0e0"
                     points="0.8,0.16 1,0.16 1,0.32 0.8,0.32 "
                     id="polygon1035" />
                  <polygon
                     fill="#ffe3e3"
                     points="1,0.16 1.2,0.16 1.2,0.32 1,0.32 "
                     id="polygon1037" />
                  <polygon
                     fill="#ffe3e3"
                     points="1.2,0.16 1.4,0.16 1.4,0.32 1.2,0.32 "
                     id="polygon1039" />
                  <polygon
                     fill="#ffe1e1"
                     points="1.4,0.16 1.6,0.16 1.6,0.32 1.4,0.32 "
                     id="polygon1041" />
                  <polygon
                     fill="#bcbcbc"
                     points="0,0.32 0.2,0.32 0.2,0.48 0,0.48 "
                     id="polygon1043" />
                  <polygon
                     fill="#bbbbbb"
                     points="0.2,0.32 0.4,0.32 0.4,0.48 0.2,0.48 "
                     id="polygon1045" />
                  <polygon
                     fill="#bfbfbf"
                     points="0.4,0.32 0.6,0.32 0.6,0.48 0.4,0.48 "
                     id="polygon1047" />
                  <polygon
                     fill="#f9f9f9"
                     points="0.6,0.32 0.8,0.32 0.8,0.48 0.6,0.48 "
                     id="polygon1049" />
                  <polygon
                     fill="#ffdcdc"
                     points="0.8,0.32 1,0.32 1,0.48 0.8,0.48 "
                     id="polygon1051" />
                  <polygon
                     fill="#ffe0e0"
                     points="1,0.32 1.2,0.32 1.2,0.48 1,0.48 "
                     id="polygon1053" />
                  <polygon
                     fill="#ffe1e1"
                     points="1.2,0.32 1.4,0.32 1.4,0.48 1.2,0.48 "
                     id="polygon1055" />
                  <polygon
                     fill="#ffe0e0"
                     points="1.4,0.32 1.6,0.32 1.6,0.48 1.4,0.48 "
                     id="polygon1057" />
                  <polygon
                     fill="#bdbdbd"
                     points="0,0.48 0.2,0.48 0.2,0.64 0,0.64 "
                     id="polygon1059" />
                  <polygon
                     fill="#bebebe"
                     points="0.2,0.48 0.4,0.48 0.4,0.64 0.2,0.64 "
                     id="polygon1061" />
                  <polygon
                     fill="#c1c1c1"
                     points="0.4,0.48 0.6,0.48 0.6,0.64 0.4,0.64 "
                     id="polygon1063" />
                  <polygon
                     fill="#f9f9f9"
                     points="0.6,0.48 0.8,0.48 0.8,0.64 0.6,0.64 "
                     id="polygon1065" />
                  <polygon
                     fill="#f8f8f8"
                     points="0.8,0.48 1,0.48 1,0.64 0.8,0.64 "
                     id="polygon1067" />
                  <polygon
                     fill="#ffe2e2"
                     points="1,0.48 1.2,0.48 1.2,0.64 1,0.64 "
                     id="polygon1069" />
                  <polygon
                     fill="#ffe4e4"
                     points="1.2,0.48 1.4,0.48 1.4,0.64 1.2,0.64 "
                     id="polygon1071" />
                  <polygon
                     fill="#ffe2e2"
                     points="1.4,0.48 1.6,0.48 1.6,0.64 1.4,0.64 "
                     id="polygon1073" />
                  <polygon
                     fill="#bcbcbc"
                     points="0,0.64 0.2,0.64 0.2,0.8 0,0.8 "
                     id="polygon1075" />
                  <polygon
                     fill="#bebebe"
                     points="0.2,0.64 0.4,0.64 0.4,0.8 0.2,0.8 "
                     id="polygon1077" />
                  <polygon
                     fill="#c0c0c0"
                     points="0.4,0.64 0.6,0.64 0.6,0.8 0.4,0.8 "
                     id="polygon1079" />
                  <polygon
                     fill="#f6f6f6"
                     points="0.6,0.64 0.8,0.64 0.8,0.8 0.6,0.8 "
                     id="polygon1081" />
                  <polygon
                     fill="#f3f3f3"
                     points="0.8,0.64 1,0.64 1,0.8 0.8,0.8 "
                     id="polygon1083" />
                  <polygon
                     fill="#ffe7e7"
                     points="1,0.64 1.2,0.64 1.2,0.8 1,0.8 "
                     id="polygon1085" />
                  <polygon
                     fill="#ffe8e8"
                     points="1.2,0.64 1.4,0.64 1.4,0.8 1.2,0.8 "
                     id="polygon1087" />
                  <polygon
                     fill="#ffe5e5"
                     points="1.4,0.64 1.6,0.64 1.6,0.8 1.4,0.8 "
                     id="polygon1089" />
                </g>
              </g>
              <g
                 id="g1097">
                <polyline
                   fill="none"
                   points="0.17,0.80 0.33,0.47 0.74,0.34 0.74,0.25 0.87,0.20 1.04,0.37 1.22,0.37 1.30,0.49 1.12,0.64 1.14,0.80 0.17,0.80"
                   stroke-width="0.05px"
                   stroke="#000000"
                   id="polyline1095" />
              </g>
              <circle
                 cx="0.80000001"
                 cy="0.5"
                 fill="#9999ea"
                 r="0.0080000004"
                 id="circle1099" />
            </g>
          </svg>
        </g>
      </g>
    </g>
    <text
       xml:space="preserve"
       style="font-size:0.234561px;line-height:1.25;font-family:sans-serif;stroke-width:0.0879602"
       x="-0.92150587"
       y="-0.5329653"
       id="text10946"><tspan
         sodipodi:role="line"
         id="tspan10944"
         style="font-size:0.234561px;stroke-width:0.0879602"
         x="-0.92150587"
         y="-0.5329653">2nd SV axis</tspan></text>
    <text
       xml:space="preserve"
       style="font-size:0.234561px;line-height:1.25;font-family:sans-serif;stroke-width:0.0879602"
       x="3.616962"
       y="1.2006919"
       id="text24014"><tspan
         sodipodi:role="line"
         id="tspan24012"
         style="font-size:0.234561px;stroke-width:0.0879602"
         x="3.616962"
         y="1.2006919">1st SV axis</tspan></text>
  </g>
</svg>
