<?xml version="1.0"?>
<svg version="1.1" viewBox="0 0 1000 600" xmlns:xlink="http://www.w3.org/1999/xlink" xmlns="http://www.w3.org/2000/svg">
<g>
<g>
<g stroke-dasharray="3.6 7.2" stroke-width="0.72" stroke="#caa">
<line x1="150.00" x2="150.00" y1="510.00" y2="90.00" />
<line x1="226.09" x2="226.09" y1="510.00" y2="90.00" />
<line x1="302.17" x2="302.17" y1="510.00" y2="90.00" />
<line x1="378.26" x2="378.26" y1="510.00" y2="90.00" />
<line x1="454.35" x2="454.35" y1="510.00" y2="90.00" />
<line x1="530.43" x2="530.43" y1="510.00" y2="90.00" />
<line x1="606.52" x2="606.52" y1="510.00" y2="90.00" />
<line x1="682.61" x2="682.61" y1="510.00" y2="90.00" />
<line x1="758.70" x2="758.70" y1="510.00" y2="90.00" />
<line x1="834.78" x2="834.78" y1="510.00" y2="90.00" />
<line x1="150.00" x2="850.00" y1="502.63" y2="502.63" />
<line x1="150.00" x2="850.00" y1="365.09" y2="365.09" />
<line x1="150.00" x2="850.00" y1="227.54" y2="227.54" />
<line x1="150.00" x2="850.00" y1="90.00" y2="90.00" />
</g>
<g>
<text dominant-baseline="hanging" dx="-18.0" dy="18.0" fill="#0004" font-family="Arial, sans-serif" font-size="36" stroke="none" text-anchor="end" x="850.00" y="90.00">dD</text>
</g>
<g>
<text dominant-baseline="hanging" dy="24.0" fill="black" font-family="Arial, sans-serif" font-size="13.090909090909092" stroke="none" text-anchor="middle" x="500.00" y="90.00">
</text>
</g>
<g>
<text dominant-baseline="bottom" dx="-36.0" fill="#0004" font-family="Arial, sans-serif" font-size="13.090909090909092" stroke="none" text-anchor="middle" text-orientation="sideways" writing-mode="vertical-lr" x="150.00" y="90.00">
</text>
</g>
<polyline fill="none" points="150.00,468.79 157.61,476.08 165.22,475.26 172.83,461.92 180.43,456.55 188.04,476.08 195.65,452.15 203.26,462.33 210.87,455.18 210.87,462.74 218.48,462.33 530.43,438.40 538.04,448.16 545.65,446.65 553.26,432.76 560.87,443.76 568.48,446.37 576.09,404.15 583.70,436.33 591.30,470.86 598.91,437.85 606.52,412.54 614.13,436.33 621.74,431.38 629.35,432.21 636.96,456.00 644.57,360.68 652.17,423.68 659.78,425.19 667.39,422.58 675.00,415.84 682.61,415.15 690.22,429.46 697.83,413.64 697.83,413.09 705.43,402.77 713.04,396.17 720.65,415.01 728.26,419.28 735.87,413.36 743.48,412.95 751.09,418.59 758.70,428.63 766.30,435.92 773.91,422.85 773.91,434.13 781.52,433.31 789.13,436.47 796.74,436.74 804.35,464.94 811.96,445.96 819.57,435.37 827.17,440.18 834.78,447.06 842.39,445.82 850.00,436.74" stroke="magenta" />
<g stroke="magenta">
<circle cx="150.00" cy="468.79" r="3" />
<circle cx="157.61" cy="476.08" r="3" />
<circle cx="165.22" cy="475.26" r="3" />
<circle cx="172.83" cy="461.92" r="3" />
<circle cx="180.43" cy="456.55" r="3" />
<circle cx="188.04" cy="476.08" r="3" />
<circle cx="195.65" cy="452.15" r="3" />
<circle cx="203.26" cy="462.33" r="3" />
<circle cx="210.87" cy="455.18" r="3" />
<circle cx="210.87" cy="462.74" r="3" />
<circle cx="218.48" cy="462.33" r="3" />
<circle cx="530.43" cy="438.40" r="3" />
<circle cx="538.04" cy="448.16" r="3" />
<circle cx="545.65" cy="446.65" r="3" />
<circle cx="553.26" cy="432.76" r="3" />
<circle cx="560.87" cy="443.76" r="3" />
<circle cx="568.48" cy="446.37" r="3" />
<circle cx="576.09" cy="404.15" r="3" />
<circle cx="583.70" cy="436.33" r="3" />
<circle cx="591.30" cy="470.86" r="3" />
<circle cx="598.91" cy="437.85" r="3" />
<circle cx="606.52" cy="412.54" r="3" />
<circle cx="614.13" cy="436.33" r="3" />
<circle cx="621.74" cy="431.38" r="3" />
<circle cx="629.35" cy="432.21" r="3" />
<circle cx="636.96" cy="456.00" r="3" />
<circle cx="644.57" cy="360.68" r="3" />
<circle cx="652.17" cy="423.68" r="3" />
<circle cx="659.78" cy="425.19" r="3" />
<circle cx="667.39" cy="422.58" r="3" />
<circle cx="675.00" cy="415.84" r="3" />
<circle cx="682.61" cy="415.15" r="3" />
<circle cx="690.22" cy="429.46" r="3" />
<circle cx="697.83" cy="413.64" r="3" />
<circle cx="697.83" cy="413.09" r="3" />
<circle cx="705.43" cy="402.77" r="3" />
<circle cx="713.04" cy="396.17" r="3" />
<circle cx="720.65" cy="415.01" r="3" />
<circle cx="728.26" cy="419.28" r="3" />
<circle cx="735.87" cy="413.36" r="3" />
<circle cx="743.48" cy="412.95" r="3" />
<circle cx="751.09" cy="418.59" r="3" />
<circle cx="758.70" cy="428.63" r="3" />
<circle cx="766.30" cy="435.92" r="3" />
<circle cx="773.91" cy="422.85" r="3" />
<circle cx="773.91" cy="434.13" r="3" />
<circle cx="781.52" cy="433.31" r="3" />
<circle cx="789.13" cy="436.47" r="3" />
<circle cx="796.74" cy="436.74" r="3" />
<circle cx="804.35" cy="464.94" r="3" />
<circle cx="811.96" cy="445.96" r="3" />
<circle cx="819.57" cy="435.37" r="3" />
<circle cx="827.17" cy="440.18" r="3" />
<circle cx="834.78" cy="447.06" r="3" />
<circle cx="842.39" cy="445.82" r="3" />
<circle cx="850.00" cy="436.74" r="3" />
</g>
<g stroke="black">
<line x1="150.00" x2="150.00" y1="510.00" y2="520.00" />
<line x1="226.09" x2="226.09" y1="510.00" y2="520.00" />
<line x1="302.17" x2="302.17" y1="510.00" y2="520.00" />
<line x1="378.26" x2="378.26" y1="510.00" y2="520.00" />
<line x1="454.35" x2="454.35" y1="510.00" y2="520.00" />
<line x1="530.43" x2="530.43" y1="510.00" y2="520.00" />
<line x1="606.52" x2="606.52" y1="510.00" y2="520.00" />
<line x1="682.61" x2="682.61" y1="510.00" y2="520.00" />
<line x1="758.70" x2="758.70" y1="510.00" y2="520.00" />
<line x1="834.78" x2="834.78" y1="510.00" y2="520.00" />
<g fill="black" font-family="Arial, sans-serif" font-size="18.0" stroke="none" text-anchor="start" transform="translate(9.0 0.0)">
<text x="150.00" y="530.57">0</text>
<text x="226.09" y="530.57">10</text>
<text x="302.17" y="530.57">20</text>
<text x="378.26" y="530.57">30</text>
<text x="454.35" y="530.57">40</text>
<text x="530.43" y="530.57">50</text>
<text x="606.52" y="530.57">60</text>
<text x="682.61" y="530.57">70</text>
<text x="758.70" y="530.57">80</text>
<text x="834.78" y="530.57">90</text>
</g>
<line x1="150.00" x2="850.00" y1="510.00" y2="510.00" />
</g>
<g stroke="#0004">
<line x1="150.00" x2="140.00" y1="502.63" y2="502.63" />
<line x1="150.00" x2="140.00" y1="365.09" y2="365.09" />
<line x1="150.00" x2="140.00" y1="227.54" y2="227.54" />
<line x1="150.00" x2="140.00" y1="90.00" y2="90.00" />
<g fill="black" font-family="Arial, sans-serif" font-size="18.0" stroke="none" text-anchor="end">
<text x="141.00" y="493.63">-30</text>
<text x="141.00" y="356.09">-20</text>
<text x="141.00" y="218.54">-10</text>
<text x="141.00" y="81.00">0</text>
</g>
<line x1="150.00" x2="150.00" y1="510.00" y2="90.00" />
</g>
</g>
<g>
<g stroke-dasharray="3.6 7.2" stroke-width="0.72" stroke="#caa">
<line x1="150.00" x2="150.00" y1="510.00" y2="90.00" />
<line x1="226.09" x2="226.09" y1="510.00" y2="90.00" />
<line x1="302.17" x2="302.17" y1="510.00" y2="90.00" />
<line x1="378.26" x2="378.26" y1="510.00" y2="90.00" />
<line x1="454.35" x2="454.35" y1="510.00" y2="90.00" />
<line x1="530.43" x2="530.43" y1="510.00" y2="90.00" />
<line x1="606.52" x2="606.52" y1="510.00" y2="90.00" />
<line x1="682.61" x2="682.61" y1="510.00" y2="90.00" />
<line x1="758.70" x2="758.70" y1="510.00" y2="90.00" />
<line x1="834.78" x2="834.78" y1="510.00" y2="90.00" />
<line x1="150.00" x2="850.00" y1="502.63" y2="502.63" />
<line x1="150.00" x2="850.00" y1="365.09" y2="365.09" />
<line x1="150.00" x2="850.00" y1="227.54" y2="227.54" />
<line x1="150.00" x2="850.00" y1="90.00" y2="90.00" />
</g>
<g>
<text dominant-baseline="hanging" dx="-18.0" dy="18.0" fill="#0004" font-family="Arial, sans-serif" font-size="36" stroke="none" text-anchor="end" x="850.00" y="90.00">dD</text>
</g>
<g>
<text dominant-baseline="hanging" dy="24.0" fill="black" font-family="Arial, sans-serif" font-size="13.090909090909092" stroke="none" text-anchor="middle" x="500.00" y="90.00">
</text>
</g>
<g>
<text dominant-baseline="bottom" dx="-36.0" fill="#0004" font-family="Arial, sans-serif" font-size="13.090909090909092" stroke="none" text-anchor="middle" text-orientation="sideways" writing-mode="vertical-lr" x="150.00" y="90.00">
</text>
</g>
<polyline fill="none" points="332.61,459.58 439.13,460.95 530.43,461.09 591.30,471.82 697.83,457.51 773.91,457.65 850.00,454.21" stroke="blue" />
<g stroke="blue">
<circle cx="332.61" cy="459.58" r="3" />
<circle cx="439.13" cy="460.95" r="3" />
<circle cx="530.43" cy="461.09" r="3" />
<circle cx="591.30" cy="471.82" r="3" />
<circle cx="697.83" cy="457.51" r="3" />
<circle cx="773.91" cy="457.65" r="3" />
<circle cx="850.00" cy="454.21" r="3" />
</g>
<g stroke="black">
<line x1="150.00" x2="150.00" y1="510.00" y2="520.00" />
<line x1="226.09" x2="226.09" y1="510.00" y2="520.00" />
<line x1="302.17" x2="302.17" y1="510.00" y2="520.00" />
<line x1="378.26" x2="378.26" y1="510.00" y2="520.00" />
<line x1="454.35" x2="454.35" y1="510.00" y2="520.00" />
<line x1="530.43" x2="530.43" y1="510.00" y2="520.00" />
<line x1="606.52" x2="606.52" y1="510.00" y2="520.00" />
<line x1="682.61" x2="682.61" y1="510.00" y2="520.00" />
<line x1="758.70" x2="758.70" y1="510.00" y2="520.00" />
<line x1="834.78" x2="834.78" y1="510.00" y2="520.00" />
<g fill="black" font-family="Arial, sans-serif" font-size="18.0" stroke="none" text-anchor="start" transform="translate(9.0 0.0)">
<text x="150.00" y="530.57">0</text>
<text x="226.09" y="530.57">10</text>
<text x="302.17" y="530.57">20</text>
<text x="378.26" y="530.57">30</text>
<text x="454.35" y="530.57">40</text>
<text x="530.43" y="530.57">50</text>
<text x="606.52" y="530.57">60</text>
<text x="682.61" y="530.57">70</text>
<text x="758.70" y="530.57">80</text>
<text x="834.78" y="530.57">90</text>
</g>
<line x1="150.00" x2="850.00" y1="510.00" y2="510.00" />
</g>
<g stroke="#0004">
<line x1="150.00" x2="140.00" y1="502.63" y2="502.63" />
<line x1="150.00" x2="140.00" y1="365.09" y2="365.09" />
<line x1="150.00" x2="140.00" y1="227.54" y2="227.54" />
<line x1="150.00" x2="140.00" y1="90.00" y2="90.00" />
<g fill="black" font-family="Arial, sans-serif" font-size="18.0" stroke="none" text-anchor="end">
<text x="141.00" y="493.63">-30</text>
<text x="141.00" y="356.09">-20</text>
<text x="141.00" y="218.54">-10</text>
<text x="141.00" y="81.00">0</text>
</g>
<line x1="150.00" x2="150.00" y1="510.00" y2="90.00" />
</g>
</g>
<g>
<g stroke-dasharray="3.6 7.2" stroke-width="0.72" stroke="#caa">
<line x1="150.00" x2="150.00" y1="510.00" y2="90.00" />
<line x1="226.09" x2="226.09" y1="510.00" y2="90.00" />
<line x1="302.17" x2="302.17" y1="510.00" y2="90.00" />
<line x1="378.26" x2="378.26" y1="510.00" y2="90.00" />
<line x1="454.35" x2="454.35" y1="510.00" y2="90.00" />
<line x1="530.43" x2="530.43" y1="510.00" y2="90.00" />
<line x1="606.52" x2="606.52" y1="510.00" y2="90.00" />
<line x1="682.61" x2="682.61" y1="510.00" y2="90.00" />
<line x1="758.70" x2="758.70" y1="510.00" y2="90.00" />
<line x1="834.78" x2="834.78" y1="510.00" y2="90.00" />
<line x1="150.00" x2="850.00" y1="502.63" y2="502.63" />
<line x1="150.00" x2="850.00" y1="365.09" y2="365.09" />
<line x1="150.00" x2="850.00" y1="227.54" y2="227.54" />
<line x1="150.00" x2="850.00" y1="90.00" y2="90.00" />
</g>
<g>
<text dominant-baseline="hanging" dx="-18.0" dy="18.0" fill="#0004" font-family="Arial, sans-serif" font-size="36" stroke="none" text-anchor="end" x="850.00" y="90.00">dD</text>
</g>
<g>
<text dominant-baseline="hanging" dy="24.0" fill="black" font-family="Arial, sans-serif" font-size="13.090909090909092" stroke="none" text-anchor="middle" x="500.00" y="90.00">
</text>
</g>
<g>
<text dominant-baseline="bottom" dx="-36.0" fill="#0004" font-family="Arial, sans-serif" font-size="13.090909090909092" stroke="none" text-anchor="middle" text-orientation="sideways" writing-mode="vertical-lr" x="150.00" y="90.00">
</text>
</g>
<polyline fill="none" points="210.87,352.57 332.61,452.56 439.13,366.05 530.43,456.83 591.30,448.71 697.83,442.66 773.91,440.60 850.00,478.97" stroke="cyan" />
<g stroke="cyan">
<circle cx="210.87" cy="352.57" r="3" />
<circle cx="332.61" cy="452.56" r="3" />
<circle cx="439.13" cy="366.05" r="3" />
<circle cx="530.43" cy="456.83" r="3" />
<circle cx="591.30" cy="448.71" r="3" />
<circle cx="697.83" cy="442.66" r="3" />
<circle cx="773.91" cy="440.60" r="3" />
<circle cx="850.00" cy="478.97" r="3" />
</g>
<g stroke="black">
<line x1="150.00" x2="150.00" y1="510.00" y2="520.00" />
<line x1="226.09" x2="226.09" y1="510.00" y2="520.00" />
<line x1="302.17" x2="302.17" y1="510.00" y2="520.00" />
<line x1="378.26" x2="378.26" y1="510.00" y2="520.00" />
<line x1="454.35" x2="454.35" y1="510.00" y2="520.00" />
<line x1="530.43" x2="530.43" y1="510.00" y2="520.00" />
<line x1="606.52" x2="606.52" y1="510.00" y2="520.00" />
<line x1="682.61" x2="682.61" y1="510.00" y2="520.00" />
<line x1="758.70" x2="758.70" y1="510.00" y2="520.00" />
<line x1="834.78" x2="834.78" y1="510.00" y2="520.00" />
<g fill="black" font-family="Arial, sans-serif" font-size="18.0" stroke="none" text-anchor="start" transform="translate(9.0 0.0)">
<text x="150.00" y="530.57">0</text>
<text x="226.09" y="530.57">10</text>
<text x="302.17" y="530.57">20</text>
<text x="378.26" y="530.57">30</text>
<text x="454.35" y="530.57">40</text>
<text x="530.43" y="530.57">50</text>
<text x="606.52" y="530.57">60</text>
<text x="682.61" y="530.57">70</text>
<text x="758.70" y="530.57">80</text>
<text x="834.78" y="530.57">90</text>
</g>
<line x1="150.00" x2="850.00" y1="510.00" y2="510.00" />
</g>
<g stroke="#0004">
<line x1="150.00" x2="140.00" y1="502.63" y2="502.63" />
<line x1="150.00" x2="140.00" y1="365.09" y2="365.09" />
<line x1="150.00" x2="140.00" y1="227.54" y2="227.54" />
<line x1="150.00" x2="140.00" y1="90.00" y2="90.00" />
<g fill="black" font-family="Arial, sans-serif" font-size="18.0" stroke="none" text-anchor="end">
<text x="141.00" y="493.63">-30</text>
<text x="141.00" y="356.09">-20</text>
<text x="141.00" y="218.54">-10</text>
<text x="141.00" y="81.00">0</text>
</g>
<line x1="150.00" x2="150.00" y1="510.00" y2="90.00" />
</g>
</g>
<g>
<g stroke-dasharray="3.6 7.2" stroke-width="0.72" stroke="#caa">
<line x1="150.00" x2="150.00" y1="510.00" y2="90.00" />
<line x1="226.09" x2="226.09" y1="510.00" y2="90.00" />
<line x1="302.17" x2="302.17" y1="510.00" y2="90.00" />
<line x1="378.26" x2="378.26" y1="510.00" y2="90.00" />
<line x1="454.35" x2="454.35" y1="510.00" y2="90.00" />
<line x1="530.43" x2="530.43" y1="510.00" y2="90.00" />
<line x1="606.52" x2="606.52" y1="510.00" y2="90.00" />
<line x1="682.61" x2="682.61" y1="510.00" y2="90.00" />
<line x1="758.70" x2="758.70" y1="510.00" y2="90.00" />
<line x1="834.78" x2="834.78" y1="510.00" y2="90.00" />
<line x1="150.00" x2="850.00" y1="502.63" y2="502.63" />
<line x1="150.00" x2="850.00" y1="365.09" y2="365.09" />
<line x1="150.00" x2="850.00" y1="227.54" y2="227.54" />
<line x1="150.00" x2="850.00" y1="90.00" y2="90.00" />
</g>
<g>
<text dominant-baseline="hanging" dx="-18.0" dy="18.0" fill="#0004" font-family="Arial, sans-serif" font-size="36" stroke="none" text-anchor="end" x="850.00" y="90.00">dD</text>
</g>
<g>
<text dominant-baseline="hanging" dy="24.0" fill="black" font-family="Arial, sans-serif" font-size="13.090909090909092" stroke="none" text-anchor="middle" x="500.00" y="90.00">
</text>
</g>
<g>
<text dominant-baseline="bottom" dx="-36.0" fill="#0004" font-family="Arial, sans-serif" font-size="13.090909090909092" stroke="none" text-anchor="middle" text-orientation="sideways" writing-mode="vertical-lr" x="150.00" y="90.00">
</text>
</g>
<polyline fill="none" points="210.87,341.15 332.61,479.38 439.13,465.08 530.43,207.19 850.00,245.84" stroke="grey" />
<g stroke="grey">
<circle cx="210.87" cy="341.15" r="3" />
<circle cx="332.61" cy="479.38" r="3" />
<circle cx="439.13" cy="465.08" r="3" />
<circle cx="530.43" cy="207.19" r="3" />
<circle cx="850.00" cy="245.84" r="3" />
</g>
<g stroke="black">
<line x1="150.00" x2="150.00" y1="510.00" y2="520.00" />
<line x1="226.09" x2="226.09" y1="510.00" y2="520.00" />
<line x1="302.17" x2="302.17" y1="510.00" y2="520.00" />
<line x1="378.26" x2="378.26" y1="510.00" y2="520.00" />
<line x1="454.35" x2="454.35" y1="510.00" y2="520.00" />
<line x1="530.43" x2="530.43" y1="510.00" y2="520.00" />
<line x1="606.52" x2="606.52" y1="510.00" y2="520.00" />
<line x1="682.61" x2="682.61" y1="510.00" y2="520.00" />
<line x1="758.70" x2="758.70" y1="510.00" y2="520.00" />
<line x1="834.78" x2="834.78" y1="510.00" y2="520.00" />
<g fill="black" font-family="Arial, sans-serif" font-size="18.0" stroke="none" text-anchor="start" transform="translate(9.0 0.0)">
<text x="150.00" y="530.57">0</text>
<text x="226.09" y="530.57">10</text>
<text x="302.17" y="530.57">20</text>
<text x="378.26" y="530.57">30</text>
<text x="454.35" y="530.57">40</text>
<text x="530.43" y="530.57">50</text>
<text x="606.52" y="530.57">60</text>
<text x="682.61" y="530.57">70</text>
<text x="758.70" y="530.57">80</text>
<text x="834.78" y="530.57">90</text>
</g>
<line x1="150.00" x2="850.00" y1="510.00" y2="510.00" />
</g>
<g stroke="#0004">
<line x1="150.00" x2="140.00" y1="502.63" y2="502.63" />
<line x1="150.00" x2="140.00" y1="365.09" y2="365.09" />
<line x1="150.00" x2="140.00" y1="227.54" y2="227.54" />
<line x1="150.00" x2="140.00" y1="90.00" y2="90.00" />
<g fill="black" font-family="Arial, sans-serif" font-size="18.0" stroke="none" text-anchor="end">
<text x="141.00" y="493.63">-30</text>
<text x="141.00" y="356.09">-20</text>
<text x="141.00" y="218.54">-10</text>
<text x="141.00" y="81.00">0</text>
</g>
<line x1="150.00" x2="150.00" y1="510.00" y2="90.00" />
</g>
</g>
<g>
<g stroke-dasharray="3.6 7.2" stroke-width="0.72" stroke="#caa">
<line x1="150.00" x2="150.00" y1="510.00" y2="90.00" />
<line x1="226.09" x2="226.09" y1="510.00" y2="90.00" />
<line x1="302.17" x2="302.17" y1="510.00" y2="90.00" />
<line x1="378.26" x2="378.26" y1="510.00" y2="90.00" />
<line x1="454.35" x2="454.35" y1="510.00" y2="90.00" />
<line x1="530.43" x2="530.43" y1="510.00" y2="90.00" />
<line x1="606.52" x2="606.52" y1="510.00" y2="90.00" />
<line x1="682.61" x2="682.61" y1="510.00" y2="90.00" />
<line x1="758.70" x2="758.70" y1="510.00" y2="90.00" />
<line x1="834.78" x2="834.78" y1="510.00" y2="90.00" />
<line x1="150.00" x2="850.00" y1="502.63" y2="502.63" />
<line x1="150.00" x2="850.00" y1="365.09" y2="365.09" />
<line x1="150.00" x2="850.00" y1="227.54" y2="227.54" />
<line x1="150.00" x2="850.00" y1="90.00" y2="90.00" />
</g>
<g>
<text dominant-baseline="hanging" dx="-18.0" dy="18.0" fill="#0004" font-family="Arial, sans-serif" font-size="36" stroke="none" text-anchor="end" x="850.00" y="90.00">dD</text>
</g>
<g>
<text dominant-baseline="hanging" dy="24.0" fill="black" font-family="Arial, sans-serif" font-size="13.090909090909092" stroke="none" text-anchor="middle" x="500.00" y="90.00">
</text>
</g>
<g>
<text dominant-baseline="bottom" dx="-36.0" fill="#0004" font-family="Arial, sans-serif" font-size="13.090909090909092" stroke="none" text-anchor="middle" text-orientation="sideways" writing-mode="vertical-lr" x="150.00" y="90.00">
</text>
</g>
<polyline fill="none" points="210.87,467.97 332.61,447.89 439.13,372.10 530.43,412.12 591.30,392.18 697.83,354.22 773.91,340.33 850.00,263.58" stroke="red" />
<g stroke="black">
<circle cx="210.87" cy="467.97" r="3" />
<circle cx="332.61" cy="447.89" r="3" />
<circle cx="439.13" cy="372.10" r="3" />
<circle cx="530.43" cy="412.12" r="3" />
<circle cx="591.30" cy="392.18" r="3" />
<circle cx="697.83" cy="354.22" r="3" />
<circle cx="773.91" cy="340.33" r="3" />
<circle cx="850.00" cy="263.58" r="3" />
</g>
<g stroke="black">
<line x1="150.00" x2="150.00" y1="510.00" y2="520.00" />
<line x1="226.09" x2="226.09" y1="510.00" y2="520.00" />
<line x1="302.17" x2="302.17" y1="510.00" y2="520.00" />
<line x1="378.26" x2="378.26" y1="510.00" y2="520.00" />
<line x1="454.35" x2="454.35" y1="510.00" y2="520.00" />
<line x1="530.43" x2="530.43" y1="510.00" y2="520.00" />
<line x1="606.52" x2="606.52" y1="510.00" y2="520.00" />
<line x1="682.61" x2="682.61" y1="510.00" y2="520.00" />
<line x1="758.70" x2="758.70" y1="510.00" y2="520.00" />
<line x1="834.78" x2="834.78" y1="510.00" y2="520.00" />
<g fill="black" font-family="Arial, sans-serif" font-size="18.0" stroke="none" text-anchor="start" transform="translate(9.0 0.0)">
<text x="150.00" y="530.57">0</text>
<text x="226.09" y="530.57">10</text>
<text x="302.17" y="530.57">20</text>
<text x="378.26" y="530.57">30</text>
<text x="454.35" y="530.57">40</text>
<text x="530.43" y="530.57">50</text>
<text x="606.52" y="530.57">60</text>
<text x="682.61" y="530.57">70</text>
<text x="758.70" y="530.57">80</text>
<text x="834.78" y="530.57">90</text>
</g>
<line x1="150.00" x2="850.00" y1="510.00" y2="510.00" />
</g>
<g stroke="#0004">
<line x1="150.00" x2="140.00" y1="502.63" y2="502.63" />
<line x1="150.00" x2="140.00" y1="365.09" y2="365.09" />
<line x1="150.00" x2="140.00" y1="227.54" y2="227.54" />
<line x1="150.00" x2="140.00" y1="90.00" y2="90.00" />
<g fill="black" font-family="Arial, sans-serif" font-size="18.0" stroke="none" text-anchor="end">
<text x="141.00" y="493.63">-30</text>
<text x="141.00" y="356.09">-20</text>
<text x="141.00" y="218.54">-10</text>
<text x="141.00" y="81.00">0</text>
</g>
<line x1="150.00" x2="150.00" y1="510.00" y2="90.00" />
</g>
</g>
</g>
</svg>