<?xml version="1.0"?>
<svg version="1.1" viewBox="0 0 1000 1000" xmlns:xlink="http://www.w3.org/1999/xlink" xmlns="http://www.w3.org/2000/svg">
<g>
<g stroke-dasharray="1 1" stroke="#caa">
<line x1="83.33" x2="83.33" y1="1000.00" y2="0.00" />
<line x1="361.11" x2="361.11" y1="1000.00" y2="0.00" />
<line x1="638.89" x2="638.89" y1="1000.00" y2="0.00" />
<line x1="916.67" x2="916.67" y1="1000.00" y2="0.00" />
<line x1="0.00" x2="1000.00" y1="948.81" y2="948.81" />
<line x1="0.00" x2="1000.00" y1="825.17" y2="825.17" />
<line x1="0.00" x2="1000.00" y1="701.53" y2="701.53" />
<line x1="0.00" x2="1000.00" y1="577.89" y2="577.89" />
<line x1="0.00" x2="1000.00" y1="454.25" y2="454.25" />
<line x1="0.00" x2="1000.00" y1="330.61" y2="330.61" />
<line x1="0.00" x2="1000.00" y1="206.97" y2="206.97" />
<line x1="0.00" x2="1000.00" y1="83.33" y2="83.33" />
</g>
<g>
<text dominant-baseline="bottom" fill="#444" font-size="40" stroke="none" text-anchor="start" x="111.11" y="58.61">δ18O variation at two drip sites in Tham Murd</text>
</g>
<g>
<text dominant-baseline="hanging" fill="#444" font-size="30" stroke="none" text-anchor="start" x="111.11" y="108.06">Period 2022-11-30 to 2022-12-19</text>
</g>
<polyline fill="none" points="83.33,916.67 361.11,915.43 638.89,874.63 916.67,804.15" stroke-dasharray="3.6 3.6" stroke-width="3.6" stroke="#aaa" />
<polyline fill="none" points="83.33,924.09 361.11,882.05 638.89,846.19 916.67,805.39" stroke-dasharray="3.6 3.6" stroke-width="3.6" stroke="#aaa" />
<g>
<text dominant-baseline="central" fill="#444" font-size="30" stroke="none" text-anchor="middle" x="83.33" y="916.67">B0</text>
<text dominant-baseline="central" fill="#444" font-size="30" stroke="none" text-anchor="middle" x="361.11" y="915.43">B1</text>
<text dominant-baseline="central" fill="#444" font-size="30" stroke="none" text-anchor="middle" x="638.89" y="874.63">B2</text>
<text dominant-baseline="central" fill="#444" font-size="30" stroke="none" text-anchor="middle" x="916.67" y="804.15">B3</text>
</g>
<g>
<text dominant-baseline="central" fill="#444" font-size="30" stroke="none" text-anchor="middle" x="83.33" y="924.09">C0</text>
<text dominant-baseline="central" fill="#444" font-size="30" stroke="none" text-anchor="middle" x="361.11" y="882.05">C1</text>
<text dominant-baseline="central" fill="#444" font-size="30" stroke="none" text-anchor="middle" x="638.89" y="846.19">C2</text>
<text dominant-baseline="central" fill="#444" font-size="30" stroke="none" text-anchor="middle" x="916.67" y="805.39">C3</text>
</g>
<g stroke="black">
<line x1="83.33" x2="83.33" y1="83.33" y2="93.33" />
<line x1="361.11" x2="361.11" y1="83.33" y2="93.33" />
<line x1="638.89" x2="638.89" y1="83.33" y2="93.33" />
<line x1="916.67" x2="916.67" y1="83.33" y2="93.33" />
<g fill="black" font-family="Arial, sans-serif" font-size="18.0" stroke="none" text-anchor="start" transform="translate(9.0 0.0)">
<text x="83.33" y="103.90">0</text>
<text x="361.11" y="103.90">1</text>
<text x="638.89" y="103.90">2</text>
<text x="916.67" y="103.90">3</text>
</g>
<line x1="0.00" x2="1000.00" y1="83.33" y2="83.33" />
</g>
<g stroke="black">
<line x1="83.33" x2="73.33" y1="948.81" y2="948.81" />
<line x1="83.33" x2="73.33" y1="825.17" y2="825.17" />
<line x1="83.33" x2="73.33" y1="701.53" y2="701.53" />
<line x1="83.33" x2="73.33" y1="577.89" y2="577.89" />
<line x1="83.33" x2="73.33" y1="454.25" y2="454.25" />
<line x1="83.33" x2="73.33" y1="330.61" y2="330.61" />
<line x1="83.33" x2="73.33" y1="206.97" y2="206.97" />
<line x1="83.33" x2="73.33" y1="83.33" y2="83.33" />
<g fill="black" font-family="Arial, sans-serif" font-size="18.0" stroke="none" text-anchor="end">
<text x="74.33" y="939.81">-7</text>
<text x="74.33" y="816.17">-6</text>
<text x="74.33" y="692.53">-5</text>
<text x="74.33" y="568.89">-4</text>
<text x="74.33" y="445.25">-3</text>
<text x="74.33" y="321.61">-2</text>
<text x="74.33" y="197.97">-1</text>
<text x="74.33" y="74.33">0</text>
</g>
<line x1="83.33" x2="83.33" y1="1000.00" y2="0.00" />
</g>
</g>
</svg>